CrimsonText_New_Draft_39_CAPS_Bold_80%.ufo
<glyph name="exclam" format="1">
  <advance width="252"/>
  <unicode hex="0021"/>
  <outline>
    <contour>
      <point x="98" y="215" type="curve"/>
      <point x="154" y="215" type="line"/>
      <point x="169" y="316"/>
      <point x="222" y="369"/>
      <point x="222" y="438" type="curve" smooth="yes"/>
      <point x="222" y="515"/>
      <point x="177" y="558"/>
      <point x="126" y="558" type="curve" smooth="yes"/>
      <point x="75" y="558"/>
      <point x="30" y="515"/>
      <point x="30" y="438" type="curve" smooth="yes"/>
      <point x="30" y="369"/>
      <point x="83" y="316"/>
    </contour>
    <contour>
      <point x="126" y="-8" type="curve" smooth="yes"/>
      <point x="177" y="-8"/>
      <point x="218" y="34"/>
      <point x="218" y="88" type="curve" smooth="yes"/>
      <point x="218" y="144"/>
      <point x="177" y="189"/>
      <point x="126" y="189" type="curve" smooth="yes"/>
      <point x="76" y="189"/>
      <point x="34" y="144"/>
      <point x="34" y="88" type="curve" smooth="yes"/>
      <point x="34" y="34"/>
      <point x="76" y="-8"/>
    </contour>
  </outline>
</glyph>
<glyph name="numbersign" format="1">
  <advance width="480"/>
  <unicode hex="0023"/>
  <outline>
    <contour>
      <point x="226" y="0" type="line"/>
      <point x="292" y="0" type="line"/>
      <point x="402" y="528" type="line"/>
      <point x="336" y="528" type="line"/>
    </contour>
    <contour>
      <point x="32" y="145" type="line"/>
      <point x="432" y="145" type="line"/>
      <point x="432" y="207" type="line"/>
      <point x="32" y="207" type="line"/>
    </contour>
    <contour>
      <point x="78" y="0" type="line"/>
      <point x="144" y="0" type="line"/>
      <point x="254" y="528" type="line"/>
      <point x="188" y="528" type="line"/>
    </contour>
    <contour>
      <point x="48" y="321" type="line"/>
      <point x="448" y="321" type="line"/>
      <point x="448" y="383" type="line"/>
      <point x="48" y="383" type="line"/>
    </contour>
  </outline>
</glyph>
<glyph name="dollar" format="1">
  <advance width="452"/>
  <unicode hex="0024"/>
  <outline>
    <contour>
      <point x="206" y="-8" type="curve" smooth="yes"/>
      <point x="348" y="-8"/>
      <point x="443" y="61"/>
      <point x="443" y="163" type="curve" smooth="yes"/>
      <point x="443" y="232"/>
      <point x="403" y="279"/>
      <point x="309" y="306" type="curve" smooth="yes"/>
      <point x="213" y="338"/>
      <point x="179" y="363"/>
      <point x="179" y="410" type="curve" smooth="yes"/>
      <point x="179" y="452"/>
      <point x="216" y="475"/>
      <point x="259" y="475" type="curve" smooth="yes"/>
      <point x="278" y="475"/>
      <point x="298" y="473"/>
      <point x="321" y="463" type="curve"/>
      <point x="331" y="443"/>
      <point x="343" y="404"/>
      <point x="351" y="366" type="curve"/>
      <point x="414" y="372" type="line"/>
      <point x="402" y="512" type="line"/>
      <point x="368" y="527"/>
      <point x="308" y="538"/>
      <point x="268" y="538" type="curve" smooth="yes"/>
      <point x="128" y="538"/>
      <point x="36" y="470"/>
      <point x="36" y="369" type="curve" smooth="yes"/>
      <point x="36" y="293"/>
      <point x="82" y="244"/>
      <point x="184" y="207" type="curve" smooth="yes"/>
      <point x="276" y="172"/>
      <point x="297" y="151"/>
      <point x="297" y="111" type="curve" smooth="yes"/>
      <point x="297" y="76"/>
      <point x="269" y="57"/>
      <point x="217" y="57" type="curve" smooth="yes"/>
      <point x="194" y="57"/>
      <point x="157" y="63"/>
      <point x="132" y="79" type="curve"/>
      <point x="119" y="112"/>
      <point x="108" y="147"/>
      <point x="100" y="180" type="curve"/>
      <point x="35" y="175" type="line"/>
      <point x="34" y="135"/>
      <point x="36" y="91"/>
      <point x="39" y="35" type="curve"/>
      <point x="86" y="8"/>
      <point x="154" y="-8"/>
    </contour>
    <contour>
      <point x="206" y="-104" type="line"/>
      <point x="274" y="-104" type="line"/>
      <point x="274" y="632" type="line"/>
      <point x="206" y="632" type="line"/>
    </contour>
  </outline>
</glyph>
<glyph name="quotesingle" format="1">
  <advance width="258"/>
  <unicode hex="0027"/>
  <outline>
    <contour>
      <point x="129" y="558" type="curve" smooth="yes"/>
      <point x="82" y="558"/>
      <point x="47" y="517"/>
      <point x="47" y="455" type="curve" smooth="yes"/>
      <point x="47" y="400"/>
      <point x="88" y="265"/>
      <point x="108" y="190" type="curve"/>
      <point x="150" y="190" type="line"/>
      <point x="170" y="265"/>
      <point x="211" y="400"/>
      <point x="211" y="455" type="curve" smooth="yes"/>
      <point x="211" y="517"/>
      <point x="175" y="558"/>
    </contour>
  </outline>
</glyph>
<glyph name="parenright" format="1">
  <advance width="329"/>
  <unicode hex="0029"/>
  <outline>
    <contour>
      <point x="39" y="583" type="curve"/>
      <point x="0" y="552" type="line"/>
      <point x="73" y="481"/>
      <point x="116" y="353"/>
      <point x="116" y="200" type="curve" smooth="yes"/>
      <point x="116" y="47"/>
      <point x="73" y="-81"/>
      <point x="0" y="-152" type="curve"/>
      <point x="39" y="-183" type="line"/>
      <point x="183" y="-86"/>
      <point x="259" y="44"/>
      <point x="259" y="200" type="curve" smooth="yes"/>
      <point x="259" y="359"/>
      <point x="183" y="489"/>
    </contour>
  </outline>
</glyph>
<glyph name="plus" format="1">
  <advance width="480"/>
  <unicode hex="002B"/>
  <outline>
    <contour>
      <point x="435" y="274" type="line"/>
      <point x="45" y="274" type="line"/>
      <point x="45" y="186" type="line"/>
      <point x="435" y="186" type="line"/>
    </contour>
    <contour>
      <point x="199" y="425" type="line"/>
      <point x="199" y="34" type="line"/>
      <point x="281" y="34" type="line"/>
      <point x="281" y="425" type="line"/>
    </contour>
  </outline>
</glyph>
<glyph name="comma" format="1">
  <advance width="258"/>
  <unicode hex="002C"/>
  <outline>
    <contour>
      <point x="42" y="-196" type="line"/>
      <point x="173" y="-138"/>
      <point x="227" y="-55"/>
      <point x="227" y="54" type="curve" smooth="yes"/>
      <point x="227" y="155"/>
      <point x="173" y="189"/>
      <point x="126" y="189" type="curve" smooth="yes"/>
      <point x="74" y="189"/>
      <point x="35" y="151"/>
      <point x="35" y="100" type="curve" smooth="yes"/>
      <point x="35" y="17"/>
      <point x="122" y="24"/>
      <point x="122" y="-49" type="curve" smooth="yes"/>
      <point x="122" y="-85"/>
      <point x="100" y="-120"/>
      <point x="24" y="-153" type="curve"/>
    </contour>
  </outline>
</glyph>
<glyph name="hyphen" format="1">
  <advance width="325"/>
  <unicode hex="002D"/>
  <outline>
    <contour>
      <point x="57" y="111" type="line"/>
      <point x="267" y="142" type="line"/>
      <point x="267" y="248" type="line"/>
      <point x="57" y="217" type="line"/>
    </contour>
  </outline>
</glyph>
<glyph name="zero" format="1">
  <advance width="562"/>
  <unicode hex="0030"/>
  <outline>
    <contour>
      <point x="286" y="-8" type="curve" smooth="yes"/>
      <point x="416" y="-8"/>
      <point x="523" y="112"/>
      <point x="523" y="273" type="curve" smooth="yes"/>
      <point x="523" y="434"/>
      <point x="426" y="536"/>
      <point x="287" y="536" type="curve" smooth="yes"/>
      <point x="143" y="536"/>
      <point x="39" y="425"/>
      <point x="39" y="255" type="curve" smooth="yes"/>
      <point x="39" y="97"/>
      <point x="145" y="-8"/>
    </contour>
    <contour>
      <point x="297" y="65" type="curve" smooth="yes"/>
      <point x="235" y="65"/>
      <point x="188" y="154"/>
      <point x="188" y="286" type="curve" smooth="yes"/>
      <point x="188" y="409"/>
      <point x="225" y="471"/>
      <point x="278" y="471" type="curve" smooth="yes"/>
      <point x="336" y="471"/>
      <point x="377" y="385"/>
      <point x="377" y="249" type="curve" smooth="yes"/>
      <point x="377" y="115"/>
      <point x="349" y="65"/>
    </contour>
  </outline>
</glyph>
<glyph name="two" format="1">
  <advance width="459"/>
  <unicode hex="0032"/>
  <outline>
    <contour>
      <point x="30" y="-3" type="line"/>
      <point x="53" y="-1"/>
      <point x="78" y="0"/>
      <point x="100" y="0" type="curve" smooth="yes"/>
      <point x="278" y="0" type="line" smooth="yes"/>
      <point x="300" y="0"/>
      <point x="376" y="-2"/>
      <point x="410" y="-5" type="curve"/>
      <point x="441" y="162" type="line"/>
      <point x="379" y="170" type="line"/>
      <point x="374" y="160"/>
      <point x="371" y="153"/>
      <point x="353" y="109" type="curve"/>
      <point x="333" y="106"/>
      <point x="323" y="105"/>
      <point x="297" y="105" type="curve" smooth="yes"/>
      <point x="151" y="105" type="line"/>
      <point x="152" y="98" type="line"/>
      <point x="297" y="174"/>
      <point x="381" y="271"/>
      <point x="381" y="368" type="curve" smooth="yes"/>
      <point x="381" y="465"/>
      <point x="306" y="536"/>
      <point x="204" y="536" type="curve" smooth="yes"/>
      <point x="114" y="536"/>
      <point x="42" y="488"/>
      <point x="6" y="400" type="curve"/>
      <point x="50" y="367" type="line"/>
      <point x="75" y="410"/>
      <point x="111" y="430"/>
      <point x="155" y="430" type="curve" smooth="yes"/>
      <point x="206" y="430"/>
      <point x="240" y="394"/>
      <point x="240" y="343" type="curve" smooth="yes"/>
      <point x="240" y="256"/>
      <point x="178" y="166"/>
      <point x="27" y="53" type="curve"/>
    </contour>
  </outline>
</glyph>
<glyph name="four" format="1">
  <advance width="477"/>
  <unicode hex="0034"/>
  <outline>
    <contour>
      <point x="374" y="127" type="curve"/>
      <point x="373" y="372" type="line"/>
      <point x="373" y="430"/>
      <point x="375" y="488"/>
      <point x="378" y="531" type="curve"/>
      <point x="297" y="531" type="line"/>
      <point x="2" y="174" type="line"/>
      <point x="10" y="127" type="line"/>
      <point x="449" y="127" type="line"/>
      <point x="449" y="213" type="line"/>
      <point x="130" y="213" type="line" smooth="yes"/>
      <point x="110" y="213"/>
      <point x="89" y="215"/>
      <point x="69" y="217" type="curve"/>
      <point x="104" y="195" type="line"/>
      <point x="243" y="378" type="line"/>
      <point x="236" y="394" type="line"/>
      <point x="236" y="127" type="line"/>
      <point x="236" y="88"/>
      <point x="237" y="66"/>
      <point x="237" y="66" type="curve"/>
      <point x="216" y="57"/>
      <point x="191" y="52"/>
      <point x="160" y="50" type="curve"/>
      <point x="164" y="-5" type="line"/>
      <point x="200" y="-2"/>
      <point x="251" y="2"/>
      <point x="305" y="2" type="curve" smooth="yes"/>
      <point x="359" y="2"/>
      <point x="405" y="-2"/>
      <point x="432" y="-5" type="curve"/>
      <point x="435" y="50" type="line"/>
      <point x="411" y="52"/>
      <point x="391" y="57"/>
      <point x="376" y="66" type="curve"/>
      <point x="376" y="66"/>
      <point x="374" y="88"/>
    </contour>
  </outline>
</glyph>
<glyph name="seven" format="1">
  <advance width="408"/>
  <unicode hex="0037"/>
  <outline>
    <contour>
      <point x="197" y="0" type="line"/>
      <point x="390" y="477" type="line"/>
      <point x="387" y="529" type="line"/>
      <point x="364" y="529"/>
      <point x="340" y="528"/>
      <point x="319" y="528" type="curve" smooth="yes"/>
      <point x="157" y="528" type="line" smooth="yes"/>
      <point x="130" y="528"/>
      <point x="49" y="530"/>
      <point x="23" y="530" type="curve"/>
      <point x="7" y="359" type="line"/>
      <point x="66" y="353" type="line"/>
      <point x="68" y="364"/>
      <point x="74" y="392"/>
      <point x="79" y="410" type="curve"/>
      <point x="96" y="412"/>
      <point x="119" y="412"/>
      <point x="132" y="412" type="curve" smooth="yes"/>
      <point x="314" y="412" type="line"/>
      <point x="314" y="451" type="line"/>
      <point x="91" y="38" type="line"/>
      <point x="91" y="0" type="line"/>
    </contour>
  </outline>
</glyph>
<glyph name="eight" format="1">
  <advance width="528"/>
  <unicode hex="0038"/>
  <outline>
    <contour>
      <point x="262" y="-8" type="curve" smooth="yes"/>
      <point x="403" y="-8"/>
      <point x="499" y="55"/>
      <point x="499" y="155" type="curve" smooth="yes"/>
      <point x="499" y="219"/>
      <point x="455" y="271"/>
      <point x="314" y="323" type="curve" smooth="yes"/>
      <point x="224" y="352"/>
      <point x="199" y="375"/>
      <point x="199" y="414" type="curve" smooth="yes"/>
      <point x="199" y="450"/>
      <point x="226" y="472"/>
      <point x="270" y="472" type="curve" smooth="yes"/>
      <point x="319" y="472"/>
      <point x="347" y="442"/>
      <point x="347" y="387" type="curve" smooth="yes"/>
      <point x="347" y="345"/>
      <point x="339" y="317"/>
      <point x="310" y="274" type="curve"/>
      <point x="317" y="264" type="line"/>
      <point x="424" y="279"/>
      <point x="477" y="326"/>
      <point x="477" y="397" type="curve" smooth="yes"/>
      <point x="477" y="478"/>
      <point x="408" y="536"/>
      <point x="282" y="536" type="curve" smooth="yes"/>
      <point x="149" y="536"/>
      <point x="62" y="471"/>
      <point x="62" y="382" type="curve" smooth="yes"/>
      <point x="62" y="299"/>
      <point x="111" y="250"/>
      <point x="251" y="199" type="curve" smooth="yes"/>
      <point x="339" y="171"/>
      <point x="359" y="153"/>
      <point x="359" y="116" type="curve" smooth="yes"/>
      <point x="359" y="84"/>
      <point x="327" y="62"/>
      <point x="277" y="62" type="curve" smooth="yes"/>
      <point x="221" y="62"/>
      <point x="180" y="88"/>
      <point x="180" y="144" type="curve" smooth="yes"/>
      <point x="180" y="175"/>
      <point x="189" y="202"/>
      <point x="214" y="244" type="curve"/>
      <point x="209" y="267" type="line"/>
      <point x="100" y="248"/>
      <point x="40" y="202"/>
      <point x="40" y="134" type="curve" smooth="yes"/>
      <point x="40" y="51"/>
      <point x="129" y="-8"/>
    </contour>
  </outline>
</glyph>
<glyph name="semicolon" format="1">
  <advance width="258"/>
  <unicode hex="003B"/>
  <outline>
    <contour>
      <point x="42" y="-196" type="line"/>
      <point x="173" y="-138"/>
      <point x="227" y="-55"/>
      <point x="227" y="54" type="curve" smooth="yes"/>
      <point x="227" y="155"/>
      <point x="173" y="189"/>
      <point x="126" y="189" type="curve" smooth="yes"/>
      <point x="74" y="189"/>
      <point x="35" y="151"/>
      <point x="35" y="100" type="curve" smooth="yes"/>
      <point x="35" y="17"/>
      <point x="122" y="24"/>
      <point x="122" y="-49" type="curve" smooth="yes"/>
      <point x="122" y="-85"/>
      <point x="100" y="-120"/>
      <point x="24" y="-153" type="curve"/>
    </contour>
    <contour>
      <point x="129" y="170" type="curve" smooth="yes"/>
      <point x="180" y="170"/>
      <point x="221" y="212"/>
      <point x="221" y="266" type="curve" smooth="yes"/>
      <point x="221" y="322"/>
      <point x="180" y="367"/>
      <point x="129" y="367" type="curve" smooth="yes"/>
      <point x="79" y="367"/>
      <point x="37" y="322"/>
      <point x="37" y="266" type="curve" smooth="yes"/>
      <point x="37" y="212"/>
      <point x="79" y="170"/>
    </contour>
  </outline>
</glyph>
<glyph name="question" format="1">
  <advance width="317"/>
  <unicode hex="003F"/>
  <outline>
    <contour>
      <point x="83" y="215" type="curve"/>
      <point x="142" y="215" type="line"/>
      <point x="141" y="237"/>
      <point x="141" y="235"/>
      <point x="141" y="232" type="curve" smooth="yes"/>
      <point x="141" y="283"/>
      <point x="293" y="249"/>
      <point x="293" y="372" type="curve" smooth="yes"/>
      <point x="293" y="467"/>
      <point x="186" y="558"/>
      <point x="79" y="558" type="curve" smooth="yes"/>
      <point x="32" y="558"/>
      <point x="1" y="533"/>
      <point x="1" y="493" type="curve" smooth="yes"/>
      <point x="1" y="450"/>
      <point x="36" y="422"/>
      <point x="81" y="422" type="curve" smooth="yes"/>
      <point x="113" y="422"/>
      <point x="139" y="435"/>
      <point x="167" y="435" type="curve" smooth="yes"/>
      <point x="190" y="435"/>
      <point x="200" y="427"/>
      <point x="200" y="421" type="curve" smooth="yes"/>
      <point x="200" y="379"/>
      <point x="68" y="380"/>
      <point x="68" y="291" type="curve" smooth="yes"/>
      <point x="68" y="267"/>
      <point x="74" y="245"/>
    </contour>
    <contour>
      <point x="112" y="-8" type="curve" smooth="yes"/>
      <point x="163" y="-8"/>
      <point x="204" y="34"/>
      <point x="204" y="88" type="curve" smooth="yes"/>
      <point x="204" y="144"/>
      <point x="163" y="189"/>
      <point x="112" y="189" type="curve" smooth="yes"/>
      <point x="62" y="189"/>
      <point x="19" y="144"/>
      <point x="19" y="88" type="curve" smooth="yes"/>
      <point x="19" y="36"/>
      <point x="61" y="-8"/>
    </contour>
  </outline>
</glyph>
<glyph name="E" format="1">
  <advance width="513"/>
  <unicode hex="0045"/>
  <outline>
    <contour>
      <point x="467" y="-6" type="curve"/>
      <point x="509" y="147" type="line"/>
      <point x="455" y="158" type="line"/>
      <point x="438" y="126"/>
      <point x="423" y="94"/>
      <point x="404" y="62" type="curve"/>
      <point x="385" y="58"/>
      <point x="378" y="58"/>
      <point x="341" y="58" type="curve" smooth="yes"/>
      <point x="304" y="58" type="line" smooth="yes"/>
      <point x="265" y="58"/>
      <point x="243" y="60"/>
      <point x="219" y="63" type="curve"/>
      <point x="217" y="81"/>
      <point x="217" y="120"/>
      <point x="217" y="189" type="curve" smooth="yes"/>
      <point x="217" y="353" type="line" smooth="yes"/>
      <point x="217" y="422"/>
      <point x="217" y="455"/>
      <point x="219" y="471" type="curve"/>
      <point x="235" y="474"/>
      <point x="262" y="474"/>
      <point x="279" y="474" type="curve" smooth="yes"/>
      <point x="335" y="474" type="line" smooth="yes"/>
      <point x="351" y="474"/>
      <point x="361" y="473"/>
      <point x="379" y="470" type="curve"/>
      <point x="392" y="444"/>
      <point x="398" y="422"/>
      <point x="414" y="385" type="curve"/>
      <point x="470" y="392" type="line"/>
      <point x="443" y="533" type="line"/>
      <point x="412" y="532"/>
      <point x="331" y="528"/>
      <point x="291" y="528" type="curve" smooth="yes"/>
      <point x="149" y="528" type="line" smooth="yes"/>
      <point x="107" y="528"/>
      <point x="46" y="530"/>
      <point x="19" y="532" type="curve"/>
      <point x="16" y="477" type="line"/>
      <point x="40" y="477"/>
      <point x="64" y="472"/>
      <point x="75" y="462" type="curve"/>
      <point x="78" y="455"/>
      <point x="81" y="388"/>
      <point x="81" y="321" type="curve" smooth="yes"/>
      <point x="81" y="207" type="line" smooth="yes"/>
      <point x="81" y="140"/>
      <point x="78" y="73"/>
      <point x="75" y="66" type="curve"/>
      <point x="64" y="57"/>
      <point x="40" y="54"/>
      <point x="16" y="50" type="curve"/>
      <point x="19" y="-5" type="line"/>
      <point x="46" y="-2"/>
      <point x="107" y="0"/>
      <point x="149" y="0" type="curve" smooth="yes"/>
      <point x="329" y="0" type="line" smooth="yes"/>
      <point x="369" y="0"/>
      <point x="435" y="-4"/>
    </contour>
    <contour>
      <point x="348" y="176" type="curve"/>
      <point x="402" y="176" type="line"/>
      <point x="402" y="207"/>
      <point x="400" y="240"/>
      <point x="400" y="270" type="curve" smooth="yes"/>
      <point x="400" y="301"/>
      <point x="402" y="330"/>
      <point x="402" y="361" type="curve"/>
      <point x="348" y="361" type="line"/>
      <point x="346" y="342"/>
      <point x="341" y="307"/>
      <point x="339" y="303" type="curve"/>
      <point x="331" y="304"/>
      <point x="310" y="301"/>
      <point x="285" y="301" type="curve" smooth="yes"/>
      <point x="245" y="301" type="line" smooth="yes"/>
      <point x="222" y="301"/>
      <point x="202" y="304"/>
      <point x="195" y="304" type="curve"/>
      <point x="195" y="236" type="line"/>
      <point x="202" y="237"/>
      <point x="222" y="239"/>
      <point x="245" y="239" type="curve" smooth="yes"/>
      <point x="285" y="239" type="line" smooth="yes"/>
      <point x="310" y="239"/>
      <point x="331" y="237"/>
      <point x="339" y="237" type="curve"/>
      <point x="341" y="233"/>
      <point x="346" y="195"/>
    </contour>
    <contour>
      <point x="257" y="0" type="move" name="bottom"/>
    </contour>
    <contour>
      <point x="469" y="0" type="move" name="ogonek"/>
    </contour>
    <contour>
      <point x="257" y="528" type="move" name="top"/>
    </contour>
    <contour>
      <point x="16" y="528" type="move" name="topleft"/>
    </contour>
  </outline>
</glyph>
<glyph name="H" format="1">
  <advance width="611"/>
  <unicode hex="0048"/>
  <outline>
    <contour>
      <point x="334" y="-5" type="line"/>
      <point x="361" y="-2"/>
      <point x="407" y="2"/>
      <point x="461" y="2" type="curve" smooth="yes"/>
      <point x="515" y="2"/>
      <point x="565" y="-2"/>
      <point x="592" y="-5" type="curve"/>
      <point x="595" y="50" type="line"/>
      <point x="572" y="54"/>
      <point x="547" y="57"/>
      <point x="537" y="66" type="curve"/>
      <point x="533" y="73"/>
      <point x="530" y="140"/>
      <point x="530" y="207" type="curve" smooth="yes"/>
      <point x="530" y="321" type="line" smooth="yes"/>
      <point x="530" y="388"/>
      <point x="533" y="455"/>
      <point x="537" y="462" type="curve"/>
      <point x="547" y="472"/>
      <point x="572" y="475"/>
      <point x="595" y="477" type="curve"/>
      <point x="592" y="532" type="line"/>
      <point x="565" y="530"/>
      <point x="515" y="527"/>
      <point x="461" y="527" type="curve" smooth="yes"/>
      <point x="407" y="527"/>
      <point x="361" y="530"/>
      <point x="334" y="532" type="curve"/>
      <point x="331" y="477" type="line"/>
      <point x="354" y="475"/>
      <point x="376" y="472"/>
      <point x="387" y="462" type="curve"/>
      <point x="390" y="455"/>
      <point x="393" y="388"/>
      <point x="393" y="321" type="curve" smooth="yes"/>
      <point x="393" y="207" type="line" smooth="yes"/>
      <point x="393" y="140"/>
      <point x="390" y="73"/>
      <point x="387" y="66" type="curve"/>
      <point x="376" y="57"/>
      <point x="354" y="54"/>
      <point x="331" y="50" type="curve"/>
    </contour>
    <contour>
      <point x="19" y="-5" type="line"/>
      <point x="46" y="-2"/>
      <point x="96" y="2"/>
      <point x="150" y="2" type="curve" smooth="yes"/>
      <point x="204" y="2"/>
      <point x="251" y="-2"/>
      <point x="277" y="-5" type="curve"/>
      <point x="280" y="50" type="line"/>
      <point x="257" y="54"/>
      <point x="235" y="57"/>
      <point x="224" y="66" type="curve"/>
      <point x="221" y="73"/>
      <point x="218" y="140"/>
      <point x="218" y="207" type="curve" smooth="yes"/>
      <point x="218" y="321" type="line" smooth="yes"/>
      <point x="218" y="388"/>
      <point x="221" y="455"/>
      <point x="224" y="462" type="curve"/>
      <point x="235" y="472"/>
      <point x="257" y="475"/>
      <point x="280" y="477" type="curve"/>
      <point x="277" y="532" type="line"/>
      <point x="251" y="530"/>
      <point x="204" y="527"/>
      <point x="150" y="527" type="curve" smooth="yes"/>
      <point x="96" y="527"/>
      <point x="46" y="530"/>
      <point x="19" y="532" type="curve"/>
      <point x="16" y="477" type="line"/>
      <point x="40" y="475"/>
      <point x="64" y="472"/>
      <point x="75" y="462" type="curve"/>
      <point x="78" y="455"/>
      <point x="81" y="388"/>
      <point x="81" y="321" type="curve" smooth="yes"/>
      <point x="81" y="207" type="line" smooth="yes"/>
      <point x="81" y="140"/>
      <point x="78" y="73"/>
      <point x="75" y="66" type="curve"/>
      <point x="64" y="57"/>
      <point x="40" y="54"/>
      <point x="16" y="50" type="curve"/>
    </contour>
    <contour>
      <point x="194" y="230" type="line"/>
      <point x="218" y="231"/>
      <point x="252" y="234"/>
      <point x="305" y="234" type="curve" smooth="yes"/>
      <point x="359" y="234"/>
      <point x="393" y="231"/>
      <point x="417" y="230" type="curve"/>
      <point x="417" y="306" type="line"/>
      <point x="391" y="304"/>
      <point x="359" y="302"/>
      <point x="305" y="302" type="curve" smooth="yes"/>
      <point x="252" y="302"/>
      <point x="220" y="304"/>
      <point x="194" y="306" type="curve"/>
    </contour>
    <contour>
      <point x="306" y="0" type="move" name="bottom"/>
    </contour>
    <contour>
      <point x="306" y="390" type="move" name="center"/>
    </contour>
    <contour>
      <point x="306" y="528" type="move" name="top"/>
    </contour>
    <contour>
      <point x="16" y="528" type="move" name="topleft"/>
    </contour>
  </outline>
</glyph>
<glyph name="I" format="1">
  <advance width="299"/>
  <unicode hex="0049"/>
  <outline>
    <contour>
      <point x="19" y="-5" type="line"/>
      <point x="46" y="-2"/>
      <point x="96" y="2"/>
      <point x="150" y="2" type="curve" smooth="yes"/>
      <point x="204" y="2"/>
      <point x="253" y="-2"/>
      <point x="280" y="-5" type="curve"/>
      <point x="283" y="50" type="line"/>
      <point x="259" y="54"/>
      <point x="235" y="57"/>
      <point x="224" y="66" type="curve"/>
      <point x="221" y="73"/>
      <point x="218" y="140"/>
      <point x="218" y="207" type="curve" smooth="yes"/>
      <point x="218" y="321" type="line" smooth="yes"/>
      <point x="218" y="388"/>
      <point x="221" y="455"/>
      <point x="224" y="462" type="curve"/>
      <point x="235" y="472"/>
      <point x="259" y="475"/>
      <point x="283" y="477" type="curve"/>
      <point x="280" y="532" type="line"/>
      <point x="253" y="530"/>
      <point x="204" y="529"/>
      <point x="150" y="529" type="curve" smooth="yes"/>
      <point x="96" y="529"/>
      <point x="46" y="530"/>
      <point x="19" y="532" type="curve"/>
      <point x="16" y="477" type="line"/>
      <point x="40" y="475"/>
      <point x="64" y="472"/>
      <point x="75" y="462" type="curve"/>
      <point x="78" y="455"/>
      <point x="81" y="388"/>
      <point x="81" y="321" type="curve" smooth="yes"/>
      <point x="81" y="207" type="line" smooth="yes"/>
      <point x="81" y="140"/>
      <point x="78" y="73"/>
      <point x="75" y="66" type="curve"/>
      <point x="64" y="57"/>
      <point x="40" y="54"/>
      <point x="16" y="50" type="curve"/>
    </contour>
    <contour>
      <point x="150" y="0" type="move" name="bottom"/>
    </contour>
    <contour>
      <point x="221" y="0" type="move" name="ogonek"/>
    </contour>
    <contour>
      <point x="150" y="528" type="move" name="top"/>
    </contour>
    <contour>
      <point x="16" y="528" type="move" name="topleft"/>
    </contour>
  </outline>
</glyph>
<glyph name="L" format="1">
  <advance width="492"/>
  <unicode hex="004C"/>
  <outline>
    <contour>
      <point x="449" y="-7" type="curve"/>
      <point x="495" y="166" type="line"/>
      <point x="435" y="181" type="line"/>
      <point x="417" y="147"/>
      <point x="403" y="113"/>
      <point x="384" y="81" type="curve"/>
      <point x="374" y="79"/>
      <point x="371" y="75"/>
      <point x="320" y="75" type="curve" smooth="yes"/>
      <point x="308" y="75" type="line" smooth="yes"/>
      <point x="269" y="75"/>
      <point x="247" y="76"/>
      <point x="225" y="79" type="curve"/>
      <point x="223" y="96"/>
      <point x="221" y="131"/>
      <point x="221" y="207" type="curve" smooth="yes"/>
      <point x="221" y="321" type="line" smooth="yes"/>
      <point x="221" y="388"/>
      <point x="224" y="454"/>
      <point x="227" y="461" type="curve"/>
      <point x="238" y="470"/>
      <point x="260" y="475"/>
      <point x="308" y="478" type="curve"/>
      <point x="305" y="533" type="line"/>
      <point x="243" y="530"/>
      <point x="215" y="527"/>
      <point x="163" y="527" type="curve" smooth="yes"/>
      <point x="121" y="527"/>
      <point x="49" y="530"/>
      <point x="22" y="532" type="curve"/>
      <point x="19" y="477" type="line"/>
      <point x="43" y="477"/>
      <point x="67" y="472"/>
      <point x="78" y="462" type="curve"/>
      <point x="81" y="455"/>
      <point x="84" y="388"/>
      <point x="84" y="321" type="curve" smooth="yes"/>
      <point x="84" y="207" type="line" smooth="yes"/>
      <point x="84" y="140"/>
      <point x="81" y="73"/>
      <point x="78" y="66" type="curve"/>
      <point x="67" y="57"/>
      <point x="43" y="54"/>
      <point x="19" y="50" type="curve"/>
      <point x="22" y="-5" type="line"/>
      <point x="49" y="-2"/>
      <point x="110" y="0"/>
      <point x="152" y="0" type="curve" smooth="yes"/>
      <point x="290" y="0" type="line" smooth="yes"/>
      <point x="330" y="0"/>
      <point x="417" y="-4"/>
    </contour>
    <contour>
      <point x="265" y="0" type="move" name="bottom"/>
    </contour>
    <contour>
      <point x="177" y="272" type="move" name="center"/>
    </contour>
    <contour>
      <point x="352" y="288" type="move" name="dotacc"/>
    </contour>
    <contour>
      <point x="152" y="528" type="move" name="top"/>
    </contour>
    <contour>
      <point x="340" y="528" type="move" name="topright"/>
    </contour>
  </outline>
</glyph>
<glyph name="M" format="1">
  <advance width="861"/>
  <unicode hex="004D"/>
  <outline>
    <contour>
      <point x="58" y="530" type="curve"/>
      <point x="55" y="477" type="line"/>
      <point x="81" y="475"/>
      <point x="106" y="472"/>
      <point x="117" y="462" type="curve"/>
      <point x="116" y="459"/>
      <point x="116" y="443"/>
      <point x="108" y="360" type="curve" smooth="yes"/>
      <point x="96" y="229" type="line" smooth="yes"/>
      <point x="84" y="89"/>
      <point x="82" y="66"/>
      <point x="79" y="66" type="curve"/>
      <point x="68" y="57"/>
      <point x="42" y="55"/>
      <point x="17" y="53" type="curve"/>
      <point x="20" y="-4" type="line"/>
      <point x="49" y="-2"/>
      <point x="102" y="0"/>
      <point x="119" y="0" type="curve" smooth="yes"/>
      <point x="138" y="0"/>
      <point x="187" y="-2"/>
      <point x="216" y="-4" type="curve"/>
      <point x="219" y="53" type="line"/>
      <point x="193" y="55"/>
      <point x="165" y="57"/>
      <point x="154" y="66" type="curve"/>
      <point x="156" y="71"/>
      <point x="160" y="120"/>
      <point x="167" y="242" type="curve" smooth="yes"/>
      <point x="185" y="502" type="line"/>
      <point x="126" y="502" type="line"/>
      <point x="358" y="-3" type="line"/>
      <point x="424" y="-3" type="line"/>
      <point x="620" y="502" type="line"/>
      <point x="579" y="502" type="line"/>
      <point x="619" y="246" type="line" smooth="yes"/>
      <point x="635" y="95"/>
      <point x="637" y="67"/>
      <point x="638" y="66" type="curve"/>
      <point x="627" y="57"/>
      <point x="600" y="54"/>
      <point x="577" y="51" type="curve"/>
      <point x="580" y="-4" type="line"/>
      <point x="606" y="-2"/>
      <point x="693" y="2"/>
      <point x="717" y="2" type="curve" smooth="yes"/>
      <point x="742" y="2"/>
      <point x="824" y="-2"/>
      <point x="853" y="-4" type="curve"/>
      <point x="856" y="51" type="line"/>
      <point x="833" y="54"/>
      <point x="806" y="57"/>
      <point x="796" y="66" type="curve"/>
      <point x="792" y="66"/>
      <point x="788" y="80"/>
      <point x="770" y="234" type="curve" smooth="yes"/>
      <point x="748" y="360" type="line" smooth="yes"/>
      <point x="736" y="443"/>
      <point x="738" y="454"/>
      <point x="739" y="462" type="curve"/>
      <point x="746" y="472"/>
      <point x="772" y="475"/>
      <point x="798" y="477" type="curve"/>
      <point x="795" y="530" type="line"/>
      <point x="763" y="529"/>
      <point x="708" y="527"/>
      <point x="684" y="527" type="curve" smooth="yes"/>
      <point x="659" y="527"/>
      <point x="587" y="528"/>
      <point x="563" y="529" type="curve"/>
      <point x="411" y="144" type="line"/>
      <point x="440" y="144" type="line"/>
      <point x="267" y="529" type="line"/>
      <point x="243" y="528"/>
      <point x="185" y="527"/>
      <point x="161" y="527" type="curve" smooth="yes"/>
      <point x="138" y="527"/>
      <point x="90" y="529"/>
    </contour>
    <contour>
      <point x="397" y="0" type="move" name="bottom"/>
    </contour>
    <contour>
      <point x="397" y="528" type="move" name="top"/>
    </contour>
  </outline>
</glyph>
<glyph name="O" format="1">
  <advance width="646"/>
  <unicode hex="004F"/>
  <outline>
    <contour>
      <point x="330" y="-8" type="curve" smooth="yes"/>
      <point x="443" y="-8"/>
      <point x="607" y="75"/>
      <point x="607" y="273" type="curve" smooth="yes"/>
      <point x="607" y="429"/>
      <point x="492" y="536"/>
      <point x="329" y="536" type="curve" smooth="yes"/>
      <point x="162" y="536"/>
      <point x="39" y="418"/>
      <point x="39" y="255" type="curve" smooth="yes"/>
      <point x="39" y="101"/>
      <point x="162" y="-8"/>
    </contour>
    <contour>
      <point x="335" y="67" type="curve" smooth="yes"/>
      <point x="255" y="67"/>
      <point x="198" y="156"/>
      <point x="198" y="286" type="curve" smooth="yes"/>
      <point x="198" y="397"/>
      <point x="241" y="470"/>
      <point x="318" y="470" type="curve" smooth="yes"/>
      <point x="399" y="470"/>
      <point x="449" y="382"/>
      <point x="449" y="249" type="curve" smooth="yes"/>
      <point x="449" y="128"/>
      <point x="412" y="67"/>
    </contour>
    <contour>
      <point x="323" y="0" type="move" name="bottom"/>
    </contour>
    <contour>
      <point x="323" y="264" type="move" name="center"/>
    </contour>
    <contour>
      <point x="391" y="0" type="move" name="ogonek"/>
    </contour>
    <contour>
      <point x="323" y="528" type="move" name="top"/>
    </contour>
    <contour>
      <point x="16" y="528" type="move" name="topleft"/>
    </contour>
    <contour>
      <point x="630" y="528" type="move" name="topright"/>
    </contour>
  </outline>
</glyph>
<glyph name="R" format="1">
  <advance width="575"/>
  <unicode hex="0052"/>
  <outline>
    <contour>
      <point x="22" y="-5" type="line"/>
      <point x="48" y="-2"/>
      <point x="95" y="2"/>
      <point x="149" y="2" type="curve" smooth="yes"/>
      <point x="203" y="2"/>
      <point x="248" y="-2"/>
      <point x="267" y="-5" type="curve"/>
      <point x="270" y="50" type="line"/>
      <point x="253" y="53"/>
      <point x="230" y="56"/>
      <point x="220" y="66" type="curve"/>
      <point x="220" y="76"/>
      <point x="218" y="140"/>
      <point x="218" y="207" type="curve" smooth="yes"/>
      <point x="218" y="324" type="line" smooth="yes"/>
      <point x="218" y="407"/>
      <point x="221" y="469"/>
      <point x="222" y="474" type="curve"/>
      <point x="230" y="476"/>
      <point x="239" y="478"/>
      <point x="249" y="478" type="curve" smooth="yes"/>
      <point x="293" y="478"/>
      <point x="333" y="453"/>
      <point x="333" y="393" type="curve" smooth="yes"/>
      <point x="333" y="323"/>
      <point x="283" y="297"/>
      <point x="240" y="297" type="curve" smooth="yes"/>
      <point x="234" y="297"/>
      <point x="222" y="297"/>
      <point x="211" y="297" type="curve"/>
      <point x="211" y="240" type="line"/>
      <point x="262" y="240" type="line" smooth="yes"/>
      <point x="385" y="239"/>
      <point x="477" y="304"/>
      <point x="477" y="390" type="curve" smooth="yes"/>
      <point x="477" y="495"/>
      <point x="395" y="531"/>
      <point x="263" y="531" type="curve" smooth="yes"/>
      <point x="229" y="531"/>
      <point x="186" y="527"/>
      <point x="157" y="527" type="curve" smooth="yes"/>
      <point x="116" y="527"/>
      <point x="71" y="527"/>
      <point x="19" y="530" type="curve"/>
      <point x="16" y="474" type="line"/>
      <point x="40" y="474"/>
      <point x="64" y="470"/>
      <point x="75" y="460" type="curve"/>
      <point x="78" y="453"/>
      <point x="81" y="388"/>
      <point x="81" y="321" type="curve" smooth="yes"/>
      <point x="81" y="207" type="line" smooth="yes"/>
      <point x="81" y="140"/>
      <point x="79" y="73"/>
      <point x="77" y="66" type="curve"/>
      <point x="65" y="57"/>
      <point x="41" y="54"/>
      <point x="19" y="50" type="curve"/>
    </contour>
    <contour>
      <point x="508" y="-12" type="curve" smooth="yes"/>
      <point x="529" y="-12"/>
      <point x="549" y="-10"/>
      <point x="570" y="-6" type="curve"/>
      <point x="571" y="41" type="line"/>
      <point x="529" y="53"/>
      <point x="483" y="101"/>
      <point x="457" y="124" type="curve" smooth="yes"/>
      <point x="348" y="276" type="line"/>
      <point x="237" y="249" type="line"/>
      <point x="285" y="139" type="line" smooth="yes"/>
      <point x="327" y="41"/>
      <point x="397" y="-12"/>
    </contour>
    <contour>
      <point x="298" y="0" type="move" name="bottom"/>
    </contour>
    <contour>
      <point x="271" y="528" type="move" name="top"/>
    </contour>
  </outline>
</glyph>
<glyph name="V" format="1">
  <advance width="546"/>
  <unicode hex="0056"/>
  <outline>
    <contour>
      <point x="250" y="-3" type="line"/>
      <point x="301" y="-3" type="line"/>
      <point x="521" y="464" type="line"/>
      <point x="533" y="472"/>
      <point x="549" y="475"/>
      <point x="565" y="475" type="curve"/>
      <point x="562" y="530" type="line"/>
      <point x="526" y="530"/>
      <point x="494" y="529"/>
      <point x="472" y="529" type="curve" smooth="yes"/>
      <point x="446" y="529"/>
      <point x="405" y="530"/>
      <point x="364" y="530" type="curve"/>
      <point x="361" y="474" type="line"/>
      <point x="392" y="471"/>
      <point x="415" y="472"/>
      <point x="433" y="467" type="curve"/>
      <point x="295" y="134" type="line"/>
      <point x="340" y="134" type="line"/>
      <point x="191" y="467" type="line"/>
      <point x="208" y="472"/>
      <point x="232" y="471"/>
      <point x="264" y="474" type="curve"/>
      <point x="261" y="530" type="line"/>
      <point x="222" y="530"/>
      <point x="145" y="528"/>
      <point x="110" y="528" type="curve" smooth="yes"/>
      <point x="76" y="528"/>
      <point x="27" y="530"/>
      <point x="-6" y="530" type="curve"/>
      <point x="-9" y="475" type="line"/>
      <point x="6" y="475"/>
      <point x="22" y="472"/>
      <point x="35" y="464" type="curve"/>
    </contour>
    <contour>
      <point x="273" y="0" type="move" name="bottom"/>
    </contour>
    <contour>
      <point x="273" y="528" type="move" name="top"/>
    </contour>
  </outline>
</glyph>
<glyph name="X" format="1">
  <advance width="538"/>
  <unicode hex="0058"/>
  <outline>
    <contour>
      <point x="549" y="-5" type="curve"/>
      <point x="551" y="50" type="line"/>
      <point x="533" y="52"/>
      <point x="516" y="57"/>
      <point x="507" y="65" type="curve"/>
      <point x="336" y="307" type="line"/>
      <point x="299" y="363" type="line"/>
      <point x="223" y="466" type="line"/>
      <point x="233" y="472"/>
      <point x="246" y="476"/>
      <point x="262" y="475" type="curve"/>
      <point x="260" y="530" type="line"/>
      <point x="243" y="530"/>
      <point x="178" y="528"/>
      <point x="134" y="528" type="curve" smooth="yes"/>
      <point x="88" y="528"/>
      <point x="41" y="530"/>
      <point x="21" y="530" type="curve"/>
      <point x="20" y="475" type="line"/>
      <point x="36" y="477"/>
      <point x="54" y="472"/>
      <point x="62" y="464" type="curve"/>
      <point x="209" y="253" type="line"/>
      <point x="250" y="197" type="line"/>
      <point x="345" y="66" type="line"/>
      <point x="334" y="57"/>
      <point x="310" y="54"/>
      <point x="286" y="50" type="curve"/>
      <point x="289" y="-5" type="line"/>
      <point x="316" y="-2"/>
      <point x="386" y="2"/>
      <point x="437" y="2" type="curve" smooth="yes"/>
      <point x="500" y="2"/>
      <point x="528" y="-2"/>
    </contour>
    <contour>
      <point x="376" y="466" type="curve"/>
      <point x="299" y="363" type="line"/>
      <point x="209" y="253" type="line"/>
      <point x="60" y="66" type="line"/>
      <point x="52" y="57"/>
      <point x="34" y="52"/>
      <point x="16" y="50" type="curve"/>
      <point x="18" y="-2" type="line"/>
      <point x="43" y="-2"/>
      <point x="75" y="2"/>
      <point x="104" y="2" type="curve" smooth="yes"/>
      <point x="133" y="2"/>
      <point x="187" y="-2"/>
      <point x="208" y="-2" type="curve"/>
      <point x="211" y="50" type="line"/>
      <point x="190" y="50"/>
      <point x="158" y="63"/>
      <point x="153" y="66" type="curve"/>
      <point x="250" y="197" type="line"/>
      <point x="336" y="307" type="line"/>
      <point x="469" y="466" type="line"/>
      <point x="477" y="472"/>
      <point x="493" y="477"/>
      <point x="511" y="475" type="curve"/>
      <point x="510" y="530" type="line"/>
      <point x="489" y="530"/>
      <point x="476" y="527"/>
      <point x="434" y="527" type="curve" smooth="yes"/>
      <point x="393" y="527"/>
      <point x="362" y="530"/>
      <point x="336" y="530" type="curve"/>
      <point x="335" y="475" type="line"/>
      <point x="350" y="475"/>
      <point x="364" y="472"/>
    </contour>
    <contour>
      <point x="269" y="0" type="move" name="bottom"/>
    </contour>
    <contour>
      <point x="269" y="528" type="move" name="top"/>
    </contour>
  </outline>
</glyph>
<glyph name="Z" format="1">
  <advance width="481"/>
  <unicode hex="005A"/>
  <outline>
    <contour>
      <point x="464" y="-5" type="curve"/>
      <point x="495" y="162" type="line"/>
      <point x="433" y="170" type="line"/>
      <point x="417" y="121"/>
      <point x="404" y="89"/>
      <point x="393" y="63" type="curve"/>
      <point x="375" y="60"/>
      <point x="365" y="59"/>
      <point x="349" y="59" type="curve" smooth="yes"/>
      <point x="180" y="59" type="line"/>
      <point x="180" y="23" type="line"/>
      <point x="451" y="475" type="line"/>
      <point x="451" y="530" type="line"/>
      <point x="427" y="529"/>
      <point x="403" y="528"/>
      <point x="379" y="528" type="curve" smooth="yes"/>
      <point x="121" y="528" type="line" smooth="yes"/>
      <point x="98" y="528"/>
      <point x="57" y="528"/>
      <point x="28" y="530" type="curve"/>
      <point x="30" y="372" type="line"/>
      <point x="92" y="372" type="line"/>
      <point x="99" y="419"/>
      <point x="104" y="439"/>
      <point x="111" y="466" type="curve"/>
      <point x="130" y="468"/>
      <point x="149" y="470"/>
      <point x="189" y="470" type="curve" smooth="yes"/>
      <point x="321" y="470" type="line"/>
      <point x="321" y="513" type="line"/>
      <point x="43" y="51" type="line"/>
      <point x="43" y="-3" type="line"/>
      <point x="67" y="-1"/>
      <point x="92" y="0"/>
      <point x="116" y="0" type="curve" smooth="yes"/>
      <point x="328" y="0" type="line" smooth="yes"/>
      <point x="362" y="0"/>
      <point x="439" y="-4"/>
    </contour>
    <contour>
      <point x="241" y="0" type="move" name="bottom"/>
    </contour>
    <contour>
      <point x="241" y="528" type="move" name="top"/>
    </contour>
  </outline>
</glyph>
<glyph name="bracketright" format="1">
  <advance width="290"/>
  <unicode hex="005D"/>
  <outline>
    <contour>
      <point x="16" y="-176" type="line"/>
      <point x="226" y="-176" type="line"/>
      <point x="226" y="578" type="line"/>
      <point x="16" y="578" type="line"/>
      <point x="16" y="520" type="line"/>
      <point x="99" y="520" type="line"/>
      <point x="99" y="-118" type="line"/>
      <point x="16" y="-118" type="line"/>
    </contour>
  </outline>
</glyph>
<glyph name="underscore" format="1">
  <advance width="429"/>
  <unicode hex="005F"/>
  <outline>
    <contour>
      <point x="29" y="-71" type="line"/>
      <point x="400" y="-71" type="line"/>
      <point x="400" y="0" type="line"/>
      <point x="29" y="0" type="line"/>
    </contour>
  </outline>
</glyph>
<glyph name="e" format="1">
  <advance width="408"/>
  <unicode hex="0065"/>
  <outline>
    <contour>
      <point x="213" y="-6" type="curve" smooth="yes"/>
      <point x="288" y="-6"/>
      <point x="353" y="33"/>
      <point x="382" y="107" type="curve"/>
      <point x="354" y="134" type="line"/>
      <point x="327" y="106"/>
      <point x="298" y="93"/>
      <point x="262" y="93" type="curve" smooth="yes"/>
      <point x="195" y="93"/>
      <point x="155" y="141"/>
      <point x="155" y="203" type="curve" smooth="yes"/>
      <point x="155" y="227" type="line" smooth="yes"/>
      <point x="155" y="282"/>
      <point x="177" y="310"/>
      <point x="211" y="310" type="curve" smooth="yes"/>
      <point x="245" y="310"/>
      <point x="263" y="282"/>
      <point x="263" y="242" type="curve" smooth="yes"/>
      <point x="263" y="204" type="line"/>
      <point x="279" y="232" type="line"/>
      <point x="153" y="232" type="line"/>
      <point x="153" y="184" type="line"/>
      <point x="376" y="184" type="line"/>
      <point x="376" y="208" type="line" smooth="yes"/>
      <point x="376" y="302"/>
      <point x="316" y="366"/>
      <point x="217" y="366" type="curve" smooth="yes"/>
      <point x="119" y="365"/>
      <point x="26" y="282"/>
      <point x="26" y="176" type="curve" smooth="yes"/>
      <point x="26" y="81"/>
      <point x="102" y="-6"/>
    </contour>
    <contour>
      <point x="212" y="0" type="move" name="bottom"/>
    </contour>
    <contour>
      <point x="330" y="0" type="move" name="ogonek"/>
    </contour>
    <contour>
      <point x="212" y="359" type="move" name="top"/>
    </contour>
  </outline>
</glyph>
<glyph name="g" format="1">
  <advance width="435"/>
  <unicode hex="0067"/>
  <outline>
    <contour>
      <point x="203" y="-182" type="curve" smooth="yes"/>
      <point x="325" y="-182"/>
      <point x="415" y="-121"/>
      <point x="415" y="-44" type="curve" smooth="yes"/>
      <point x="415" y="9"/>
      <point x="378" y="48"/>
      <point x="299" y="56" type="curve" smooth="yes"/>
      <point x="164" y="72" type="line" smooth="yes"/>
      <point x="152" y="73"/>
      <point x="146" y="76"/>
      <point x="146" y="85" type="curve" smooth="yes"/>
      <point x="146" y="94"/>
      <point x="152" y="102"/>
      <point x="163" y="105" type="curve"/>
      <point x="148" y="117" type="line"/>
      <point x="84" y="101"/>
      <point x="45" y="69"/>
      <point x="45" y="31" type="curve" smooth="yes"/>
      <point x="45" y="-3"/>
      <point x="78" y="-25"/>
      <point x="138" y="-25" type="curve"/>
      <point x="143" y="-30" type="line"/>
      <point x="255" y="-41" type="line" smooth="yes"/>
      <point x="294" y="-45"/>
      <point x="308" y="-55"/>
      <point x="308" y="-74" type="curve" smooth="yes"/>
      <point x="308" y="-105"/>
      <point x="267" y="-128"/>
      <point x="214" y="-128" type="curve" smooth="yes"/>
      <point x="157" y="-128"/>
      <point x="128" y="-111"/>
      <point x="128" y="-79" type="curve" smooth="yes"/>
      <point x="128" y="-60"/>
      <point x="142" y="-36"/>
      <point x="162" y="-20" type="curve"/>
      <point x="126" y="-18" type="line"/>
      <point x="59" y="-27"/>
      <point x="14" y="-61"/>
      <point x="14" y="-96" type="curve" smooth="yes"/>
      <point x="14" y="-151"/>
      <point x="83" y="-182"/>
    </contour>
    <contour>
      <point x="206" y="92" type="curve" smooth="yes"/>
      <point x="308" y="92"/>
      <point x="376" y="145"/>
      <point x="376" y="224" type="curve" smooth="yes"/>
      <point x="376" y="302"/>
      <point x="304" y="366"/>
      <point x="211" y="366" type="curve" smooth="yes"/>
      <point x="112" y="366"/>
      <point x="37" y="309"/>
      <point x="37" y="229" type="curve" smooth="yes"/>
      <point x="37" y="145"/>
      <point x="103" y="92"/>
    </contour>
    <contour>
      <point x="213" y="147" type="curve" smooth="yes"/>
      <point x="185" y="147"/>
      <point x="165" y="181"/>
      <point x="165" y="230" type="curve" smooth="yes"/>
      <point x="165" y="277"/>
      <point x="183" y="310"/>
      <point x="210" y="310" type="curve" smooth="yes"/>
      <point x="239" y="310"/>
      <point x="257" y="275"/>
      <point x="257" y="225" type="curve" smooth="yes"/>
      <point x="257" y="177"/>
      <point x="239" y="147"/>
    </contour>
    <contour>
      <point x="418" y="281" type="line"/>
      <point x="418" y="355" type="line"/>
      <point x="274" y="337" type="line"/>
      <point x="292" y="295" type="line"/>
    </contour>
    <contour>
      <point x="218" y="-176" type="move" name="bottom"/>
    </contour>
    <contour>
      <point x="213" y="359" type="move" name="top"/>
    </contour>
  </outline>
</glyph>
<glyph name="h" format="1">
  <advance width="488"/>
  <unicode hex="0068"/>
  <outline>
    <contour>
      <point x="7" y="-2" type="line"/>
      <point x="34" y="0"/>
      <point x="89" y="2"/>
      <point x="125" y="2" type="curve" smooth="yes"/>
      <point x="160" y="2"/>
      <point x="214" y="0"/>
      <point x="241" y="-2" type="curve"/>
      <point x="244" y="44" type="line"/>
      <point x="225" y="48"/>
      <point x="206" y="51"/>
      <point x="194" y="61" type="curve"/>
      <point x="193" y="70"/>
      <point x="191" y="114"/>
      <point x="191" y="130" type="curve" smooth="yes"/>
      <point x="191" y="245" type="line"/>
      <point x="204" y="257"/>
      <point x="223" y="266"/>
      <point x="245" y="266" type="curve" smooth="yes"/>
      <point x="279" y="266"/>
      <point x="302" y="244"/>
      <point x="302" y="191" type="curve" smooth="yes"/>
      <point x="302" y="143" type="line" smooth="yes"/>
      <point x="302" y="114"/>
      <point x="298" y="68"/>
      <point x="298" y="61" type="curve"/>
      <point x="284" y="51"/>
      <point x="270" y="47"/>
      <point x="255" y="43" type="curve"/>
      <point x="258" y="-2" type="line"/>
      <point x="285" y="0"/>
      <point x="334" y="2"/>
      <point x="369" y="2" type="curve" smooth="yes"/>
      <point x="405" y="2"/>
      <point x="456" y="0"/>
      <point x="483" y="-2" type="curve"/>
      <point x="487" y="44" type="line"/>
      <point x="467" y="48"/>
      <point x="448" y="51"/>
      <point x="437" y="61" type="curve"/>
      <point x="435" y="70"/>
      <point x="434" y="116"/>
      <point x="434" y="138" type="curve" smooth="yes"/>
      <point x="434" y="217" type="line" smooth="yes"/>
      <point x="434" y="306"/>
      <point x="384" y="366"/>
      <point x="310" y="366" type="curve" smooth="yes"/>
      <point x="267" y="366"/>
      <point x="222" y="345"/>
      <point x="190" y="303" type="curve"/>
      <point x="187" y="304" type="line"/>
      <point x="190" y="431"/>
      <point x="192" y="478"/>
      <point x="198" y="544" type="curve"/>
      <point x="170" y="561" type="line"/>
      <point x="117" y="536"/>
      <point x="53" y="519"/>
      <point x="-7" y="507" type="curve"/>
      <point x="-6" y="456" type="line"/>
      <point x="9" y="457"/>
      <point x="30" y="455"/>
      <point x="53" y="452" type="curve"/>
      <point x="55" y="424"/>
      <point x="58" y="411"/>
      <point x="58" y="287" type="curve" smooth="yes"/>
      <point x="58" y="184" type="line" smooth="yes"/>
      <point x="58" y="107"/>
      <point x="53" y="66"/>
      <point x="53" y="61" type="curve"/>
      <point x="41" y="51"/>
      <point x="25" y="47"/>
      <point x="3" y="43" type="curve"/>
    </contour>
    <contour>
      <point x="247" y="0" type="move" name="bottom"/>
    </contour>
    <contour>
      <point x="164" y="414" type="move" name="stroke"/>
    </contour>
    <contour>
      <point x="125" y="528" type="move" name="top"/>
    </contour>
  </outline>
</glyph>
<glyph name="s" format="1">
  <advance width="342"/>
  <unicode hex="0073"/>
  <outline>
    <contour>
      <point x="156" y="-6" type="curve" smooth="yes"/>
      <point x="263" y="-6"/>
      <point x="333" y="42"/>
      <point x="333" y="120" type="curve" smooth="yes"/>
      <point x="333" y="171"/>
      <point x="305" y="204"/>
      <point x="234" y="229" type="curve" smooth="yes"/>
      <point x="172" y="251"/>
      <point x="154" y="263"/>
      <point x="154" y="280" type="curve" smooth="yes"/>
      <point x="154" y="301"/>
      <point x="173" y="311"/>
      <point x="200" y="311" type="curve" smooth="yes"/>
      <point x="212" y="311"/>
      <point x="230" y="309"/>
      <point x="241" y="301" type="curve"/>
      <point x="248" y="284"/>
      <point x="252" y="263"/>
      <point x="258" y="243" type="curve"/>
      <point x="319" y="243" type="line"/>
      <point x="309" y="346" type="line"/>
      <point x="284" y="356"/>
      <point x="243" y="366"/>
      <point x="206" y="366" type="curve" smooth="yes"/>
      <point x="101" y="366"/>
      <point x="29" y="314"/>
      <point x="29" y="241" type="curve" smooth="yes"/>
      <point x="29" y="185"/>
      <point x="56" y="149"/>
      <point x="135" y="123" type="curve" smooth="yes"/>
      <point x="193" y="103"/>
      <point x="205" y="95"/>
      <point x="205" y="76" type="curve" smooth="yes"/>
      <point x="205" y="60"/>
      <point x="192" y="52"/>
      <point x="163" y="52" type="curve" smooth="yes"/>
      <point x="143" y="52"/>
      <point x="121" y="57"/>
      <point x="99" y="68" type="curve"/>
      <point x="94" y="78"/>
      <point x="88" y="99"/>
      <point x="83" y="126" type="curve"/>
      <point x="22" y="126" type="line"/>
      <point x="23" y="80"/>
      <point x="24" y="59"/>
      <point x="26" y="23" type="curve"/>
      <point x="58" y="6"/>
      <point x="108" y="-6"/>
    </contour>
    <contour>
      <point x="171" y="0" type="move" name="bottom"/>
    </contour>
    <contour>
      <point x="172" y="359" type="move" name="top"/>
    </contour>
  </outline>
</glyph>
<glyph name="t" format="1">
  <advance width="317"/>
  <unicode hex="0074"/>
  <outline>
    <contour>
      <point x="318" y="85" type="curve"/>
      <point x="293" y="110" type="line"/>
      <point x="279" y="99"/>
      <point x="260" y="92"/>
      <point x="244" y="92" type="curve" smooth="yes"/>
      <point x="210" y="92"/>
      <point x="188" y="103"/>
      <point x="188" y="137" type="curve"/>
      <point x="190" y="320" type="line"/>
      <point x="191" y="454" type="line"/>
      <point x="163" y="454" type="line"/>
      <point x="111" y="409"/>
      <point x="57" y="367"/>
      <point x="2" y="327" type="curve"/>
      <point x="2" y="296" type="line"/>
      <point x="56" y="296" type="line"/>
      <point x="53" y="130" type="line"/>
      <point x="53" y="37"/>
      <point x="110" y="-9"/>
      <point x="191" y="-9" type="curve" smooth="yes"/>
      <point x="253" y="-9"/>
      <point x="303" y="27"/>
    </contour>
    <contour>
      <point x="152" y="296" type="line"/>
      <point x="297" y="296" type="line"/>
      <point x="297" y="358" type="line"/>
      <point x="152" y="358" type="line"/>
    </contour>
    <contour>
      <point x="167" y="0" type="move" name="bottom"/>
    </contour>
    <contour>
      <point x="121" y="216" type="move" name="stroke"/>
    </contour>
    <contour>
      <point x="153" y="461" type="move" name="top"/>
    </contour>
    <contour>
      <point x="222" y="550" type="move" name="topright"/>
    </contour>
  </outline>
</glyph>
<glyph name="w" format="1">
  <advance width="698"/>
  <unicode hex="0077"/>
  <outline>
    <contour>
      <point x="458" y="-3" type="line"/>
      <point x="500" y="-3" type="line"/>
      <point x="665" y="302" type="line"/>
      <point x="671" y="306"/>
      <point x="684" y="310"/>
      <point x="700" y="314" type="curve"/>
      <point x="698" y="359" type="line"/>
      <point x="681" y="359"/>
      <point x="650" y="359"/>
      <point x="619" y="359" type="curve" smooth="yes"/>
      <point x="593" y="359"/>
      <point x="575" y="359"/>
      <point x="551" y="359" type="curve"/>
      <point x="549" y="312" type="line"/>
      <point x="579" y="309"/>
      <point x="580" y="306"/>
      <point x="593" y="302" type="curve"/>
      <point x="518" y="153" type="line"/>
      <point x="537" y="152" type="line"/>
      <point x="463" y="302" type="line"/>
      <point x="471" y="306"/>
      <point x="478" y="309"/>
      <point x="495" y="312" type="curve"/>
      <point x="494" y="359" type="line"/>
      <point x="483" y="359"/>
      <point x="416" y="359"/>
      <point x="406" y="359" type="curve" smooth="yes"/>
      <point x="380" y="359"/>
      <point x="292" y="358"/>
      <point x="281" y="359" type="curve"/>
      <point x="279" y="311" type="line"/>
      <point x="298" y="308"/>
      <point x="299" y="306"/>
      <point x="307" y="302" type="curve"/>
    </contour>
    <contour>
      <point x="189" y="-3" type="line"/>
      <point x="232" y="-3" type="line"/>
      <point x="366" y="238" type="line"/>
      <point x="331" y="294" type="line"/>
      <point x="249" y="153" type="line"/>
      <point x="271" y="152" type="line"/>
      <point x="194" y="302" type="line"/>
      <point x="202" y="306"/>
      <point x="208" y="309"/>
      <point x="226" y="312" type="curve"/>
      <point x="224" y="359" type="line"/>
      <point x="213" y="359"/>
      <point x="121" y="359"/>
      <point x="110" y="359" type="curve" smooth="yes"/>
      <point x="85" y="359"/>
      <point x="14" y="359"/>
      <point x="-4" y="359" type="curve"/>
      <point x="-7" y="314" type="line"/>
      <point x="13" y="310"/>
      <point x="28" y="306"/>
      <point x="37" y="302" type="curve"/>
    </contour>
    <contour>
      <point x="344" y="0" type="move" name="bottom"/>
    </contour>
    <contour>
      <point x="385" y="359" type="move" name="top"/>
    </contour>
  </outline>
</glyph>
<glyph name="x" format="1">
  <advance width="441"/>
  <unicode hex="0078"/>
  <outline>
    <contour>
      <point x="435" y="-3" type="curve"/>
      <point x="436" y="47" type="line"/>
      <point x="428" y="50"/>
      <point x="409" y="54"/>
      <point x="399" y="58" type="curve"/>
      <point x="281" y="201" type="line"/>
      <point x="250" y="244" type="line"/>
      <point x="195" y="306" type="line"/>
      <point x="207" y="310"/>
      <point x="219" y="313"/>
      <point x="232" y="314" type="curve"/>
      <point x="230" y="359" type="line"/>
      <point x="206" y="359"/>
      <point x="141" y="359"/>
      <point x="117" y="359" type="curve" smooth="yes"/>
      <point x="93" y="359"/>
      <point x="29" y="359"/>
      <point x="5" y="359" type="curve"/>
      <point x="2" y="315" type="line"/>
      <point x="13" y="314"/>
      <point x="28" y="310"/>
      <point x="38" y="306" type="curve"/>
      <point x="149" y="170" type="line"/>
      <point x="180" y="128" type="line"/>
      <point x="243" y="58" type="line"/>
      <point x="233" y="54"/>
      <point x="219" y="51"/>
      <point x="208" y="49" type="curve"/>
      <point x="209" y="-2" type="line"/>
      <point x="233" y="-1"/>
      <point x="297" y="2"/>
      <point x="321" y="2" type="curve" smooth="yes"/>
      <point x="345" y="2"/>
      <point x="411" y="-2"/>
    </contour>
    <contour>
      <point x="299" y="306" type="curve"/>
      <point x="250" y="244" type="line"/>
      <point x="149" y="170" type="line"/>
      <point x="38" y="58" type="line"/>
      <point x="27" y="54"/>
      <point x="8" y="50"/>
      <point x="0" y="47" type="curve"/>
      <point x="2" y="-3" type="line"/>
      <point x="18" y="-2"/>
      <point x="55" y="2"/>
      <point x="78" y="2" type="curve" smooth="yes"/>
      <point x="96" y="2"/>
      <point x="137" y="-1"/>
      <point x="153" y="-2" type="curve"/>
      <point x="154" y="48" type="line"/>
      <point x="144" y="50"/>
      <point x="129" y="54"/>
      <point x="119" y="58" type="curve"/>
      <point x="180" y="128" type="line"/>
      <point x="281" y="201" type="line"/>
      <point x="380" y="306" type="line"/>
      <point x="392" y="310"/>
      <point x="404" y="314"/>
      <point x="415" y="315" type="curve"/>
      <point x="413" y="359" type="line"/>
      <point x="397" y="359"/>
      <point x="360" y="359"/>
      <point x="337" y="359" type="curve" smooth="yes"/>
      <point x="314" y="359"/>
      <point x="280" y="359"/>
      <point x="264" y="359" type="curve"/>
      <point x="262" y="314" type="line"/>
      <point x="275" y="313"/>
      <point x="287" y="310"/>
    </contour>
    <contour>
      <point x="221" y="0" type="move" name="bottom"/>
    </contour>
    <contour>
      <point x="221" y="359" type="move" name="top"/>
    </contour>
  </outline>
</glyph>
<glyph name="y" format="1">
  <advance width="424"/>
  <unicode hex="0079"/>
  <outline>
    <contour>
      <point x="188" y="-3" type="line"/>
      <point x="271" y="152" type="line"/>
      <point x="193" y="302" type="line"/>
      <point x="204" y="306"/>
      <point x="215" y="309"/>
      <point x="238" y="312" type="curve"/>
      <point x="236" y="359" type="line"/>
      <point x="213" y="359"/>
      <point x="141" y="359"/>
      <point x="117" y="359" type="curve" smooth="yes"/>
      <point x="93" y="359"/>
      <point x="18" y="359"/>
      <point x="-6" y="359" type="curve"/>
      <point x="-9" y="314" type="line"/>
      <point x="11" y="310"/>
      <point x="26" y="306"/>
      <point x="35" y="302" type="curve"/>
    </contour>
    <contour>
      <point x="425" y="359" type="line"/>
      <point x="402" y="358"/>
      <point x="376" y="359"/>
      <point x="357" y="359" type="curve" smooth="yes"/>
      <point x="338" y="359"/>
      <point x="289" y="359"/>
      <point x="273" y="359" type="curve"/>
      <point x="272" y="312" type="line"/>
      <point x="299" y="309"/>
      <point x="308" y="306"/>
      <point x="319" y="302" type="curve"/>
      <point x="246" y="153" type="line"/>
      <point x="235" y="130" type="line"/>
      <point x="131" y="-59" type="line"/>
      <point x="197" y="-25" type="line"/>
      <point x="88" y="-55" type="line" smooth="yes"/>
      <point x="43" y="-68"/>
      <point x="19" y="-94"/>
      <point x="19" y="-126" type="curve" smooth="yes"/>
      <point x="19" y="-157"/>
      <point x="44" y="-182"/>
      <point x="87" y="-182" type="curve" smooth="yes"/>
      <point x="121" y="-182"/>
      <point x="154" y="-168"/>
      <point x="186" y="-98" type="curve" smooth="yes"/>
      <point x="248" y="33" type="line"/>
      <point x="391" y="302" type="line"/>
      <point x="398" y="306"/>
      <point x="410" y="310"/>
      <point x="426" y="314" type="curve"/>
    </contour>
    <contour>
      <point x="281" y="0" type="move" name="bottom"/>
    </contour>
    <contour>
      <point x="256" y="359" type="move" name="top"/>
    </contour>
  </outline>
</glyph>
<glyph name="braceleft" format="1">
  <advance width="311"/>
  <unicode hex="007B"/>
  <outline>
    <contour>
      <point x="218" y="-58" type="curve" smooth="yes"/>
      <point x="218" y="-7"/>
      <point x="249" y="25"/>
      <point x="249" y="89" type="curve" smooth="yes"/>
      <point x="249" y="155"/>
      <point x="196" y="206"/>
      <point x="127" y="213" type="curve"/>
      <point x="127" y="202" type="line"/>
      <point x="195" y="208"/>
      <point x="249" y="245"/>
      <point x="249" y="312" type="curve" smooth="yes"/>
      <point x="249" y="376"/>
      <point x="218" y="409"/>
      <point x="218" y="460" type="curve" smooth="yes"/>
      <point x="218" y="514"/>
      <point x="255" y="532"/>
      <point x="293" y="532" type="curve"/>
      <point x="279" y="584" type="line"/>
      <point x="152" y="571"/>
      <point x="63" y="535"/>
      <point x="63" y="442" type="curve" smooth="yes"/>
      <point x="63" y="383"/>
      <point x="110" y="333"/>
      <point x="110" y="287" type="curve" smooth="yes"/>
      <point x="110" y="254"/>
      <point x="102" y="236"/>
      <point x="30" y="234" type="curve"/>
      <point x="30" y="168" type="line"/>
      <point x="102" y="165"/>
      <point x="110" y="148"/>
      <point x="110" y="115" type="curve" smooth="yes"/>
      <point x="110" y="69"/>
      <point x="63" y="19"/>
      <point x="63" y="-41" type="curve" smooth="yes"/>
      <point x="63" y="-133"/>
      <point x="152" y="-170"/>
      <point x="279" y="-182" type="curve"/>
      <point x="293" y="-130" type="line"/>
      <point x="255" y="-131"/>
      <point x="218" y="-112"/>
    </contour>
  </outline>
</glyph>
<glyph name="exclamdown" format="1">
  <advance width="252"/>
  <unicode hex="00A1"/>
  <outline>
    <contour>
      <point x="98" y="143" type="line"/>
      <point x="83" y="49"/>
      <point x="30" y="-3"/>
      <point x="30" y="-69" type="curve" smooth="yes"/>
      <point x="30" y="-142"/>
      <point x="75" y="-182"/>
      <point x="126" y="-182" type="curve" smooth="yes"/>
      <point x="177" y="-182"/>
      <point x="222" y="-142"/>
      <point x="222" y="-69" type="curve" smooth="yes"/>
      <point x="222" y="-3"/>
      <point x="169" y="49"/>
      <point x="154" y="143" type="curve"/>
    </contour>
    <contour>
      <point x="126" y="366" type="curve" smooth="yes"/>
      <point x="76" y="366"/>
      <point x="34" y="323"/>
      <point x="34" y="269" type="curve" smooth="yes"/>
      <point x="34" y="214"/>
      <point x="76" y="168"/>
      <point x="126" y="168" type="curve" smooth="yes"/>
      <point x="177" y="168"/>
      <point x="218" y="214"/>
      <point x="218" y="269" type="curve" smooth="yes"/>
      <point x="218" y="323"/>
      <point x="177" y="366"/>
    </contour>
  </outline>
</glyph>
<glyph name="cent" format="1">
  <advance width="386"/>
  <unicode hex="00A2"/>
  <outline>
    <contour>
      <point x="217" y="-6" type="curve" smooth="yes"/>
      <point x="280" y="-6"/>
      <point x="345" y="33"/>
      <point x="375" y="110" type="curve"/>
      <point x="348" y="137" type="line"/>
      <point x="318" y="104"/>
      <point x="288" y="95"/>
      <point x="266" y="95" type="curve" smooth="yes"/>
      <point x="210" y="95"/>
      <point x="168" y="133"/>
      <point x="168" y="209" type="curve" smooth="yes"/>
      <point x="168" y="276"/>
      <point x="207" y="312"/>
      <point x="244" y="306" type="curve"/>
      <point x="210" y="316" type="line"/>
      <point x="274" y="255" type="line" smooth="yes"/>
      <point x="293" y="238"/>
      <point x="309" y="231"/>
      <point x="329" y="231" type="curve" smooth="yes"/>
      <point x="351" y="231"/>
      <point x="375" y="247"/>
      <point x="375" y="281" type="curve" smooth="yes"/>
      <point x="375" y="333"/>
      <point x="309" y="366"/>
      <point x="238" y="366" type="curve" smooth="yes"/>
      <point x="112" y="366"/>
      <point x="26" y="269"/>
      <point x="26" y="169" type="curve" smooth="yes"/>
      <point x="26" y="73"/>
      <point x="109" y="-6"/>
    </contour>
    <contour>
      <point x="218" y="-119" type="line"/>
      <point x="276" y="-119" type="line"/>
      <point x="276" y="478" type="line"/>
      <point x="218" y="478" type="line"/>
    </contour>
  </outline>
</glyph>
<glyph name="sterling" format="1">
  <advance width="522"/>
  <unicode hex="00A3"/>
  <outline>
    <contour>
      <point x="45" y="-13" type="line"/>
      <point x="136" y="17"/>
      <point x="156" y="19"/>
      <point x="182" y="19" type="curve" smooth="yes"/>
      <point x="252" y="19"/>
      <point x="262" y="-9"/>
      <point x="364" y="-9" type="curve" smooth="yes"/>
      <point x="441" y="-9"/>
      <point x="497" y="56"/>
      <point x="522" y="140" type="curve"/>
      <point x="479" y="161" type="line"/>
      <point x="459" y="122"/>
      <point x="446" y="107"/>
      <point x="402" y="107" type="curve" smooth="yes"/>
      <point x="360" y="107"/>
      <point x="320" y="127"/>
      <point x="283" y="127" type="curve" smooth="yes"/>
      <point x="238" y="127"/>
      <point x="210" y="102"/>
      <point x="130" y="43" type="curve"/>
      <point x="136" y="28" type="line"/>
      <point x="247" y="137"/>
      <point x="261" y="162"/>
      <point x="261" y="234" type="curve" smooth="yes"/>
      <point x="261" y="284"/>
      <point x="220" y="365"/>
      <point x="220" y="400" type="curve" smooth="yes"/>
      <point x="220" y="444"/>
      <point x="252" y="484"/>
      <point x="309" y="479" type="curve"/>
      <point x="259" y="519" type="line"/>
      <point x="364" y="422" type="line" smooth="yes"/>
      <point x="384" y="404"/>
      <point x="400" y="398"/>
      <point x="426" y="398" type="curve" smooth="yes"/>
      <point x="455" y="398"/>
      <point x="477" y="421"/>
      <point x="477" y="450" type="curve" smooth="yes"/>
      <point x="477" y="503"/>
      <point x="413" y="536"/>
      <point x="318" y="536" type="curve" smooth="yes"/>
      <point x="176" y="536"/>
      <point x="75" y="462"/>
      <point x="75" y="358" type="curve" smooth="yes"/>
      <point x="75" y="331"/>
      <point x="136" y="227"/>
      <point x="136" y="154" type="curve" smooth="yes"/>
      <point x="136" y="89"/>
      <point x="110" y="61"/>
      <point x="33" y="41" type="curve"/>
    </contour>
    <contour>
      <point x="20" y="244" type="line"/>
      <point x="399" y="244" type="line"/>
      <point x="399" y="305" type="line"/>
      <point x="20" y="305" type="line"/>
    </contour>
  </outline>
</glyph>
<glyph name="brokenbar" format="1">
  <advance width="211"/>
  <unicode hex="00A6"/>
  <outline>
    <contour>
      <point x="64" y="280" type="line"/>
      <point x="147" y="280" type="line"/>
      <point x="147" y="578" type="line"/>
      <point x="64" y="578" type="line"/>
    </contour>
    <contour>
      <point x="64" y="-176" type="line"/>
      <point x="147" y="-176" type="line"/>
      <point x="147" y="122" type="line"/>
      <point x="64" y="122" type="line"/>
    </contour>
  </outline>
</glyph>
<glyph name="section" format="1">
  <advance width="360"/>
  <unicode hex="00A7"/>
  <outline>
    <contour>
      <point x="176" y="180" type="line"/>
      <point x="258" y="177"/>
      <point x="337" y="212"/>
      <point x="337" y="294" type="curve" smooth="yes"/>
      <point x="337" y="427"/>
      <point x="158" y="410"/>
      <point x="158" y="467" type="curve" smooth="yes"/>
      <point x="158" y="489"/>
      <point x="177" y="499"/>
      <point x="201" y="499" type="curve" smooth="yes"/>
      <point x="211" y="499"/>
      <point x="231" y="498"/>
      <point x="243" y="491" type="curve"/>
      <point x="248" y="472"/>
      <point x="254" y="449"/>
      <point x="256" y="441" type="curve"/>
      <point x="318" y="441" type="line"/>
      <point x="316" y="472"/>
      <point x="314" y="494"/>
      <point x="310" y="532" type="curve"/>
      <point x="286" y="544"/>
      <point x="241" y="553"/>
      <point x="206" y="553" type="curve" smooth="yes"/>
      <point x="104" y="553"/>
      <point x="33" y="504"/>
      <point x="33" y="440" type="curve" smooth="yes"/>
      <point x="33" y="326"/>
      <point x="225" y="327"/>
      <point x="225" y="257" type="curve" smooth="yes"/>
      <point x="225" y="228"/>
      <point x="207" y="203"/>
      <point x="160" y="195" type="curve"/>
    </contour>
    <contour>
      <point x="143" y="-6" type="curve" smooth="yes"/>
      <point x="251" y="-6"/>
      <point x="322" y="45"/>
      <point x="322" y="110" type="curve" smooth="yes"/>
      <point x="322" y="221"/>
      <point x="138" y="219"/>
      <point x="138" y="285" type="curve" smooth="yes"/>
      <point x="138" y="317"/>
      <point x="155" y="342"/>
      <point x="208" y="352" type="curve"/>
      <point x="193" y="367" type="line"/>
      <point x="108" y="369"/>
      <point x="23" y="330"/>
      <point x="23" y="241" type="curve" smooth="yes"/>
      <point x="23" y="121"/>
      <point x="195" y="135"/>
      <point x="195" y="84" type="curve" smooth="yes"/>
      <point x="195" y="64"/>
      <point x="178" y="52"/>
      <point x="142" y="52" type="curve" smooth="yes"/>
      <point x="134" y="52"/>
      <point x="117" y="55"/>
      <point x="106" y="61" type="curve"/>
      <point x="102" y="83"/>
      <point x="97" y="104"/>
      <point x="97" y="112" type="curve"/>
      <point x="34" y="112" type="line"/>
      <point x="34" y="81"/>
      <point x="34" y="55"/>
      <point x="36" y="18" type="curve"/>
      <point x="58" y="5"/>
      <point x="101" y="-6"/>
    </contour>
  </outline>
</glyph>
<glyph name="copyright" format="1">
  <advance width="478"/>
  <unicode hex="00A9"/>
  <outline>
    <contour>
      <point x="235" y="162" type="curve" smooth="yes"/>
      <point x="266" y="162"/>
      <point x="290" y="168"/>
      <point x="305" y="179" type="curve" smooth="yes"/>
      <point x="315" y="184"/>
      <point x="320" y="200"/>
      <point x="320" y="209" type="curve"/>
      <point x="318" y="212"/>
      <point x="314" y="214"/>
      <point x="308" y="214" type="curve" smooth="yes"/>
      <point x="307" y="214"/>
      <point x="291" y="199"/>
      <point x="284" y="194" type="curve"/>
      <point x="277" y="188"/>
      <point x="267" y="185"/>
      <point x="252" y="185" type="curve" smooth="yes"/>
      <point x="206" y="185"/>
      <point x="196" y="233"/>
      <point x="196" y="278" type="curve" smooth="yes"/>
      <point x="196" y="324"/>
      <point x="207" y="362"/>
      <point x="239" y="362" type="curve" smooth="yes"/>
      <point x="280" y="362"/>
      <point x="294" y="339"/>
      <point x="300" y="321" type="curve"/>
      <point x="304" y="321"/>
      <point x="308" y="320"/>
      <point x="314" y="320" type="curve" smooth="yes"/>
      <point x="315" y="320"/>
      <point x="316" y="319"/>
      <point x="316" y="319" type="curve" smooth="yes"/>
      <point x="316" y="328"/>
      <point x="310" y="405"/>
      <point x="311" y="379" type="curve"/>
      <point x="286" y="382"/>
      <point x="264" y="383"/>
      <point x="243" y="383" type="curve" smooth="yes"/>
      <point x="180" y="383"/>
      <point x="134" y="332"/>
      <point x="134" y="270" type="curve" smooth="yes"/>
      <point x="134" y="213"/>
      <point x="181" y="162"/>
    </contour>
  </outline>
</glyph>
<glyph name="plusminus" format="1">
  <advance width="480"/>
  <unicode hex="00B1"/>
  <outline>
    <contour>
      <point x="435" y="313" type="line"/>
      <point x="45" y="313" type="line"/>
      <point x="45" y="229" type="line"/>
      <point x="435" y="229" type="line"/>
    </contour>
    <contour>
      <point x="199" y="425" type="line"/>
      <point x="199" y="115" type="line"/>
      <point x="281" y="115" type="line"/>
      <point x="281" y="425" type="line"/>
    </contour>
    <contour>
      <point x="435" y="87" type="line"/>
      <point x="45" y="87" type="line"/>
      <point x="45" y="0" type="line"/>
      <point x="435" y="0" type="line"/>
    </contour>
  </outline>
</glyph>
<glyph name="paragraph" format="1">
  <advance width="532"/>
  <unicode hex="00B6"/>
  <outline>
    <contour>
      <point x="508" y="-5" type="curve"/>
      <point x="511" y="50" type="line"/>
      <point x="490" y="54"/>
      <point x="468" y="57"/>
      <point x="457" y="66" type="curve"/>
      <point x="454" y="73"/>
      <point x="451" y="140"/>
      <point x="451" y="207" type="curve" smooth="yes"/>
      <point x="451" y="321" type="line" smooth="yes"/>
      <point x="451" y="388"/>
      <point x="454" y="455"/>
      <point x="457" y="462" type="curve"/>
      <point x="468" y="472"/>
      <point x="492" y="473"/>
      <point x="515" y="474" type="curve"/>
      <point x="512" y="529" type="line"/>
      <point x="486" y="526"/>
      <point x="429" y="527"/>
      <point x="366" y="527" type="curve" smooth="yes"/>
      <point x="326" y="527"/>
      <point x="294" y="529"/>
      <point x="241" y="529" type="curve" smooth="yes"/>
      <point x="111" y="529"/>
      <point x="23" y="461"/>
      <point x="23" y="359" type="curve" smooth="yes"/>
      <point x="23" y="248"/>
      <point x="113" y="187"/>
      <point x="271" y="187" type="curve" smooth="yes"/>
      <point x="313" y="187"/>
      <point x="347" y="191"/>
      <point x="418" y="208" type="curve"/>
      <point x="418" y="280" type="line"/>
      <point x="356" y="260"/>
      <point x="318" y="258"/>
      <point x="276" y="258" type="curve" smooth="yes"/>
      <point x="206" y="258"/>
      <point x="167" y="303"/>
      <point x="167" y="379" type="curve" smooth="yes"/>
      <point x="167" y="431"/>
      <point x="192" y="471"/>
      <point x="255" y="471" type="curve" smooth="yes"/>
      <point x="263" y="471"/>
      <point x="269" y="471"/>
      <point x="281" y="470" type="curve"/>
      <point x="282" y="452"/>
      <point x="281" y="419"/>
      <point x="281" y="284" type="curve" smooth="yes"/>
      <point x="281" y="146" type="line" smooth="yes"/>
      <point x="281" y="140"/>
      <point x="278" y="73"/>
      <point x="274" y="66" type="curve"/>
      <point x="244" y="56"/>
      <point x="222" y="54"/>
      <point x="197" y="51" type="curve"/>
      <point x="200" y="-5" type="line"/>
      <point x="230" y="-2"/>
      <point x="300" y="-1"/>
      <point x="352" y="-1" type="curve" smooth="yes"/>
      <point x="417" y="-1"/>
      <point x="484" y="-2"/>
    </contour>
    <contour>
      <point x="346" y="471" type="line"/>
      <point x="396" y="471" type="line"/>
      <point x="391" y="56" type="line"/>
      <point x="346" y="56" type="line"/>
    </contour>
  </outline>
</glyph>
<glyph name="questiondown" format="1">
  <advance width="317"/>
  <unicode hex="00BF"/>
  <outline>
    <contour>
      <point x="233" y="143" type="curve"/>
      <point x="175" y="143" type="line"/>
      <point x="176" y="121"/>
      <point x="176" y="123"/>
      <point x="176" y="125" type="curve" smooth="yes"/>
      <point x="176" y="71"/>
      <point x="24" y="113"/>
      <point x="24" y="8" type="curve" smooth="yes"/>
      <point x="24" y="-91"/>
      <point x="130" y="-185"/>
      <point x="238" y="-185" type="curve" smooth="yes"/>
      <point x="285" y="-185"/>
      <point x="316" y="-160"/>
      <point x="316" y="-120" type="curve" smooth="yes"/>
      <point x="316" y="-77"/>
      <point x="281" y="-49"/>
      <point x="236" y="-49" type="curve" smooth="yes"/>
      <point x="203" y="-49"/>
      <point x="177" y="-62"/>
      <point x="150" y="-62" type="curve" smooth="yes"/>
      <point x="127" y="-62"/>
      <point x="116" y="-58"/>
      <point x="116" y="-48" type="curve" smooth="yes"/>
      <point x="116" y="-12"/>
      <point x="249" y="-29"/>
      <point x="249" y="67" type="curve" smooth="yes"/>
      <point x="249" y="90"/>
      <point x="243" y="113"/>
    </contour>
    <contour>
      <point x="205" y="366" type="curve" smooth="yes"/>
      <point x="154" y="366"/>
      <point x="112" y="323"/>
      <point x="112" y="269" type="curve" smooth="yes"/>
      <point x="112" y="214"/>
      <point x="154" y="168"/>
      <point x="205" y="168" type="curve" smooth="yes"/>
      <point x="254" y="168"/>
      <point x="297" y="214"/>
      <point x="297" y="269" type="curve" smooth="yes"/>
      <point x="297" y="322"/>
      <point x="256" y="366"/>
    </contour>
  </outline>
</glyph>
<glyph name="AE" format="1">
  <advance width="749"/>
  <unicode hex="00C6"/>
  <outline>
    <contour>
      <point x="585" y="176" type="curve"/>
      <point x="638" y="176" type="line"/>
      <point x="638" y="207"/>
      <point x="636" y="240"/>
      <point x="636" y="270" type="curve" smooth="yes"/>
      <point x="636" y="301"/>
      <point x="638" y="330"/>
      <point x="638" y="361" type="curve"/>
      <point x="585" y="361" type="line"/>
      <point x="582" y="342"/>
      <point x="577" y="307"/>
      <point x="575" y="303" type="curve"/>
      <point x="568" y="304"/>
      <point x="547" y="301"/>
      <point x="521" y="301" type="curve" smooth="yes"/>
      <point x="489" y="301" type="line" smooth="yes"/>
      <point x="466" y="301"/>
      <point x="447" y="304"/>
      <point x="439" y="304" type="curve"/>
      <point x="439" y="236" type="line"/>
      <point x="447" y="237"/>
      <point x="466" y="239"/>
      <point x="489" y="239" type="curve" smooth="yes"/>
      <point x="521" y="239" type="line" smooth="yes"/>
      <point x="547" y="239"/>
      <point x="568" y="237"/>
      <point x="575" y="237" type="curve"/>
      <point x="577" y="233"/>
      <point x="582" y="195"/>
    </contour>
    <contour>
      <point x="131" y="138" type="line"/>
      <point x="149" y="140"/>
      <point x="179" y="142"/>
      <point x="230" y="142" type="curve" smooth="yes"/>
      <point x="280" y="142"/>
      <point x="311" y="140"/>
      <point x="334" y="139" type="curve"/>
      <point x="334" y="205" type="line"/>
      <point x="309" y="203"/>
      <point x="280" y="201"/>
      <point x="230" y="201" type="curve" smooth="yes"/>
      <point x="179" y="201"/>
      <point x="176" y="203"/>
      <point x="151" y="205" type="curve"/>
    </contour>
    <contour>
      <point x="691" y="158" type="line"/>
      <point x="674" y="126"/>
      <point x="659" y="94"/>
      <point x="641" y="62" type="curve"/>
      <point x="621" y="58"/>
      <point x="614" y="58"/>
      <point x="577" y="58" type="curve" smooth="yes"/>
      <point x="548" y="58" type="line" smooth="yes"/>
      <point x="509" y="58"/>
      <point x="487" y="60"/>
      <point x="463" y="63" type="curve"/>
      <point x="461" y="81"/>
      <point x="461" y="120"/>
      <point x="461" y="189" type="curve" smooth="yes"/>
      <point x="461" y="353" type="line" smooth="yes"/>
      <point x="461" y="422"/>
      <point x="461" y="455"/>
      <point x="463" y="471" type="curve"/>
      <point x="480" y="474"/>
      <point x="507" y="474"/>
      <point x="523" y="474" type="curve" smooth="yes"/>
      <point x="572" y="474" type="line" smooth="yes"/>
      <point x="587" y="474"/>
      <point x="597" y="473"/>
      <point x="615" y="470" type="curve"/>
      <point x="628" y="444"/>
      <point x="634" y="422"/>
      <point x="650" y="385" type="curve"/>
      <point x="706" y="392" type="line"/>
      <point x="679" y="533" type="line"/>
      <point x="648" y="532"/>
      <point x="567" y="528"/>
      <point x="527" y="528" type="curve" smooth="yes"/>
      <point x="393" y="528" type="line" smooth="yes"/>
      <point x="351" y="528"/>
      <point x="268" y="530"/>
      <point x="245" y="532" type="curve"/>
      <point x="242" y="477" type="line"/>
      <point x="263" y="477"/>
      <point x="301" y="472"/>
      <point x="309" y="462" type="curve"/>
      <point x="320" y="498" type="line"/>
      <point x="19" y="61" type="line"/>
      <point x="11" y="57"/>
      <point x="4" y="55"/>
      <point x="-23" y="51" type="curve"/>
      <point x="-20" y="-2" type="line"/>
      <point x="8" y="0"/>
      <point x="38" y="-1"/>
      <point x="64" y="-1" type="curve" smooth="yes"/>
      <point x="90" y="-1"/>
      <point x="127" y="0"/>
      <point x="152" y="-2" type="curve"/>
      <point x="155" y="51" type="line"/>
      <point x="132" y="55"/>
      <point x="108" y="58"/>
      <point x="96" y="61" type="curve"/>
      <point x="358" y="451" type="line"/>
      <point x="325" y="444" type="line"/>
      <point x="325" y="259" type="line"/>
      <point x="325" y="140"/>
      <point x="326" y="73"/>
      <point x="325" y="66" type="curve"/>
      <point x="312" y="57"/>
      <point x="286" y="54"/>
      <point x="263" y="50" type="curve"/>
      <point x="266" y="-5" type="line"/>
      <point x="292" y="-2"/>
      <point x="351" y="0"/>
      <point x="393" y="0" type="curve" smooth="yes"/>
      <point x="565" y="0" type="line" smooth="yes"/>
      <point x="605" y="0"/>
      <point x="671" y="-4"/>
      <point x="703" y="-6" type="curve"/>
      <point x="746" y="147" type="line"/>
    </contour>
    <contour>
      <point x="394" y="0" type="move" name="bottom"/>
    </contour>
    <contour>
      <point x="394" y="528" type="move" name="top"/>
    </contour>
  </outline>
</glyph>
<glyph name="ae" format="1">
  <advance width="614"/>
  <unicode hex="00E6"/>
  <outline>
    <contour>
      <point x="175" y="-6" type="curve" smooth="yes"/>
      <point x="197" y="-6"/>
      <point x="246" y="13"/>
      <point x="297" y="69" type="curve"/>
      <point x="270" y="117" type="line"/>
      <point x="253" y="99"/>
      <point x="240" y="90"/>
      <point x="215" y="90" type="curve" smooth="yes"/>
      <point x="191" y="90"/>
      <point x="164" y="104"/>
      <point x="164" y="126" type="curve" smooth="yes"/>
      <point x="164" y="141"/>
      <point x="175" y="152"/>
      <point x="208" y="157" type="curve" smooth="yes"/>
      <point x="579" y="198" type="line"/>
      <point x="579" y="296"/>
      <point x="526" y="366"/>
      <point x="435" y="366" type="curve" smooth="yes"/>
      <point x="379" y="366"/>
      <point x="333" y="339"/>
      <point x="301" y="296" type="curve"/>
      <point x="355" y="296" type="line"/>
      <point x="326" y="343"/>
      <point x="273" y="366"/>
      <point x="196" y="366" type="curve"/>
      <point x="157" y="362"/>
      <point x="36" y="308"/>
      <point x="36" y="257" type="curve" smooth="yes"/>
      <point x="36" y="220"/>
      <point x="75" y="197"/>
      <point x="142" y="211" type="curve"/>
      <point x="148" y="276" type="line" smooth="yes"/>
      <point x="149" y="292"/>
      <point x="156" y="294"/>
      <point x="165" y="294" type="curve" smooth="yes"/>
      <point x="204" y="294"/>
      <point x="236" y="259"/>
      <point x="236" y="211" type="curve" smooth="yes"/>
      <point x="236" y="181" type="line" smooth="yes"/>
      <point x="236" y="79"/>
      <point x="319" y="-6"/>
      <point x="423" y="-6" type="curve" smooth="yes"/>
      <point x="496" y="-6"/>
      <point x="559" y="33"/>
      <point x="586" y="107" type="curve"/>
      <point x="558" y="134" type="line"/>
      <point x="533" y="106"/>
      <point x="505" y="93"/>
      <point x="471" y="93" type="curve" smooth="yes"/>
      <point x="407" y="93"/>
      <point x="369" y="145"/>
      <point x="369" y="203" type="curve" smooth="yes"/>
      <point x="369" y="213" type="line" smooth="yes"/>
      <point x="369" y="294"/>
      <point x="389" y="310"/>
      <point x="417" y="310" type="curve" smooth="yes"/>
      <point x="447" y="310"/>
      <point x="464" y="288"/>
      <point x="464" y="240" type="curve" smooth="yes"/>
      <point x="464" y="204" type="line"/>
      <point x="484" y="236" type="line"/>
      <point x="154" y="199" type="line" smooth="yes"/>
      <point x="62" y="187"/>
      <point x="28" y="153"/>
      <point x="28" y="101" type="curve" smooth="yes"/>
      <point x="28" y="67"/>
      <point x="74" y="-6"/>
    </contour>
    <contour>
      <point x="303" y="0" type="move" name="bottom"/>
    </contour>
    <contour>
      <point x="303" y="359" type="move" name="top"/>
    </contour>
  </outline>
</glyph>
<glyph name="divide" format="1">
  <advance width="480"/>
  <unicode hex="00F7"/>
  <outline>
    <contour>
      <point x="435" y="274" type="line"/>
      <point x="45" y="274" type="line"/>
      <point x="45" y="186" type="line"/>
      <point x="435" y="186" type="line"/>
    </contour>
    <contour>
      <point x="235" y="10" type="curve" smooth="yes"/>
      <point x="270" y="10"/>
      <point x="298" y="38"/>
      <point x="298" y="74" type="curve" smooth="yes"/>
      <point x="298" y="112"/>
      <point x="270" y="143"/>
      <point x="235" y="143" type="curve" smooth="yes"/>
      <point x="201" y="143"/>
      <point x="171" y="112"/>
      <point x="171" y="74" type="curve" smooth="yes"/>
      <point x="171" y="38"/>
      <point x="201" y="10"/>
    </contour>
    <contour>
      <point x="235" y="317" type="curve" smooth="yes"/>
      <point x="270" y="317"/>
      <point x="298" y="345"/>
      <point x="298" y="381" type="curve" smooth="yes"/>
      <point x="298" y="419"/>
      <point x="270" y="450"/>
      <point x="235" y="450" type="curve" smooth="yes"/>
      <point x="201" y="450"/>
      <point x="171" y="419"/>
      <point x="171" y="381" type="curve" smooth="yes"/>
      <point x="171" y="345"/>
      <point x="201" y="317"/>
    </contour>
  </outline>
</glyph>
<glyph name="iogonek" format="1">
  <advance width="253"/>
  <unicode hex="012F"/>
  <outline>
    <contour>
      <point x="247" y="-2" type="curve"/>
      <point x="251" y="44" type="line"/>
      <point x="229" y="48"/>
      <point x="211" y="51"/>
      <point x="200" y="61" type="curve"/>
      <point x="198" y="70"/>
      <point x="196" y="114"/>
      <point x="196" y="130" type="curve" smooth="yes"/>
      <point x="196" y="233" type="line" smooth="yes"/>
      <point x="196" y="279"/>
      <point x="198" y="314"/>
      <point x="201" y="349" type="curve"/>
      <point x="172" y="364" type="line"/>
      <point x="135" y="348"/>
      <point x="64" y="329"/>
      <point x="-1" y="318" type="curve"/>
      <point x="-1" y="273" type="line"/>
      <point x="17" y="271"/>
      <point x="38" y="270"/>
      <point x="55" y="264" type="curve"/>
      <point x="60" y="227"/>
      <point x="61" y="215"/>
      <point x="61" y="193" type="curve" smooth="yes"/>
      <point x="60" y="136" type="line" smooth="yes"/>
      <point x="59" y="114"/>
      <point x="56" y="66"/>
      <point x="56" y="61" type="curve"/>
      <point x="44" y="51"/>
      <point x="29" y="47"/>
      <point x="4" y="43" type="curve"/>
      <point x="7" y="-2" type="line"/>
      <point x="37" y="0"/>
      <point x="91" y="2"/>
      <point x="128" y="2" type="curve" smooth="yes"/>
      <point x="172" y="2" type="line"/>
      <point x="182" y="16" type="line"/>
      <point x="64" y="-2"/>
      <point x="17" y="-48"/>
      <point x="17" y="-90" type="curve" smooth="yes"/>
      <point x="17" y="-143"/>
      <point x="71" y="-178"/>
      <point x="130" y="-178" type="curve" smooth="yes"/>
      <point x="169" y="-178"/>
      <point x="202" y="-165"/>
      <point x="227" y="-138" type="curve"/>
      <point x="201" y="-98" type="line"/>
      <point x="181" y="-118"/>
      <point x="163" y="-125"/>
      <point x="147" y="-125" type="curve" smooth="yes"/>
      <point x="126" y="-125"/>
      <point x="109" y="-111"/>
      <point x="109" y="-86" type="curve" smooth="yes"/>
      <point x="109" y="-73"/>
      <point x="116" y="-2"/>
    </contour>
    <component base="dotaccentcomb.i" xOffset="-112.032"/>
  </outline>
</glyph>
<glyph name="eng" format="1">
  <advance width="486"/>
  <unicode hex="014B"/>
  <outline>
    <contour>
      <point x="433" y="45" type="curve"/>
      <point x="431" y="217" type="line"/>
      <point x="431" y="306"/>
      <point x="382" y="366"/>
      <point x="309" y="366" type="curve" smooth="yes"/>
      <point x="268" y="366"/>
      <point x="223" y="344"/>
      <point x="190" y="300" type="curve"/>
      <point x="187" y="301" type="line"/>
      <point x="193" y="349" type="line"/>
      <point x="164" y="364" type="line"/>
      <point x="126" y="348"/>
      <point x="62" y="329"/>
      <point x="-3" y="318" type="curve"/>
      <point x="-3" y="273" type="line"/>
      <point x="15" y="271"/>
      <point x="36" y="270"/>
      <point x="53" y="264" type="curve"/>
      <point x="58" y="227"/>
      <point x="59" y="215"/>
      <point x="59" y="193" type="curve" smooth="yes"/>
      <point x="58" y="136" type="line" smooth="yes"/>
      <point x="57" y="114"/>
      <point x="54" y="66"/>
      <point x="54" y="61" type="curve"/>
      <point x="42" y="51"/>
      <point x="26" y="47"/>
      <point x="4" y="43" type="curve"/>
      <point x="8" y="-2" type="line"/>
      <point x="34" y="0"/>
      <point x="90" y="2"/>
      <point x="125" y="2" type="curve" smooth="yes"/>
      <point x="161" y="2"/>
      <point x="215" y="0"/>
      <point x="241" y="-2" type="curve"/>
      <point x="245" y="44" type="line"/>
      <point x="226" y="48"/>
      <point x="206" y="51"/>
      <point x="195" y="61" type="curve"/>
      <point x="194" y="70"/>
      <point x="192" y="114"/>
      <point x="192" y="130" type="curve" smooth="yes"/>
      <point x="192" y="245" type="line"/>
      <point x="205" y="257"/>
      <point x="224" y="266"/>
      <point x="244" y="266" type="curve" smooth="yes"/>
      <point x="277" y="266"/>
      <point x="300" y="244"/>
      <point x="300" y="191" type="curve"/>
      <point x="299" y="-4" type="line"/>
      <point x="299" y="-63"/>
      <point x="279" y="-107"/>
      <point x="232" y="-139" type="curve"/>
      <point x="255" y="-183" type="line"/>
      <point x="342" y="-159"/>
      <point x="433" y="-58"/>
    </contour>
  </outline>
</glyph>
<glyph name="OE" format="1">
  <advance width="827"/>
  <unicode hex="0152"/>
  <outline>
    <contour>
      <point x="339" y="-8" type="curve" smooth="yes"/>
      <point x="381" y="-8"/>
      <point x="415" y="0"/>
      <point x="456" y="0" type="curve" smooth="yes"/>
      <point x="641" y="0" type="line" smooth="yes"/>
      <point x="681" y="0"/>
      <point x="747" y="-4"/>
      <point x="779" y="-6" type="curve"/>
      <point x="822" y="147" type="line"/>
      <point x="767" y="158" type="line"/>
      <point x="750" y="126"/>
      <point x="735" y="94"/>
      <point x="717" y="62" type="curve"/>
      <point x="697" y="58"/>
      <point x="690" y="58"/>
      <point x="653" y="58" type="curve" smooth="yes"/>
      <point x="635" y="58" type="line" smooth="yes"/>
      <point x="596" y="58"/>
      <point x="574" y="60"/>
      <point x="550" y="63" type="curve"/>
      <point x="548" y="81"/>
      <point x="547" y="120"/>
      <point x="547" y="189" type="curve" smooth="yes"/>
      <point x="547" y="353" type="line" smooth="yes"/>
      <point x="547" y="422"/>
      <point x="548" y="455"/>
      <point x="550" y="471" type="curve"/>
      <point x="566" y="474"/>
      <point x="593" y="474"/>
      <point x="610" y="474" type="curve" smooth="yes"/>
      <point x="648" y="474" type="line" smooth="yes"/>
      <point x="663" y="474"/>
      <point x="673" y="473"/>
      <point x="691" y="470" type="curve"/>
      <point x="704" y="444"/>
      <point x="710" y="422"/>
      <point x="726" y="385" type="curve"/>
      <point x="783" y="392" type="line"/>
      <point x="755" y="533" type="line"/>
      <point x="724" y="532"/>
      <point x="643" y="528"/>
      <point x="603" y="528" type="curve" smooth="yes"/>
      <point x="462" y="528" type="line" smooth="yes"/>
      <point x="428" y="528"/>
      <point x="391" y="534"/>
      <point x="361" y="534" type="curve" smooth="yes"/>
      <point x="128" y="534"/>
      <point x="40" y="390"/>
      <point x="40" y="258" type="curve" smooth="yes"/>
      <point x="40" y="96"/>
      <point x="163" y="-8"/>
    </contour>
    <contour>
      <point x="354" y="64" type="curve" smooth="yes"/>
      <point x="265" y="64"/>
      <point x="200" y="139"/>
      <point x="200" y="277" type="curve" smooth="yes"/>
      <point x="200" y="361"/>
      <point x="237" y="467"/>
      <point x="356" y="467" type="curve" smooth="yes"/>
      <point x="368" y="467"/>
      <point x="392" y="465"/>
      <point x="405" y="458" type="curve"/>
      <point x="407" y="452"/>
      <point x="410" y="398"/>
      <point x="410" y="328" type="curve" smooth="yes"/>
      <point x="410" y="211" type="line" smooth="yes"/>
      <point x="410" y="138"/>
      <point x="407" y="80"/>
      <point x="407" y="73" type="curve"/>
      <point x="393" y="70"/>
      <point x="370" y="64"/>
    </contour>
    <contour>
      <point x="661" y="176" type="curve"/>
      <point x="715" y="176" type="line"/>
      <point x="714" y="207"/>
      <point x="712" y="240"/>
      <point x="712" y="270" type="curve" smooth="yes"/>
      <point x="712" y="301"/>
      <point x="714" y="330"/>
      <point x="715" y="361" type="curve"/>
      <point x="661" y="361" type="line"/>
      <point x="658" y="342"/>
      <point x="653" y="307"/>
      <point x="651" y="303" type="curve"/>
      <point x="644" y="304"/>
      <point x="623" y="301"/>
      <point x="597" y="301" type="curve" smooth="yes"/>
      <point x="575" y="301" type="line" smooth="yes"/>
      <point x="552" y="301"/>
      <point x="533" y="304"/>
      <point x="526" y="304" type="curve"/>
      <point x="526" y="236" type="line"/>
      <point x="533" y="237"/>
      <point x="552" y="239"/>
      <point x="575" y="239" type="curve" smooth="yes"/>
      <point x="597" y="239" type="line" smooth="yes"/>
      <point x="623" y="239"/>
      <point x="644" y="237"/>
      <point x="651" y="237" type="curve"/>
      <point x="653" y="233"/>
      <point x="658" y="195"/>
    </contour>
    <contour>
      <point x="479" y="0" type="move" name="bottom"/>
    </contour>
    <contour>
      <point x="479" y="528" type="move" name="top"/>
    </contour>
  </outline>
</glyph>
<glyph name="florin" format="1">
  <advance width="342"/>
  <unicode hex="0192"/>
  <outline>
    <contour>
      <point x="70" y="-185" type="curve" smooth="yes"/>
      <point x="161" y="-185"/>
      <point x="234" y="-102"/>
      <point x="234" y="68" type="curve" smooth="yes"/>
      <point x="234" y="296" type="line"/>
      <point x="233" y="358" type="line"/>
      <point x="233" y="410" type="line" smooth="yes"/>
      <point x="233" y="453"/>
      <point x="236" y="480"/>
      <point x="244" y="497" type="curve"/>
      <point x="277" y="468" type="line" smooth="yes"/>
      <point x="294" y="452"/>
      <point x="310" y="444"/>
      <point x="330" y="444" type="curve" smooth="yes"/>
      <point x="357" y="444"/>
      <point x="376" y="458"/>
      <point x="376" y="489" type="curve" smooth="yes"/>
      <point x="376" y="531"/>
      <point x="332" y="558"/>
      <point x="272" y="558" type="curve" smooth="yes"/>
      <point x="178" y="558"/>
      <point x="101" y="475"/>
      <point x="101" y="361" type="curve" smooth="yes"/>
      <point x="101" y="-6" type="line"/>
      <point x="101" y="-80"/>
      <point x="103" y="-107"/>
      <point x="98" y="-124" type="curve"/>
      <point x="65" y="-95" type="line" smooth="yes"/>
      <point x="48" y="-79"/>
      <point x="32" y="-71"/>
      <point x="12" y="-71" type="curve" smooth="yes"/>
      <point x="-15" y="-71"/>
      <point x="-34" y="-85"/>
      <point x="-34" y="-116" type="curve" smooth="yes"/>
      <point x="-34" y="-158"/>
      <point x="10" y="-185"/>
    </contour>
    <contour>
      <point x="40" y="296" type="line"/>
      <point x="315" y="296" type="line"/>
      <point x="315" y="358" type="line"/>
      <point x="140" y="358" type="line"/>
      <point x="101" y="363" type="line"/>
      <point x="81" y="354"/>
      <point x="60" y="347"/>
      <point x="40" y="344" type="curve"/>
    </contour>
  </outline>
</glyph>
<glyph name="Uhorn" format="1">
  <advance width="619"/>
  <unicode hex="01AF"/>
  <outline>
    <contour>
      <point x="321" y="-8" type="curve" smooth="yes"/>
      <point x="445" y="-8"/>
      <point x="541" y="70"/>
      <point x="541" y="228" type="curve" smooth="yes"/>
      <point x="541" y="305" type="line" smooth="yes"/>
      <point x="541" y="370"/>
      <point x="542" y="450"/>
      <point x="546" y="485" type="curve"/>
      <point x="532" y="476" type="line"/>
      <point x="580" y="483"/>
      <point x="643" y="507"/>
      <point x="643" y="585" type="curve" smooth="yes"/>
      <point x="643" y="643"/>
      <point x="594" y="645"/>
      <point x="538" y="639" type="curve"/>
      <point x="537" y="585" type="line" smooth="yes"/>
      <point x="536" y="558"/>
      <point x="507" y="529"/>
      <point x="494" y="529" type="curve" smooth="yes"/>
      <point x="465" y="529"/>
      <point x="426" y="530"/>
      <point x="395" y="530" type="curve"/>
      <point x="393" y="475" type="line"/>
      <point x="420" y="475"/>
      <point x="444" y="472"/>
      <point x="455" y="462" type="curve"/>
      <point x="458" y="455"/>
      <point x="461" y="358"/>
      <point x="461" y="305" type="curve" smooth="yes"/>
      <point x="461" y="247" type="line" smooth="yes"/>
      <point x="461" y="130"/>
      <point x="415" y="87"/>
      <point x="346" y="87" type="curve" smooth="yes"/>
      <point x="262" y="87"/>
      <point x="214" y="134"/>
      <point x="215" y="249" type="curve" smooth="yes"/>
      <point x="217" y="321" type="line" smooth="yes"/>
      <point x="219" y="388"/>
      <point x="219" y="440"/>
      <point x="224" y="462" type="curve"/>
      <point x="235" y="472"/>
      <point x="259" y="475"/>
      <point x="286" y="475" type="curve"/>
      <point x="283" y="530" type="line"/>
      <point x="252" y="530"/>
      <point x="203" y="528"/>
      <point x="148" y="528" type="curve" smooth="yes"/>
      <point x="93" y="528"/>
      <point x="43" y="530"/>
      <point x="16" y="530" type="curve"/>
      <point x="13" y="475" type="line"/>
      <point x="37" y="475"/>
      <point x="61" y="472"/>
      <point x="72" y="462" type="curve"/>
      <point x="75" y="455"/>
      <point x="78" y="388"/>
      <point x="78" y="321" type="curve" smooth="yes"/>
      <point x="78" y="232" type="line" smooth="yes"/>
      <point x="78" y="75"/>
      <point x="167" y="-8"/>
    </contour>
    <contour>
      <point x="338" y="0" type="move" name="bottom"/>
    </contour>
    <contour>
      <point x="557" y="8" type="move" name="ogonek"/>
    </contour>
    <contour>
      <point x="340" y="528" type="move" name="top"/>
    </contour>
  </outline>
</glyph>
<glyph name="uhorn" format="1">
  <advance width="489"/>
  <unicode hex="01B0"/>
  <outline>
    <contour>
      <point x="330" y="-12" type="line"/>
      <point x="367" y="4"/>
      <point x="428" y="23"/>
      <point x="491" y="35" type="curve"/>
      <point x="491" y="79" type="line"/>
      <point x="470" y="82"/>
      <point x="456" y="81"/>
      <point x="434" y="89" type="curve"/>
      <point x="431" y="129"/>
      <point x="430" y="143"/>
      <point x="430" y="152" type="curve" smooth="yes"/>
      <point x="430" y="355" type="line"/>
      <point x="382" y="301" type="line"/>
      <point x="459" y="315"/>
      <point x="516" y="356"/>
      <point x="516" y="393" type="curve" smooth="yes"/>
      <point x="516" y="431"/>
      <point x="476" y="457"/>
      <point x="410" y="447" type="curve"/>
      <point x="405" y="387" type="line" smooth="yes"/>
      <point x="403" y="372"/>
      <point x="385" y="354"/>
      <point x="362" y="349" type="curve" smooth="yes"/>
      <point x="320" y="336"/>
      <point x="268" y="323"/>
      <point x="234" y="318" type="curve"/>
      <point x="234" y="273" type="line"/>
      <point x="253" y="270"/>
      <point x="276" y="268"/>
      <point x="295" y="262" type="curve"/>
      <point x="298" y="226"/>
      <point x="298" y="222"/>
      <point x="298" y="171" type="curve" smooth="yes"/>
      <point x="298" y="119" type="line"/>
      <point x="286" y="101"/>
      <point x="266" y="92"/>
      <point x="249" y="92" type="curve" smooth="yes"/>
      <point x="210" y="92"/>
      <point x="188" y="116"/>
      <point x="189" y="162" type="curve" smooth="yes"/>
      <point x="191" y="209" type="line" smooth="yes"/>
      <point x="192" y="255"/>
      <point x="192" y="314"/>
      <point x="195" y="349" type="curve"/>
      <point x="166" y="364" type="line"/>
      <point x="122" y="348"/>
      <point x="58" y="329"/>
      <point x="-6" y="318" type="curve"/>
      <point x="-6" y="273" type="line"/>
      <point x="11" y="271"/>
      <point x="34" y="270"/>
      <point x="53" y="264" type="curve"/>
      <point x="57" y="227"/>
      <point x="56" y="222"/>
      <point x="56" y="214" type="curve" smooth="yes"/>
      <point x="56" y="147" type="line" smooth="yes"/>
      <point x="56" y="44"/>
      <point x="108" y="-9"/>
      <point x="190" y="-9" type="curve" smooth="yes"/>
      <point x="229" y="-9"/>
      <point x="270" y="9"/>
      <point x="300" y="62" type="curve"/>
      <point x="302" y="61" type="line"/>
      <point x="301" y="2" type="line"/>
    </contour>
    <contour>
      <point x="244" y="0" type="move" name="bottom"/>
    </contour>
    <contour>
      <point x="362" y="0" type="move" name="ogonek"/>
    </contour>
    <contour>
      <point x="244" y="359" type="move" name="top"/>
    </contour>
  </outline>
</glyph>
<glyph name="tildecomb" format="1">
  <advance width="480"/>
  <unicode hex="0303"/>
  <outline>
    <contour>
      <point x="357" y="531" type="line"/>
      <point x="342" y="504"/>
      <point x="327" y="495"/>
      <point x="308" y="495" type="curve" smooth="yes"/>
      <point x="278" y="495"/>
      <point x="222" y="528"/>
      <point x="183" y="528" type="curve" smooth="yes"/>
      <point x="136" y="528"/>
      <point x="98" y="490"/>
      <point x="81" y="421" type="curve"/>
      <point x="123" y="395" type="line"/>
      <point x="138" y="422"/>
      <point x="154" y="431"/>
      <point x="172" y="431" type="curve" smooth="yes"/>
      <point x="202" y="431"/>
      <point x="258" y="398"/>
      <point x="297" y="398" type="curve" smooth="yes"/>
      <point x="344" y="398"/>
      <point x="382" y="436"/>
      <point x="399" y="504" type="curve"/>
    </contour>
    <contour>
      <point x="240" y="359" type="move" name="_top"/>
    </contour>
    <contour>
      <point x="240" y="550" type="move" name="top"/>
    </contour>
  </outline>
</glyph>
<glyph name="dotbelowcomb" format="1">
  <advance width="480"/>
  <unicode hex="0323"/>
  <outline>
    <contour>
      <point x="241" y="-178" type="curve" smooth="yes"/>
      <point x="290" y="-178"/>
      <point x="315" y="-141"/>
      <point x="315" y="-103" type="curve" smooth="yes"/>
      <point x="315" y="-64"/>
      <point x="290" y="-28"/>
      <point x="241" y="-28" type="curve" smooth="yes"/>
      <point x="191" y="-28"/>
      <point x="165" y="-64"/>
      <point x="165" y="-103" type="curve" smooth="yes"/>
      <point x="165" y="-141"/>
      <point x="191" y="-178"/>
    </contour>
    <contour>
      <point x="240" y="0" type="move" name="_bottom"/>
    </contour>
    <contour>
      <point x="240" y="-176" type="move" name="bottom"/>
    </contour>
  </outline>
</glyph>
<glyph name="quoteleft" format="1">
  <advance width="266"/>
  <unicode hex="2018"/>
  <outline>
    <contour>
      <point x="220" y="558" type="line"/>
      <point x="89" y="501"/>
      <point x="35" y="417"/>
      <point x="35" y="309" type="curve" smooth="yes"/>
      <point x="35" y="207"/>
      <point x="89" y="173"/>
      <point x="136" y="173" type="curve" smooth="yes"/>
      <point x="188" y="173"/>
      <point x="227" y="211"/>
      <point x="227" y="262" type="curve" smooth="yes"/>
      <point x="227" y="345"/>
      <point x="140" y="338"/>
      <point x="140" y="411" type="curve" smooth="yes"/>
      <point x="140" y="447"/>
      <point x="162" y="482"/>
      <point x="238" y="515" type="curve"/>
    </contour>
  </outline>
</glyph>
<glyph name="quoteright" format="1">
  <advance width="266"/>
  <unicode hex="2019"/>
  <outline>
    <contour>
      <point x="46" y="173" type="line"/>
      <point x="177" y="231"/>
      <point x="231" y="314"/>
      <point x="231" y="423" type="curve" smooth="yes"/>
      <point x="231" y="524"/>
      <point x="177" y="558"/>
      <point x="130" y="558" type="curve" smooth="yes"/>
      <point x="78" y="558"/>
      <point x="39" y="520"/>
      <point x="39" y="469" type="curve" smooth="yes"/>
      <point x="39" y="386"/>
      <point x="126" y="393"/>
      <point x="126" y="320" type="curve" smooth="yes"/>
      <point x="126" y="284"/>
      <point x="104" y="249"/>
      <point x="28" y="216" type="curve"/>
    </contour>
  </outline>
</glyph>
<glyph name="quotesinglbase" format="1">
  <advance width="266"/>
  <unicode hex="201A"/>
  <outline>
    <contour>
      <point x="46" y="-196" type="line"/>
      <point x="177" y="-138"/>
      <point x="231" y="-55"/>
      <point x="231" y="54" type="curve" smooth="yes"/>
      <point x="231" y="155"/>
      <point x="177" y="189"/>
      <point x="130" y="189" type="curve" smooth="yes"/>
      <point x="78" y="189"/>
      <point x="39" y="151"/>
      <point x="39" y="100" type="curve" smooth="yes"/>
      <point x="39" y="17"/>
      <point x="126" y="24"/>
      <point x="126" y="-49" type="curve" smooth="yes"/>
      <point x="126" y="-85"/>
      <point x="104" y="-120"/>
      <point x="28" y="-153" type="curve"/>
    </contour>
  </outline>
</glyph>
<glyph name="bullet" format="1">
  <advance width="336"/>
  <unicode hex="2022"/>
  <outline>
    <contour>
      <point x="168" y="63" type="curve" smooth="yes"/>
      <point x="237" y="63"/>
      <point x="292" y="116"/>
      <point x="292" y="184" type="curve" smooth="yes"/>
      <point x="292" y="254"/>
      <point x="237" y="309"/>
      <point x="168" y="309" type="curve" smooth="yes"/>
      <point x="100" y="309"/>
      <point x="44" y="254"/>
      <point x="44" y="184" type="curve" smooth="yes"/>
      <point x="44" y="116"/>
      <point x="100" y="63"/>
    </contour>
  </outline>
</glyph>
<glyph name="fraction" format="1">
  <advance width="0"/>
  <unicode hex="2044"/>
  <outline>
    <contour>
      <point x="-251" y="46" type="line"/>
      <point x="-194" y="-12" type="line"/>
      <point x="251" y="482" type="line"/>
      <point x="194" y="540" type="line"/>
    </contour>
  </outline>
</glyph>
<glyph name="franc" format="1">
  <advance width="454"/>
  <unicode hex="20A3"/>
  <outline>
    <contour>
      <point x="24" y="-5" type="line"/>
      <point x="48" y="-2"/>
      <point x="114" y="-1"/>
      <point x="157" y="-1" type="curve" smooth="yes"/>
      <point x="199" y="-1"/>
      <point x="267" y="-2"/>
      <point x="294" y="-5" type="curve"/>
      <point x="296" y="51" type="line"/>
      <point x="274" y="54"/>
      <point x="254" y="56"/>
      <point x="223" y="66" type="curve"/>
      <point x="220" y="73"/>
      <point x="217" y="140"/>
      <point x="217" y="146" type="curve" smooth="yes"/>
      <point x="217" y="353" type="line" smooth="yes"/>
      <point x="217" y="422"/>
      <point x="216" y="452"/>
      <point x="217" y="468" type="curve"/>
      <point x="229" y="473"/>
      <point x="250" y="474"/>
      <point x="272" y="474" type="curve" smooth="yes"/>
      <point x="314" y="474" type="line" smooth="yes"/>
      <point x="329" y="474"/>
      <point x="339" y="473"/>
      <point x="357" y="470" type="curve"/>
      <point x="370" y="444"/>
      <point x="376" y="422"/>
      <point x="392" y="385" type="curve"/>
      <point x="448" y="392" type="line"/>
      <point x="421" y="533" type="line"/>
      <point x="390" y="532"/>
      <point x="309" y="528"/>
      <point x="269" y="528" type="curve" smooth="yes"/>
      <point x="150" y="528" type="line" smooth="yes"/>
      <point x="108" y="528"/>
      <point x="47" y="530"/>
      <point x="20" y="532" type="curve"/>
      <point x="17" y="477" type="line"/>
      <point x="41" y="476"/>
      <point x="65" y="472"/>
      <point x="75" y="462" type="curve"/>
      <point x="79" y="455"/>
      <point x="82" y="388"/>
      <point x="82" y="321" type="curve" smooth="yes"/>
      <point x="82" y="207" type="line" smooth="yes"/>
      <point x="82" y="140"/>
      <point x="79" y="73"/>
      <point x="75" y="66" type="curve"/>
      <point x="65" y="57"/>
      <point x="42" y="54"/>
      <point x="21" y="50" type="curve"/>
    </contour>
    <contour>
      <point x="331" y="207" type="curve"/>
      <point x="384" y="207" type="line"/>
      <point x="384" y="228"/>
      <point x="382" y="254"/>
      <point x="382" y="284" type="curve" smooth="yes"/>
      <point x="382" y="314"/>
      <point x="384" y="337"/>
      <point x="384" y="360" type="curve"/>
      <point x="331" y="360" type="line"/>
      <point x="328" y="346"/>
      <point x="323" y="321"/>
      <point x="321" y="316" type="curve"/>
      <point x="313" y="317"/>
      <point x="293" y="315"/>
      <point x="267" y="315" type="curve" smooth="yes"/>
      <point x="234" y="315" type="line" smooth="yes"/>
      <point x="211" y="315"/>
      <point x="192" y="317"/>
      <point x="179" y="318" type="curve"/>
      <point x="179" y="249" type="line"/>
      <point x="192" y="250"/>
      <point x="211" y="253"/>
      <point x="234" y="253" type="curve" smooth="yes"/>
      <point x="267" y="253" type="line" smooth="yes"/>
      <point x="293" y="253"/>
      <point x="313" y="250"/>
      <point x="321" y="251" type="curve"/>
      <point x="323" y="247"/>
      <point x="328" y="220"/>
    </contour>
    <contour>
      <point x="2" y="105" type="line"/>
      <point x="358" y="105" type="line"/>
      <point x="358" y="167" type="line"/>
      <point x="2" y="167" type="line"/>
    </contour>
  </outline>
</glyph>
<glyph name="partialdiff" format="1">
  <advance width="494"/>
  <unicode hex="2202"/>
  <outline>
    <contour>
      <point x="251" y="-9" type="curve" smooth="yes"/>
      <point x="377" y="-9"/>
      <point x="445" y="95"/>
      <point x="445" y="268" type="curve" smooth="yes"/>
      <point x="445" y="431"/>
      <point x="355" y="568"/>
      <point x="176" y="568" type="curve" smooth="yes"/>
      <point x="152" y="568"/>
      <point x="129" y="566"/>
      <point x="107" y="564" type="curve"/>
      <point x="107" y="513" type="line"/>
      <point x="130" y="513" type="line" smooth="yes"/>
      <point x="260" y="513"/>
      <point x="308" y="430"/>
      <point x="307" y="296" type="curve"/>
      <point x="319" y="294" type="line"/>
      <point x="297" y="353"/>
      <point x="264" y="369"/>
      <point x="211" y="369" type="curve" smooth="yes"/>
      <point x="116" y="369"/>
      <point x="47" y="283"/>
      <point x="47" y="177" type="curve" smooth="yes"/>
      <point x="47" y="66"/>
      <point x="123" y="-10"/>
    </contour>
    <contour>
      <point x="248" y="40" type="curve" smooth="yes"/>
      <point x="207" y="40"/>
      <point x="180" y="106"/>
      <point x="183" y="210" type="curve" smooth="yes"/>
      <point x="185" y="265"/>
      <point x="202" y="304"/>
      <point x="233" y="304" type="curve" smooth="yes"/>
      <point x="276" y="304"/>
      <point x="302" y="236"/>
      <point x="299" y="135" type="curve" smooth="yes"/>
      <point x="296" y="82"/>
      <point x="277" y="40"/>
    </contour>
  </outline>
</glyph>
<glyph name="summation" format="1">
  <advance width="482"/>
  <unicode hex="2211"/>
  <outline>
    <contour>
      <point x="377" y="21" type="line"/>
      <point x="369" y="-18"/>
      <point x="364" y="-30"/>
      <point x="357" y="-57" type="curve"/>
      <point x="338" y="-59"/>
      <point x="319" y="-61"/>
      <point x="280" y="-61" type="curve" smooth="yes"/>
      <point x="73" y="-61" type="line"/>
      <point x="82" y="-146" type="line"/>
      <point x="325" y="183" type="line"/>
      <point x="141" y="513" type="line"/>
      <point x="140" y="470" type="line"/>
      <point x="275" y="470" type="line" smooth="yes"/>
      <point x="314" y="470"/>
      <point x="333" y="468"/>
      <point x="352" y="466" type="curve"/>
      <point x="359" y="439"/>
      <point x="364" y="419"/>
      <point x="371" y="372" type="curve"/>
      <point x="433" y="372" type="line"/>
      <point x="435" y="530" type="line"/>
      <point x="406" y="528"/>
      <point x="365" y="528"/>
      <point x="342" y="528" type="curve" smooth="yes"/>
      <point x="84" y="528" type="line" smooth="yes"/>
      <point x="60" y="528"/>
      <point x="36" y="529"/>
      <point x="12" y="530" type="curve"/>
      <point x="12" y="475" type="line"/>
      <point x="220" y="109" type="line"/>
      <point x="243" y="200" type="line"/>
      <point x="14" y="-123" type="line"/>
      <point x="14" y="-178" type="line"/>
      <point x="37" y="-177"/>
      <point x="62" y="-176"/>
      <point x="86" y="-176" type="curve" smooth="yes"/>
      <point x="345" y="-176" type="line" smooth="yes"/>
      <point x="368" y="-176"/>
      <point x="409" y="-176"/>
      <point x="438" y="-178" type="curve"/>
      <point x="436" y="21" type="line"/>
    </contour>
  </outline>
</glyph>
<glyph name="minus" format="1">
  <advance width="480"/>
  <unicode hex="2212"/>
  <outline>
    <contour>
      <point x="435" y="274" type="line"/>
      <point x="45" y="274" type="line"/>
      <point x="45" y="186" type="line"/>
      <point x="435" y="186" type="line"/>
    </contour>
  </outline>
</glyph>
<glyph name="integral" format="1">
  <advance width="480"/>
  <unicode hex="222B"/>
  <outline>
    <contour>
      <point x="371" y="560" type="curve" smooth="yes"/>
      <point x="253" y="560"/>
      <point x="181" y="508"/>
      <point x="181" y="372" type="curve" smooth="yes"/>
      <point x="181" y="-23" type="line" smooth="yes"/>
      <point x="181" y="-93"/>
      <point x="157" y="-111"/>
      <point x="101" y="-111" type="curve" smooth="yes"/>
      <point x="79" y="-111"/>
      <point x="72" y="-110"/>
      <point x="77" y="-109" type="curve"/>
      <point x="77" y="-180" type="line"/>
      <point x="78" y="-183"/>
      <point x="90" y="-185"/>
      <point x="117" y="-185" type="curve" smooth="yes"/>
      <point x="221" y="-185"/>
      <point x="300" y="-149"/>
      <point x="300" y="2" type="curve" smooth="yes"/>
      <point x="300" y="397" type="line" smooth="yes"/>
      <point x="300" y="454"/>
      <point x="321" y="485"/>
      <point x="389" y="485" type="curve" smooth="yes"/>
      <point x="391" y="485"/>
      <point x="399" y="485"/>
      <point x="411" y="484" type="curve"/>
      <point x="411" y="554" type="line"/>
      <point x="392" y="558"/>
      <point x="380" y="560"/>
    </contour>
  </outline>
</glyph>
<glyph name="approxequal" format="1">
  <advance width="480"/>
  <unicode hex="2248"/>
  <outline>
    <contour>
      <point x="394" y="362" type="line"/>
      <point x="380" y="336"/>
      <point x="362" y="322"/>
      <point x="338" y="322" type="curve" smooth="yes"/>
      <point x="298" y="322"/>
      <point x="218" y="378"/>
      <point x="154" y="378" type="curve" smooth="yes"/>
      <point x="105" y="378"/>
      <point x="62" y="342"/>
      <point x="45" y="283" type="curve"/>
      <point x="86" y="255" type="line"/>
      <point x="101" y="282"/>
      <point x="120" y="296"/>
      <point x="142" y="296" type="curve" smooth="yes"/>
      <point x="182" y="296"/>
      <point x="262" y="239"/>
      <point x="326" y="239" type="curve" smooth="yes"/>
      <point x="375" y="239"/>
      <point x="418" y="276"/>
      <point x="435" y="333" type="curve"/>
    </contour>
    <contour>
      <point x="394" y="202" type="line"/>
      <point x="380" y="176"/>
      <point x="362" y="162"/>
      <point x="338" y="162" type="curve" smooth="yes"/>
      <point x="298" y="162"/>
      <point x="218" y="218"/>
      <point x="154" y="218" type="curve" smooth="yes"/>
      <point x="105" y="218"/>
      <point x="62" y="182"/>
      <point x="45" y="123" type="curve"/>
      <point x="86" y="95" type="line"/>
      <point x="101" y="122"/>
      <point x="120" y="136"/>
      <point x="142" y="136" type="curve" smooth="yes"/>
      <point x="182" y="136"/>
      <point x="262" y="79"/>
      <point x="326" y="79" type="curve" smooth="yes"/>
      <point x="375" y="79"/>
      <point x="418" y="116"/>
      <point x="435" y="173" type="curve"/>
    </contour>
  </outline>
</glyph>
<glyph name="notequal" format="1">
  <advance width="480"/>
  <unicode hex="2260"/>
  <outline>
    <contour>
      <point x="285" y="457" type="line"/>
      <point x="111" y="36" type="line"/>
      <point x="187" y="3" type="line"/>
      <point x="361" y="423" type="line"/>
    </contour>
    <contour>
      <point x="435" y="354" type="line"/>
      <point x="45" y="354" type="line"/>
      <point x="45" y="266" type="line"/>
      <point x="435" y="266" type="line"/>
    </contour>
    <contour>
      <point x="435" y="194" type="line"/>
      <point x="45" y="194" type="line"/>
      <point x="45" y="106" type="line"/>
      <point x="435" y="106" type="line"/>
    </contour>
  </outline>
</glyph>
<glyph name="lozenge" format="1">
  <advance width="480"/>
  <unicode hex="25CA"/>
  <outline>
    <contour>
      <point x="444" y="223" type="line"/>
      <point x="285" y="606" type="line"/>
      <point x="195" y="606" type="line"/>
      <point x="36" y="223" type="line"/>
      <point x="195" y="-160" type="line"/>
      <point x="285" y="-160" type="line"/>
    </contour>
    <contour>
      <point x="350" y="223" type="line"/>
      <point x="240" y="-49" type="line"/>
      <point x="130" y="223" type="line"/>
      <point x="240" y="496" type="line"/>
    </contour>
  </outline>
</glyph>
<glyph name="Oogonek" format="1">
  <advance width="646"/>
  <outline>
    <contour>
      <point x="346" y="-178" type="curve" smooth="yes"/>
      <point x="386" y="-178"/>
      <point x="419" y="-165"/>
      <point x="444" y="-138" type="curve"/>
      <point x="418" y="-98" type="line"/>
      <point x="397" y="-118"/>
      <point x="380" y="-125"/>
      <point x="364" y="-125" type="curve" smooth="yes"/>
      <point x="343" y="-125"/>
      <point x="326" y="-111"/>
      <point x="326" y="-84" type="curve" smooth="yes"/>
      <point x="326" y="-57"/>
      <point x="347" y="-19"/>
      <point x="427" y="12" type="curve" smooth="yes"/>
      <point x="520" y="48"/>
      <point x="607" y="130"/>
      <point x="607" y="273" type="curve" smooth="yes"/>
      <point x="607" y="429"/>
      <point x="492" y="536"/>
      <point x="329" y="536" type="curve" smooth="yes"/>
      <point x="162" y="536"/>
      <point x="39" y="418"/>
      <point x="39" y="255" type="curve" smooth="yes"/>
      <point x="39" y="101"/>
      <point x="162" y="-8"/>
      <point x="330" y="-8" type="curve" smooth="yes"/>
      <point x="348" y="-8" type="line"/>
      <point x="377" y="24" type="line"/>
      <point x="280" y="-6"/>
      <point x="234" y="-48"/>
      <point x="234" y="-90" type="curve" smooth="yes"/>
      <point x="234" y="-143"/>
      <point x="288" y="-178"/>
    </contour>
    <contour>
      <point x="335" y="67" type="curve" smooth="yes"/>
      <point x="255" y="67"/>
      <point x="198" y="156"/>
      <point x="198" y="286" type="curve" smooth="yes"/>
      <point x="198" y="397"/>
      <point x="241" y="470"/>
      <point x="318" y="470" type="curve" smooth="yes"/>
      <point x="399" y="470"/>
      <point x="449" y="382"/>
      <point x="449" y="249" type="curve" smooth="yes"/>
      <point x="449" y="128"/>
      <point x="412" y="67"/>
    </contour>
    <contour>
      <point x="323" y="264" type="move" name="center"/>
    </contour>
    <contour>
      <point x="323" y="528" type="move" name="top"/>
    </contour>
    <contour>
      <point x="16" y="528" type="move" name="topleft"/>
    </contour>
    <contour>
      <point x="630" y="528" type="move" name="topright"/>
    </contour>
  </outline>
</glyph>
<glyph name="acutecomb_dotaccentcomb.case" format="1">
  <advance width="480"/>
  <outline>
    <contour>
      <point x="220" y="655" type="curve" smooth="yes"/>
      <point x="261" y="655"/>
      <point x="283" y="687"/>
      <point x="283" y="718" type="curve" smooth="yes"/>
      <point x="283" y="749"/>
      <point x="261" y="781"/>
      <point x="220" y="781" type="curve" smooth="yes"/>
      <point x="176" y="781"/>
      <point x="154" y="749"/>
      <point x="154" y="718" type="curve" smooth="yes"/>
      <point x="154" y="687"/>
      <point x="176" y="655"/>
    </contour>
    <contour>
      <point x="271" y="556" type="line"/>
      <point x="415" y="667" type="line"/>
      <point x="298" y="686" type="line"/>
      <point x="209" y="578" type="line"/>
    </contour>
    <contour>
      <point x="240" y="528" type="move" name="_top"/>
    </contour>
  </outline>
</glyph>
<glyph name="apple" format="1">
  <advance width="714"/>
  <outline>
    <contour>
      <point x="633" y="137" type="curve"/>
      <point x="633" y="138" type="line"/>
      <point x="631" y="172"/>
      <point x="617" y="195"/>
      <point x="598" y="195" type="curve" smooth="yes"/>
      <point x="589" y="195"/>
      <point x="579" y="189"/>
      <point x="554" y="167" type="curve" smooth="yes"/>
      <point x="549" y="162" type="line"/>
      <point x="543" y="158" type="line"/>
      <point x="551" y="176" type="line"/>
      <point x="552" y="178"/>
      <point x="551" y="180"/>
      <point x="550" y="182" type="curve" smooth="yes"/>
      <point x="549" y="182"/>
      <point x="548" y="184"/>
      <point x="544" y="186" type="curve"/>
      <point x="558" y="232"/>
      <point x="570" y="263"/>
      <point x="592" y="302" type="curve" smooth="yes"/>
      <point x="598" y="311"/>
      <point x="603" y="319"/>
      <point x="609" y="328" type="curve"/>
      <point x="626" y="352"/>
      <point x="630" y="363"/>
      <point x="630" y="378" type="curve" smooth="yes"/>
      <point x="630" y="412"/>
      <point x="596" y="451"/>
      <point x="538" y="483" type="curve" smooth="yes"/>
      <point x="479" y="516"/>
      <point x="406" y="535"/>
      <point x="336" y="535" type="curve" smooth="yes"/>
      <point x="271" y="535"/>
      <point x="230" y="509"/>
      <point x="224" y="465" type="curve"/>
      <point x="221" y="450"/>
      <point x="222" y="427"/>
      <point x="224" y="402" type="curve" smooth="yes"/>
      <point x="226" y="360"/>
      <point x="226" y="310"/>
      <point x="223" y="294" type="curve"/>
      <point x="222" y="285" type="line"/>
      <point x="221" y="285"/>
      <point x="219" y="284"/>
      <point x="218" y="284" type="curve" smooth="yes"/>
      <point x="215" y="284"/>
      <point x="214" y="283"/>
      <point x="214" y="282" type="curve"/>
      <point x="211" y="277"/>
      <point x="208" y="269"/>
      <point x="206" y="260" type="curve"/>
      <point x="204" y="262"/>
      <point x="202" y="262"/>
      <point x="200" y="264" type="curve"/>
      <point x="180" y="279"/>
      <point x="161" y="287"/>
      <point x="142" y="287" type="curve" smooth="yes"/>
      <point x="102" y="287"/>
      <point x="80" y="258"/>
      <point x="80" y="209" type="curve" smooth="yes"/>
      <point x="80" y="206"/>
      <point x="80" y="204"/>
      <point x="80" y="202" type="curve" smooth="yes"/>
      <point x="80" y="200" type="line" smooth="yes"/>
      <point x="80" y="198"/>
      <point x="81" y="195"/>
      <point x="81" y="194" type="curve" smooth="yes"/>
      <point x="81" y="191" type="line"/>
      <point x="82" y="190"/>
      <point x="82" y="190"/>
      <point x="82" y="186" type="curve"/>
      <point x="82" y="185"/>
      <point x="82" y="185"/>
      <point x="82" y="181" type="curve" smooth="yes"/>
      <point x="82" y="179" type="line"/>
      <point x="90" y="146"/>
      <point x="108" y="112"/>
      <point x="134" y="85" type="curve"/>
      <point x="141" y="78"/>
      <point x="149" y="71"/>
      <point x="167" y="58" type="curve" smooth="yes"/>
      <point x="225" y="16"/>
      <point x="310" y="-7"/>
      <point x="406" y="-7" type="curve" smooth="yes"/>
      <point x="539" y="-7"/>
      <point x="634" y="49"/>
      <point x="634" y="128" type="curve" smooth="yes"/>
      <point x="634" y="134"/>
      <point x="634" y="135"/>
    </contour>
    <contour>
      <point x="494" y="117" type="curve"/>
      <point x="481" y="123"/>
      <point x="467" y="129"/>
      <point x="451" y="134" type="curve"/>
      <point x="463" y="127"/>
      <point x="475" y="119"/>
      <point x="486" y="112" type="curve"/>
      <point x="486" y="111"/>
      <point x="485" y="110"/>
      <point x="484" y="110" type="curve"/>
      <point x="470" y="116"/>
      <point x="458" y="120"/>
      <point x="447" y="124" type="curve"/>
      <point x="460" y="118"/>
      <point x="468" y="113"/>
      <point x="478" y="106" type="curve"/>
      <point x="474" y="103" type="line"/>
      <point x="462" y="109"/>
      <point x="452" y="112"/>
      <point x="444" y="114" type="curve"/>
      <point x="452" y="110"/>
      <point x="462" y="105"/>
      <point x="470" y="100" type="curve"/>
      <point x="465" y="97" type="line"/>
      <point x="456" y="99"/>
      <point x="448" y="102"/>
      <point x="441" y="105" type="curve"/>
      <point x="460" y="94" type="line"/>
      <point x="458" y="93"/>
      <point x="456" y="91"/>
      <point x="454" y="90" type="curve"/>
      <point x="446" y="92"/>
      <point x="441" y="94"/>
      <point x="437" y="95" type="curve"/>
      <point x="441" y="93"/>
      <point x="446" y="90"/>
      <point x="450" y="87" type="curve"/>
      <point x="447" y="86"/>
      <point x="445" y="84"/>
      <point x="442" y="82" type="curve"/>
      <point x="434" y="85" type="line"/>
      <point x="436" y="84"/>
      <point x="438" y="82"/>
      <point x="440" y="82" type="curve"/>
      <point x="435" y="78"/>
      <point x="430" y="76"/>
      <point x="424" y="73" type="curve"/>
      <point x="424" y="74"/>
      <point x="423" y="74"/>
      <point x="423" y="74" type="curve"/>
      <point x="425" y="78" type="line"/>
      <point x="450" y="127"/>
      <point x="468" y="187"/>
      <point x="470" y="224" type="curve"/>
      <point x="484" y="217"/>
      <point x="502" y="204"/>
      <point x="523" y="190" type="curve"/>
      <point x="525" y="190"/>
      <point x="525" y="190"/>
      <point x="526" y="188" type="curve"/>
      <point x="510" y="197"/>
      <point x="494" y="205"/>
      <point x="478" y="213" type="curve"/>
      <point x="492" y="203"/>
      <point x="507" y="191"/>
      <point x="521" y="179" type="curve"/>
      <point x="506" y="189"/>
      <point x="490" y="195"/>
      <point x="475" y="203" type="curve"/>
      <point x="498" y="186"/>
      <point x="509" y="178"/>
      <point x="520" y="170" type="curve"/>
      <point x="504" y="178"/>
      <point x="488" y="186"/>
      <point x="471" y="194" type="curve"/>
      <point x="486" y="182"/>
      <point x="502" y="171"/>
      <point x="517" y="159" type="curve"/>
      <point x="501" y="169"/>
      <point x="485" y="176"/>
      <point x="468" y="184" type="curve"/>
      <point x="483" y="173"/>
      <point x="499" y="162"/>
      <point x="514" y="150" type="curve"/>
      <point x="498" y="159"/>
      <point x="482" y="166"/>
      <point x="465" y="174" type="curve"/>
      <point x="481" y="163"/>
      <point x="496" y="153"/>
      <point x="510" y="141" type="curve"/>
      <point x="494" y="149"/>
      <point x="478" y="157"/>
      <point x="462" y="164" type="curve"/>
      <point x="477" y="154"/>
      <point x="493" y="143"/>
      <point x="507" y="132" type="curve"/>
      <point x="494" y="138"/>
      <point x="478" y="146"/>
      <point x="458" y="154" type="curve"/>
      <point x="486" y="136"/>
      <point x="493" y="130"/>
      <point x="502" y="123" type="curve"/>
      <point x="483" y="133"/>
      <point x="467" y="140"/>
      <point x="454" y="144" type="curve"/>
      <point x="465" y="138"/>
      <point x="475" y="131"/>
      <point x="495" y="118" type="curve"/>
      <point x="494" y="118"/>
      <point x="494" y="118"/>
    </contour>
    <contour>
      <point x="215" y="262" type="curve"/>
      <point x="215" y="262"/>
      <point x="216" y="263"/>
      <point x="216" y="265" type="curve"/>
      <point x="256" y="266"/>
      <point x="298" y="261"/>
      <point x="346" y="250" type="curve"/>
      <point x="302" y="262"/>
      <point x="260" y="270"/>
      <point x="219" y="271" type="curve"/>
      <point x="220" y="272"/>
      <point x="220" y="274"/>
      <point x="221" y="274" type="curve"/>
      <point x="249" y="276"/>
      <point x="279" y="274"/>
      <point x="321" y="266" type="curve" smooth="yes"/>
      <point x="374" y="257"/>
      <point x="434" y="238"/>
      <point x="462" y="221" type="curve"/>
      <point x="461" y="220"/>
      <point x="461" y="220"/>
      <point x="461" y="218" type="curve"/>
      <point x="430" y="230"/>
      <point x="396" y="239"/>
      <point x="346" y="250" type="curve"/>
      <point x="389" y="239"/>
      <point x="426" y="226"/>
      <point x="460" y="211" type="curve"/>
      <point x="460" y="209"/>
      <point x="460" y="207"/>
      <point x="459" y="206" type="curve"/>
      <point x="421" y="221"/>
      <point x="382" y="230"/>
      <point x="342" y="240" type="curve"/>
      <point x="382" y="229"/>
      <point x="421" y="215"/>
      <point x="458" y="200" type="curve"/>
      <point x="458" y="197"/>
      <point x="458" y="196"/>
      <point x="457" y="195" type="curve"/>
      <point x="426" y="207"/>
      <point x="390" y="218"/>
      <point x="338" y="229" type="curve"/>
      <point x="382" y="216"/>
      <point x="421" y="202"/>
      <point x="456" y="187" type="curve"/>
      <point x="455" y="186"/>
      <point x="455" y="186"/>
      <point x="455" y="184" type="curve"/>
      <point x="420" y="197"/>
      <point x="380" y="208"/>
      <point x="334" y="218" type="curve"/>
      <point x="382" y="204"/>
      <point x="420" y="190"/>
      <point x="453" y="176" type="curve"/>
      <point x="451" y="173" type="line"/>
      <point x="414" y="186"/>
      <point x="374" y="197"/>
      <point x="329" y="207" type="curve"/>
      <point x="378" y="193"/>
      <point x="417" y="179"/>
      <point x="450" y="164" type="curve"/>
      <point x="450" y="163"/>
      <point x="449" y="162"/>
      <point x="449" y="162" type="curve"/>
      <point x="411" y="175"/>
      <point x="372" y="186"/>
      <point x="325" y="197" type="curve"/>
      <point x="365" y="185"/>
      <point x="403" y="171"/>
      <point x="446" y="154" type="curve"/>
      <point x="446" y="150" type="line"/>
      <point x="406" y="164"/>
      <point x="366" y="176"/>
      <point x="321" y="186" type="curve"/>
      <point x="366" y="173"/>
      <point x="406" y="158"/>
      <point x="442" y="142" type="curve"/>
      <point x="442" y="141"/>
      <point x="442" y="141"/>
      <point x="441" y="140" type="curve"/>
      <point x="399" y="154"/>
      <point x="358" y="166"/>
      <point x="317" y="175" type="curve"/>
      <point x="354" y="165"/>
      <point x="394" y="150"/>
      <point x="438" y="130" type="curve"/>
      <point x="438" y="129" type="line"/>
      <point x="390" y="146"/>
      <point x="350" y="157"/>
      <point x="313" y="164" type="curve"/>
      <point x="352" y="152"/>
      <point x="393" y="137"/>
      <point x="434" y="119" type="curve"/>
      <point x="434" y="118" type="line"/>
      <point x="390" y="133"/>
      <point x="350" y="144"/>
      <point x="308" y="154" type="curve"/>
      <point x="346" y="142"/>
      <point x="386" y="127"/>
      <point x="430" y="109" type="curve"/>
      <point x="429" y="108" type="line"/>
      <point x="383" y="123"/>
      <point x="342" y="135"/>
      <point x="304" y="143" type="curve"/>
      <point x="340" y="132"/>
      <point x="378" y="118"/>
      <point x="425" y="98" type="curve"/>
      <point x="424" y="98" type="line"/>
      <point x="383" y="110"/>
      <point x="342" y="123"/>
      <point x="300" y="133" type="curve"/>
      <point x="341" y="119"/>
      <point x="380" y="103"/>
      <point x="419" y="87" type="curve"/>
      <point x="370" y="103"/>
      <point x="333" y="114"/>
      <point x="296" y="122" type="curve"/>
      <point x="326" y="112"/>
      <point x="356" y="101"/>
      <point x="414" y="77" type="curve"/>
      <point x="377" y="88"/>
      <point x="339" y="100"/>
      <point x="302" y="108" type="curve"/>
      <point x="294" y="110"/>
      <point x="287" y="113"/>
      <point x="281" y="114" type="curve"/>
      <point x="251" y="123"/>
      <point x="222" y="132"/>
      <point x="194" y="140" type="curve"/>
      <point x="229" y="134"/>
      <point x="263" y="128"/>
      <point x="298" y="122" type="curve"/>
      <point x="269" y="130"/>
      <point x="237" y="139"/>
      <point x="194" y="151" type="curve"/>
      <point x="230" y="146"/>
      <point x="266" y="138"/>
      <point x="302" y="132" type="curve"/>
      <point x="269" y="142"/>
      <point x="234" y="152"/>
      <point x="193" y="162" type="curve"/>
      <point x="224" y="158"/>
      <point x="256" y="153"/>
      <point x="306" y="143" type="curve"/>
      <point x="268" y="154"/>
      <point x="231" y="164"/>
      <point x="193" y="173" type="curve"/>
      <point x="234" y="168"/>
      <point x="274" y="162"/>
      <point x="310" y="154" type="curve"/>
      <point x="278" y="162"/>
      <point x="240" y="172"/>
      <point x="191" y="183" type="curve"/>
      <point x="234" y="179"/>
      <point x="275" y="173"/>
      <point x="314" y="164" type="curve"/>
      <point x="279" y="174"/>
      <point x="240" y="184"/>
      <point x="194" y="194" type="curve"/>
      <point x="241" y="189"/>
      <point x="281" y="182"/>
      <point x="318" y="174" type="curve"/>
      <point x="276" y="186"/>
      <point x="236" y="196"/>
      <point x="196" y="203" type="curve"/>
      <point x="197" y="204" type="line"/>
      <point x="249" y="198"/>
      <point x="288" y="193"/>
      <point x="322" y="186" type="curve"/>
      <point x="288" y="196"/>
      <point x="248" y="205"/>
      <point x="200" y="213" type="curve"/>
      <point x="200" y="214" type="line"/>
      <point x="238" y="211"/>
      <point x="280" y="206"/>
      <point x="326" y="196" type="curve"/>
      <point x="286" y="208"/>
      <point x="244" y="217"/>
      <point x="202" y="222" type="curve"/>
      <point x="202" y="223"/>
      <point x="202" y="223"/>
      <point x="203" y="224" type="curve"/>
      <point x="241" y="222"/>
      <point x="281" y="217"/>
      <point x="330" y="207" type="curve"/>
      <point x="290" y="219"/>
      <point x="247" y="227"/>
      <point x="206" y="232" type="curve"/>
      <point x="206" y="234" type="line"/>
      <point x="249" y="233"/>
      <point x="292" y="227"/>
      <point x="334" y="218" type="curve"/>
      <point x="293" y="230"/>
      <point x="251" y="238"/>
      <point x="209" y="242" type="curve"/>
      <point x="209" y="242"/>
      <point x="210" y="243"/>
      <point x="210" y="244" type="curve"/>
      <point x="248" y="244"/>
      <point x="290" y="239"/>
      <point x="338" y="229" type="curve"/>
      <point x="301" y="241"/>
      <point x="258" y="248"/>
      <point x="212" y="251" type="curve"/>
      <point x="213" y="254" type="line"/>
      <point x="255" y="254"/>
      <point x="298" y="250"/>
      <point x="342" y="239" type="curve"/>
      <point x="299" y="252"/>
      <point x="257" y="259"/>
    </contour>
    <contour>
      <point x="336" y="526" type="line"/>
      <point x="371" y="526"/>
      <point x="407" y="522"/>
      <point x="442" y="512" type="curve"/>
      <point x="456" y="507"/>
      <point x="470" y="502"/>
      <point x="486" y="496" type="curve"/>
      <point x="515" y="482"/>
      <point x="530" y="474"/>
      <point x="542" y="465" type="curve" smooth="yes"/>
      <point x="560" y="454"/>
      <point x="574" y="440"/>
      <point x="586" y="425" type="curve"/>
      <point x="572" y="438"/>
      <point x="558" y="449"/>
      <point x="543" y="456" type="curve"/>
      <point x="526" y="467"/>
      <point x="506" y="476"/>
      <point x="485" y="483" type="curve" smooth="yes"/>
      <point x="463" y="490"/>
      <point x="443" y="496"/>
      <point x="424" y="500" type="curve"/>
      <point x="446" y="494"/>
      <point x="466" y="486"/>
      <point x="483" y="478" type="curve" smooth="yes"/>
      <point x="506" y="469"/>
      <point x="523" y="459"/>
      <point x="538" y="449" type="curve" smooth="yes"/>
      <point x="551" y="440"/>
      <point x="566" y="427"/>
      <point x="579" y="413" type="curve"/>
      <point x="562" y="426"/>
      <point x="550" y="434"/>
      <point x="538" y="441" type="curve" smooth="yes"/>
      <point x="516" y="452"/>
      <point x="498" y="460"/>
      <point x="482" y="466" type="curve"/>
      <point x="463" y="473"/>
      <point x="444" y="478"/>
      <point x="422" y="482" type="curve"/>
      <point x="447" y="474"/>
      <point x="465" y="468"/>
      <point x="480" y="461" type="curve"/>
      <point x="501" y="452"/>
      <point x="518" y="442"/>
      <point x="533" y="432" type="curve" smooth="yes"/>
      <point x="546" y="422"/>
      <point x="559" y="412"/>
      <point x="572" y="399" type="curve"/>
      <point x="559" y="408"/>
      <point x="547" y="416"/>
      <point x="533" y="425" type="curve" smooth="yes"/>
      <point x="515" y="434"/>
      <point x="497" y="442"/>
      <point x="478" y="449" type="curve"/>
      <point x="462" y="455"/>
      <point x="444" y="460"/>
      <point x="421" y="465" type="curve"/>
      <point x="440" y="459"/>
      <point x="458" y="452"/>
      <point x="477" y="445" type="curve"/>
      <point x="494" y="436"/>
      <point x="512" y="427"/>
      <point x="528" y="416" type="curve"/>
      <point x="541" y="408"/>
      <point x="554" y="398"/>
      <point x="566" y="385" type="curve"/>
      <point x="555" y="392"/>
      <point x="543" y="400"/>
      <point x="528" y="409" type="curve"/>
      <point x="511" y="417"/>
      <point x="495" y="424"/>
      <point x="474" y="432" type="curve"/>
      <point x="458" y="438"/>
      <point x="441" y="442"/>
      <point x="419" y="447" type="curve"/>
      <point x="442" y="441"/>
      <point x="459" y="434"/>
      <point x="473" y="427" type="curve"/>
      <point x="487" y="422"/>
      <point x="504" y="412"/>
      <point x="522" y="400" type="curve" smooth="yes"/>
      <point x="536" y="391"/>
      <point x="548" y="382"/>
      <point x="559" y="370" type="curve"/>
      <point x="550" y="377"/>
      <point x="538" y="384"/>
      <point x="522" y="392" type="curve"/>
      <point x="506" y="401"/>
      <point x="489" y="409"/>
      <point x="471" y="415" type="curve"/>
      <point x="452" y="422"/>
      <point x="436" y="426"/>
      <point x="418" y="430" type="curve"/>
      <point x="439" y="423"/>
      <point x="455" y="417"/>
      <point x="470" y="410" type="curve"/>
      <point x="488" y="402"/>
      <point x="503" y="394"/>
      <point x="518" y="384" type="curve" smooth="yes"/>
      <point x="531" y="375"/>
      <point x="543" y="366"/>
      <point x="554" y="355" type="curve"/>
      <point x="542" y="363"/>
      <point x="531" y="370"/>
      <point x="518" y="376" type="curve" smooth="yes"/>
      <point x="499" y="386"/>
      <point x="482" y="394"/>
      <point x="468" y="398" type="curve"/>
      <point x="454" y="402"/>
      <point x="438" y="407"/>
      <point x="415" y="413" type="curve"/>
      <point x="437" y="406"/>
      <point x="454" y="399"/>
      <point x="466" y="394" type="curve"/>
      <point x="483" y="386"/>
      <point x="497" y="378"/>
      <point x="513" y="368" type="curve"/>
      <point x="530" y="356"/>
      <point x="540" y="348"/>
      <point x="548" y="340" type="curve"/>
      <point x="537" y="348"/>
      <point x="525" y="354"/>
      <point x="513" y="360" type="curve" smooth="yes"/>
      <point x="500" y="366"/>
      <point x="486" y="373"/>
      <point x="465" y="381" type="curve"/>
      <point x="445" y="387"/>
      <point x="429" y="391"/>
      <point x="414" y="394" type="curve"/>
      <point x="435" y="389"/>
      <point x="450" y="382"/>
      <point x="462" y="376" type="curve"/>
      <point x="478" y="369"/>
      <point x="494" y="361"/>
      <point x="508" y="352" type="curve"/>
      <point x="522" y="342"/>
      <point x="534" y="334"/>
      <point x="543" y="325" type="curve"/>
      <point x="530" y="333"/>
      <point x="518" y="338"/>
      <point x="508" y="343" type="curve"/>
      <point x="496" y="350"/>
      <point x="482" y="357"/>
      <point x="462" y="364" type="curve"/>
      <point x="446" y="369"/>
      <point x="429" y="374"/>
      <point x="412" y="378" type="curve"/>
      <point x="430" y="372"/>
      <point x="444" y="366"/>
      <point x="459" y="359" type="curve"/>
      <point x="474" y="353"/>
      <point x="489" y="345"/>
      <point x="503" y="335" type="curve"/>
      <point x="516" y="328"/>
      <point x="528" y="319"/>
      <point x="538" y="310" type="curve"/>
      <point x="518" y="320"/>
      <point x="511" y="324"/>
      <point x="502" y="328" type="curve"/>
      <point x="490" y="334"/>
      <point x="476" y="340"/>
      <point x="458" y="346" type="curve"/>
      <point x="442" y="352"/>
      <point x="430" y="355"/>
      <point x="410" y="360" type="curve"/>
      <point x="428" y="354"/>
      <point x="439" y="350"/>
      <point x="456" y="342" type="curve"/>
      <point x="474" y="334"/>
      <point x="487" y="326"/>
      <point x="498" y="319" type="curve"/>
      <point x="510" y="312"/>
      <point x="522" y="304"/>
      <point x="533" y="294" type="curve"/>
      <point x="523" y="300"/>
      <point x="514" y="305"/>
      <point x="498" y="312" type="curve" smooth="yes"/>
      <point x="484" y="318"/>
      <point x="469" y="324"/>
      <point x="454" y="330" type="curve"/>
      <point x="410" y="343" type="line"/>
      <point x="424" y="338"/>
      <point x="438" y="332"/>
      <point x="453" y="325" type="curve" smooth="yes"/>
      <point x="470" y="317"/>
      <point x="483" y="310"/>
      <point x="494" y="303" type="curve"/>
      <point x="502" y="298"/>
      <point x="512" y="292"/>
      <point x="528" y="278" type="curve"/>
      <point x="515" y="286"/>
      <point x="506" y="290"/>
      <point x="493" y="296" type="curve" smooth="yes"/>
      <point x="479" y="302"/>
      <point x="466" y="307"/>
      <point x="451" y="313" type="curve"/>
      <point x="434" y="318"/>
      <point x="420" y="322"/>
      <point x="407" y="325" type="curve"/>
      <point x="423" y="320"/>
      <point x="438" y="314"/>
      <point x="450" y="308" type="curve" smooth="yes"/>
      <point x="462" y="302"/>
      <point x="476" y="294"/>
      <point x="489" y="287" type="curve" smooth="yes"/>
      <point x="502" y="280"/>
      <point x="513" y="272"/>
      <point x="524" y="262" type="curve"/>
      <point x="512" y="268"/>
      <point x="501" y="274"/>
      <point x="488" y="279" type="curve"/>
      <point x="474" y="286"/>
      <point x="462" y="291"/>
      <point x="447" y="295" type="curve"/>
      <point x="432" y="300"/>
      <point x="418" y="304"/>
      <point x="406" y="307" type="curve"/>
      <point x="428" y="299"/>
      <point x="437" y="296"/>
      <point x="446" y="291" type="curve" smooth="yes"/>
      <point x="459" y="285"/>
      <point x="471" y="278"/>
      <point x="484" y="271" type="curve"/>
      <point x="502" y="260"/>
      <point x="511" y="254"/>
      <point x="519" y="247" type="curve"/>
      <point x="519" y="246"/>
      <point x="520" y="246"/>
      <point x="520" y="246" type="curve"/>
      <point x="483" y="263" type="line" smooth="yes"/>
      <point x="470" y="269"/>
      <point x="457" y="274"/>
      <point x="444" y="278" type="curve"/>
      <point x="430" y="282"/>
      <point x="418" y="287"/>
      <point x="404" y="290" type="curve"/>
      <point x="418" y="286"/>
      <point x="430" y="280"/>
      <point x="442" y="274" type="curve"/>
      <point x="455" y="268"/>
      <point x="467" y="262"/>
      <point x="479" y="255" type="curve"/>
      <point x="492" y="247"/>
      <point x="502" y="240"/>
      <point x="514" y="232" type="curve"/>
      <point x="514" y="231"/>
      <point x="516" y="230"/>
      <point x="518" y="230" type="curve"/>
      <point x="504" y="236"/>
      <point x="492" y="242"/>
      <point x="478" y="247" type="curve" smooth="yes"/>
      <point x="441" y="262" type="line"/>
      <point x="426" y="266"/>
      <point x="417" y="270"/>
      <point x="402" y="273" type="curve"/>
      <point x="417" y="267"/>
      <point x="426" y="263"/>
      <point x="439" y="257" type="curve" smooth="yes"/>
      <point x="453" y="251"/>
      <point x="463" y="246"/>
      <point x="474" y="238" type="curve" smooth="yes"/>
      <point x="494" y="227"/>
      <point x="500" y="223"/>
      <point x="507" y="218" type="curve"/>
      <point x="512" y="216"/>
      <point x="513" y="215"/>
      <point x="515" y="213" type="curve"/>
      <point x="504" y="218"/>
      <point x="494" y="222"/>
      <point x="483" y="227" type="curve"/>
      <point x="468" y="235" type="line" smooth="yes"/>
      <point x="466" y="236"/>
      <point x="465" y="236"/>
      <point x="463" y="235" type="curve"/>
      <point x="455" y="238"/>
      <point x="446" y="241"/>
      <point x="437" y="244" type="curve"/>
      <point x="426" y="247"/>
      <point x="416" y="251"/>
      <point x="406" y="254" type="curve"/>
      <point x="374" y="266"/>
      <point x="333" y="275"/>
      <point x="292" y="281" type="curve"/>
      <point x="280" y="284"/>
      <point x="270" y="286"/>
      <point x="262" y="287" type="curve" smooth="yes"/>
      <point x="254" y="289"/>
      <point x="246" y="290"/>
      <point x="238" y="292" type="curve"/>
      <point x="246" y="292" type="line"/>
      <point x="253" y="293"/>
      <point x="259" y="294"/>
      <point x="265" y="294" type="curve" smooth="yes"/>
      <point x="266" y="294" type="line"/>
      <point x="266" y="294"/>
      <point x="283" y="295"/>
      <point x="287" y="295" type="curve"/>
      <point x="308" y="295" type="line"/>
      <point x="299" y="298"/>
      <point x="290" y="299"/>
      <point x="282" y="301" type="curve"/>
      <point x="277" y="302"/>
      <point x="272" y="302"/>
      <point x="266" y="303" type="curve"/>
      <point x="254" y="306" type="line"/>
      <point x="250" y="306"/>
      <point x="246" y="307"/>
      <point x="243" y="307" type="curve"/>
      <point x="247" y="307" type="line"/>
      <point x="254" y="309"/>
      <point x="262" y="310"/>
      <point x="268" y="310" type="curve"/>
      <point x="269" y="310" type="line"/>
      <point x="268" y="310"/>
      <point x="288" y="312"/>
      <point x="292" y="312" type="curve"/>
      <point x="315" y="312" type="line"/>
      <point x="306" y="314"/>
      <point x="296" y="316"/>
      <point x="286" y="318" type="curve" smooth="yes"/>
      <point x="282" y="318"/>
      <point x="277" y="319"/>
      <point x="272" y="320" type="curve" smooth="yes"/>
      <point x="258" y="322" type="line"/>
      <point x="254" y="322"/>
      <point x="251" y="323"/>
      <point x="247" y="323" type="curve"/>
      <point x="249" y="323" type="line"/>
      <point x="257" y="325"/>
      <point x="263" y="326"/>
      <point x="271" y="327" type="curve"/>
      <point x="272" y="327" type="line"/>
      <point x="278" y="328"/>
      <point x="282" y="328"/>
      <point x="296" y="328" type="curve" smooth="yes"/>
      <point x="297" y="328"/>
      <point x="297" y="328"/>
      <point x="297" y="328" type="curve"/>
      <point x="322" y="328" type="line"/>
      <point x="310" y="330"/>
      <point x="301" y="333"/>
      <point x="292" y="334" type="curve"/>
      <point x="277" y="337" type="line"/>
      <point x="272" y="338"/>
      <point x="266" y="338"/>
      <point x="262" y="338" type="curve"/>
      <point x="256" y="338"/>
      <point x="254" y="338"/>
      <point x="251" y="339" type="curve"/>
      <point x="261" y="342"/>
      <point x="268" y="342"/>
      <point x="274" y="343" type="curve"/>
      <point x="276" y="343" type="line"/>
      <point x="285" y="345"/>
      <point x="291" y="345"/>
      <point x="301" y="345" type="curve" smooth="yes"/>
      <point x="302" y="345"/>
      <point x="302" y="345"/>
      <point x="302" y="345" type="curve"/>
      <point x="328" y="345" type="line"/>
      <point x="318" y="347"/>
      <point x="307" y="349"/>
      <point x="298" y="350" type="curve" smooth="yes"/>
      <point x="281" y="353" type="line" smooth="yes"/>
      <point x="276" y="354"/>
      <point x="271" y="354"/>
      <point x="266" y="354" type="curve"/>
      <point x="260" y="354"/>
      <point x="258" y="354"/>
      <point x="255" y="355" type="curve"/>
      <point x="264" y="357"/>
      <point x="271" y="358"/>
      <point x="277" y="359" type="curve"/>
      <point x="279" y="359" type="line"/>
      <point x="287" y="361"/>
      <point x="297" y="362"/>
      <point x="306" y="362" type="curve" smooth="yes"/>
      <point x="306" y="362" type="line" smooth="yes"/>
      <point x="315" y="362"/>
      <point x="325" y="362"/>
      <point x="334" y="361" type="curve"/>
      <point x="323" y="364"/>
      <point x="313" y="366"/>
      <point x="302" y="367" type="curve" smooth="yes"/>
      <point x="294" y="369"/>
      <point x="290" y="369"/>
      <point x="286" y="369" type="curve"/>
      <point x="280" y="370"/>
      <point x="275" y="370"/>
      <point x="270" y="370" type="curve" smooth="yes"/>
      <point x="266" y="370"/>
      <point x="262" y="371"/>
      <point x="258" y="371" type="curve"/>
      <point x="264" y="373"/>
      <point x="270" y="374"/>
      <point x="281" y="375" type="curve"/>
      <point x="282" y="376"/>
      <point x="282" y="376"/>
      <point x="282" y="376" type="curve"/>
      <point x="292" y="378"/>
      <point x="301" y="378"/>
      <point x="310" y="378" type="curve" smooth="yes"/>
      <point x="311" y="378" type="line" smooth="yes"/>
      <point x="321" y="378"/>
      <point x="330" y="378"/>
      <point x="340" y="378" type="curve"/>
      <point x="327" y="381"/>
      <point x="317" y="382"/>
      <point x="308" y="384" type="curve"/>
      <point x="303" y="384"/>
      <point x="298" y="385"/>
      <point x="290" y="386" type="curve" smooth="yes"/>
      <point x="285" y="386"/>
      <point x="279" y="386"/>
      <point x="274" y="387" type="curve"/>
      <point x="262" y="387" type="line"/>
      <point x="268" y="390"/>
      <point x="276" y="390"/>
      <point x="284" y="392" type="curve"/>
      <point x="286" y="392" type="line"/>
      <point x="294" y="394"/>
      <point x="302" y="394"/>
      <point x="315" y="394" type="curve" smooth="yes"/>
      <point x="316" y="394" type="line"/>
      <point x="326" y="395"/>
      <point x="337" y="394"/>
      <point x="347" y="394" type="curve"/>
      <point x="335" y="397"/>
      <point x="324" y="399"/>
      <point x="313" y="400" type="curve"/>
      <point x="294" y="402" type="line"/>
      <point x="289" y="402"/>
      <point x="283" y="403"/>
      <point x="278" y="403" type="curve" smooth="yes"/>
      <point x="263" y="403" type="line"/>
      <point x="271" y="405"/>
      <point x="279" y="407"/>
      <point x="287" y="409" type="curve"/>
      <point x="289" y="409" type="line"/>
      <point x="299" y="410"/>
      <point x="310" y="411"/>
      <point x="320" y="411" type="curve" smooth="yes"/>
      <point x="321" y="411" type="line"/>
      <point x="332" y="412"/>
      <point x="342" y="411"/>
      <point x="354" y="410" type="curve"/>
      <point x="342" y="414"/>
      <point x="330" y="415"/>
      <point x="318" y="417" type="curve" smooth="yes"/>
      <point x="312" y="418"/>
      <point x="306" y="418"/>
      <point x="299" y="419" type="curve"/>
      <point x="282" y="419" type="line"/>
      <point x="277" y="420"/>
      <point x="271" y="419"/>
      <point x="266" y="419" type="curve"/>
      <point x="274" y="422"/>
      <point x="282" y="423"/>
      <point x="290" y="425" type="curve"/>
      <point x="292" y="425" type="line"/>
      <point x="306" y="427"/>
      <point x="316" y="428"/>
      <point x="325" y="428" type="curve" smooth="yes"/>
      <point x="326" y="428" type="line"/>
      <point x="334" y="429"/>
      <point x="344" y="428"/>
      <point x="359" y="427" type="curve"/>
      <point x="348" y="430"/>
      <point x="335" y="432"/>
      <point x="323" y="434" type="curve" smooth="yes"/>
      <point x="314" y="435"/>
      <point x="309" y="435"/>
      <point x="304" y="435" type="curve" smooth="yes"/>
      <point x="298" y="435"/>
      <point x="292" y="435"/>
      <point x="286" y="435" type="curve" smooth="yes"/>
      <point x="268" y="435" type="line"/>
      <point x="277" y="438"/>
      <point x="285" y="440"/>
      <point x="293" y="441" type="curve"/>
      <point x="294" y="441"/>
      <point x="294" y="441"/>
      <point x="295" y="442" type="curve"/>
      <point x="306" y="443"/>
      <point x="318" y="445"/>
      <point x="330" y="445" type="curve" smooth="yes"/>
      <point x="330" y="445" type="line"/>
      <point x="342" y="446"/>
      <point x="354" y="445"/>
      <point x="366" y="444" type="curve"/>
      <point x="350" y="447"/>
      <point x="338" y="449"/>
      <point x="328" y="450" type="curve"/>
      <point x="322" y="450"/>
      <point x="315" y="451"/>
      <point x="308" y="451" type="curve" smooth="yes"/>
      <point x="302" y="451"/>
      <point x="296" y="452"/>
      <point x="290" y="451" type="curve"/>
      <point x="278" y="451"/>
      <point x="274" y="451"/>
      <point x="270" y="450" type="curve"/>
      <point x="278" y="454"/>
      <point x="287" y="456"/>
      <point x="297" y="458" type="curve"/>
      <point x="298" y="458" type="line"/>
      <point x="308" y="460"/>
      <point x="319" y="461"/>
      <point x="334" y="461" type="curve" smooth="yes"/>
      <point x="335" y="461" type="line"/>
      <point x="348" y="462"/>
      <point x="360" y="461"/>
      <point x="372" y="461" type="curve"/>
      <point x="359" y="462"/>
      <point x="346" y="466"/>
      <point x="334" y="466" type="curve"/>
      <point x="327" y="467"/>
      <point x="320" y="467"/>
      <point x="313" y="468" type="curve"/>
      <point x="294" y="468" type="line"/>
      <point x="285" y="467"/>
      <point x="278" y="466"/>
      <point x="272" y="466" type="curve"/>
      <point x="279" y="470"/>
      <point x="289" y="472"/>
      <point x="299" y="474" type="curve"/>
      <point x="300" y="474"/>
      <point x="301" y="474"/>
      <point x="302" y="474" type="curve"/>
      <point x="316" y="477"/>
      <point x="328" y="478"/>
      <point x="338" y="478" type="curve" smooth="yes"/>
      <point x="340" y="478" type="line"/>
      <point x="350" y="478"/>
      <point x="362" y="478"/>
      <point x="379" y="476" type="curve"/>
      <point x="366" y="479"/>
      <point x="352" y="482"/>
      <point x="338" y="483" type="curve" smooth="yes"/>
      <point x="332" y="484"/>
      <point x="325" y="484"/>
      <point x="318" y="485" type="curve"/>
      <point x="308" y="485"/>
      <point x="303" y="485"/>
      <point x="298" y="484" type="curve"/>
      <point x="290" y="484"/>
      <point x="282" y="482"/>
      <point x="272" y="482" type="curve"/>
      <point x="282" y="485"/>
      <point x="290" y="487"/>
      <point x="302" y="490" type="curve"/>
      <point x="304" y="490"/>
      <point x="304" y="490"/>
      <point x="305" y="491" type="curve"/>
      <point x="324" y="494"/>
      <point x="334" y="494"/>
      <point x="343" y="494" type="curve" smooth="yes"/>
      <point x="345" y="494" type="line"/>
      <point x="355" y="495"/>
      <point x="367" y="494"/>
      <point x="385" y="493" type="curve"/>
      <point x="369" y="496"/>
      <point x="356" y="498"/>
      <point x="344" y="500" type="curve" smooth="yes"/>
      <point x="337" y="501"/>
      <point x="330" y="501"/>
      <point x="322" y="501" type="curve"/>
      <point x="316" y="502"/>
      <point x="309" y="501"/>
      <point x="302" y="501" type="curve"/>
      <point x="292" y="500"/>
      <point x="282" y="498"/>
      <point x="273" y="497" type="curve"/>
      <point x="283" y="502"/>
      <point x="294" y="504"/>
      <point x="306" y="507" type="curve"/>
      <point x="308" y="507" type="line"/>
      <point x="328" y="510"/>
      <point x="338" y="511"/>
      <point x="349" y="511" type="curve"/>
      <point x="350" y="512" type="line"/>
      <point x="364" y="512"/>
      <point x="378" y="511"/>
      <point x="391" y="510" type="curve"/>
      <point x="378" y="512"/>
      <point x="364" y="515"/>
      <point x="349" y="517" type="curve"/>
      <point x="342" y="517"/>
      <point x="334" y="518"/>
      <point x="327" y="518" type="curve" smooth="yes"/>
      <point x="314" y="518"/>
      <point x="310" y="518"/>
      <point x="306" y="517" type="curve"/>
      <point x="297" y="516"/>
      <point x="286" y="514"/>
      <point x="274" y="512" type="curve"/>
      <point x="283" y="516"/>
      <point x="294" y="520"/>
      <point x="312" y="523" type="curve"/>
      <point x="316" y="525"/>
      <point x="321" y="526"/>
      <point x="330" y="526" type="curve"/>
    </contour>
    <contour>
      <point x="135" y="278" type="curve"/>
      <point x="113" y="269"/>
      <point x="100" y="243"/>
      <point x="100" y="208" type="curve" smooth="yes"/>
      <point x="100" y="115"/>
      <point x="200" y="37"/>
      <point x="318" y="37" type="curve" smooth="yes"/>
      <point x="387" y="37"/>
      <point x="461" y="74"/>
      <point x="554" y="155" type="curve" smooth="yes"/>
      <point x="561" y="161" type="line" smooth="yes"/>
      <point x="578" y="175"/>
      <point x="590" y="186"/>
      <point x="598" y="186" type="curve" smooth="yes"/>
      <point x="601" y="186"/>
      <point x="602" y="186"/>
      <point x="602" y="186" type="curve"/>
      <point x="601" y="186" type="line"/>
      <point x="600" y="185" type="line"/>
      <point x="595" y="185"/>
      <point x="593" y="184"/>
      <point x="589" y="181" type="curve"/>
      <point x="578" y="174"/>
      <point x="569" y="167"/>
      <point x="554" y="153" type="curve"/>
      <point x="534" y="134"/>
      <point x="514" y="113"/>
      <point x="490" y="97" type="curve"/>
      <point x="515" y="110"/>
      <point x="537" y="130"/>
      <point x="558" y="148" type="curve" smooth="yes"/>
      <point x="570" y="157"/>
      <point x="581" y="166"/>
      <point x="594" y="173" type="curve" smooth="yes"/>
      <point x="595" y="174"/>
      <point x="598" y="174"/>
      <point x="599" y="174" type="curve" smooth="yes"/>
      <point x="602" y="174" type="line"/>
      <point x="606" y="174" type="line" smooth="yes"/>
      <point x="607" y="174"/>
      <point x="608" y="174"/>
      <point x="608" y="174" type="curve" smooth="yes"/>
      <point x="606" y="174" type="line" smooth="yes"/>
      <point x="597" y="174"/>
      <point x="588" y="169"/>
      <point x="569" y="150" type="curve"/>
      <point x="565" y="148"/>
      <point x="562" y="144"/>
      <point x="558" y="141" type="curve"/>
      <point x="511" y="101"/>
      <point x="424" y="26"/>
      <point x="318" y="26" type="curve" smooth="yes"/>
      <point x="262" y="26"/>
      <point x="212" y="39"/>
      <point x="172" y="66" type="curve"/>
      <point x="169" y="68"/>
      <point x="165" y="71"/>
      <point x="161" y="74" type="curve"/>
      <point x="132" y="98"/>
      <point x="110" y="128"/>
      <point x="98" y="159" type="curve" smooth="yes"/>
      <point x="92" y="175"/>
      <point x="89" y="192"/>
      <point x="89" y="205" type="curve" smooth="yes"/>
      <point x="89" y="209" type="line" smooth="yes"/>
      <point x="89" y="250"/>
      <point x="106" y="275"/>
    </contour>
    <contour>
      <point x="562" y="36" type="curve"/>
      <point x="557" y="34"/>
      <point x="551" y="31"/>
      <point x="545" y="28" type="curve"/>
      <point x="535" y="25"/>
      <point x="525" y="22"/>
      <point x="513" y="18" type="curve"/>
      <point x="521" y="20"/>
      <point x="528" y="24"/>
      <point x="539" y="30" type="curve"/>
      <point x="550" y="35"/>
      <point x="561" y="42"/>
      <point x="574" y="52" type="curve"/>
      <point x="586" y="63"/>
      <point x="597" y="74"/>
      <point x="606" y="86" type="curve"/>
      <point x="598" y="76"/>
      <point x="588" y="68"/>
      <point x="576" y="59" type="curve" smooth="yes"/>
      <point x="565" y="51"/>
      <point x="554" y="45"/>
      <point x="541" y="39" type="curve"/>
      <point x="534" y="35"/>
      <point x="526" y="32"/>
      <point x="514" y="29" type="curve"/>
      <point x="520" y="31"/>
      <point x="526" y="34"/>
      <point x="531" y="37" type="curve"/>
      <point x="545" y="46"/>
      <point x="555" y="52"/>
      <point x="565" y="60" type="curve" smooth="yes"/>
      <point x="578" y="71"/>
      <point x="590" y="83"/>
      <point x="602" y="97" type="curve"/>
      <point x="592" y="86"/>
      <point x="582" y="77"/>
      <point x="571" y="70" type="curve"/>
      <point x="562" y="63"/>
      <point x="551" y="57"/>
      <point x="537" y="50" type="curve" smooth="yes"/>
      <point x="529" y="46"/>
      <point x="522" y="43"/>
      <point x="514" y="40" type="curve"/>
      <point x="518" y="42"/>
      <point x="520" y="42"/>
      <point x="522" y="45" type="curve"/>
      <point x="534" y="52"/>
      <point x="546" y="58"/>
      <point x="555" y="67" type="curve"/>
      <point x="570" y="79"/>
      <point x="584" y="93"/>
      <point x="596" y="108" type="curve"/>
      <point x="587" y="98"/>
      <point x="578" y="89"/>
      <point x="567" y="82" type="curve"/>
      <point x="556" y="73"/>
      <point x="544" y="66"/>
      <point x="533" y="60" type="curve"/>
      <point x="525" y="56"/>
      <point x="518" y="52"/>
      <point x="510" y="50" type="curve"/>
      <point x="514" y="52" type="line" smooth="yes"/>
      <point x="529" y="61"/>
      <point x="538" y="67"/>
      <point x="546" y="74" type="curve"/>
      <point x="558" y="84"/>
      <point x="570" y="94"/>
      <point x="591" y="118" type="curve"/>
      <point x="584" y="110"/>
      <point x="574" y="102"/>
      <point x="562" y="93" type="curve" smooth="yes"/>
      <point x="551" y="84"/>
      <point x="540" y="77"/>
      <point x="528" y="70" type="curve" smooth="yes"/>
      <point x="521" y="66"/>
      <point x="513" y="62"/>
      <point x="505" y="58" type="curve"/>
      <point x="506" y="58"/>
      <point x="506" y="59"/>
      <point x="506" y="59" type="curve"/>
      <point x="520" y="68"/>
      <point x="530" y="75"/>
      <point x="538" y="82" type="curve" smooth="yes"/>
      <point x="556" y="98"/>
      <point x="573" y="114"/>
      <point x="586" y="129" type="curve"/>
      <point x="579" y="122"/>
      <point x="572" y="116"/>
      <point x="558" y="104" type="curve" smooth="yes"/>
      <point x="543" y="93"/>
      <point x="533" y="86"/>
      <point x="523" y="81" type="curve"/>
      <point x="515" y="75"/>
      <point x="506" y="70"/>
      <point x="497" y="66" type="curve"/>
      <point x="498" y="66"/>
      <point x="498" y="66"/>
      <point x="498" y="67" type="curve"/>
      <point x="508" y="74"/>
      <point x="518" y="82"/>
      <point x="528" y="89" type="curve"/>
      <point x="542" y="99"/>
      <point x="554" y="111"/>
      <point x="580" y="140" type="curve"/>
      <point x="572" y="131"/>
      <point x="562" y="123"/>
      <point x="553" y="115" type="curve" smooth="yes"/>
      <point x="542" y="106"/>
      <point x="531" y="98"/>
      <point x="519" y="91" type="curve"/>
      <point x="508" y="84"/>
      <point x="498" y="78"/>
      <point x="487" y="72" type="curve"/>
      <point x="498" y="80"/>
      <point x="509" y="87"/>
      <point x="518" y="97" type="curve"/>
      <point x="523" y="100"/>
      <point x="528" y="104"/>
      <point x="533" y="108" type="curve"/>
      <point x="544" y="118"/>
      <point x="554" y="126"/>
      <point x="563" y="134" type="curve"/>
      <point x="574" y="144" type="line"/>
      <point x="589" y="156"/>
      <point x="599" y="165"/>
      <point x="606" y="165" type="curve" smooth="yes"/>
      <point x="616" y="165"/>
      <point x="623" y="154"/>
      <point x="625" y="136" type="curve"/>
      <point x="625" y="136"/>
      <point x="625" y="135"/>
      <point x="625" y="134" type="curve" smooth="yes"/>
      <point x="625" y="132" type="line"/>
      <point x="625" y="132"/>
      <point x="625" y="132"/>
      <point x="625" y="131" type="curve" smooth="yes"/>
      <point x="625" y="128" type="line" smooth="yes"/>
      <point x="625" y="93"/>
      <point x="602" y="59"/>
    </contour>
  </outline>
</glyph>
<glyph name="brevecomb" format="1">
  <advance width="480"/>
  <outline>
    <contour>
      <point x="319" y="542" type="line"/>
      <point x="310" y="497"/>
      <point x="281" y="473"/>
      <point x="243" y="473" type="curve" smooth="yes"/>
      <point x="207" y="473"/>
      <point x="178" y="497"/>
      <point x="167" y="542" type="curve"/>
      <point x="102" y="520" type="line"/>
      <point x="107" y="445"/>
      <point x="165" y="391"/>
      <point x="241" y="391" type="curve" smooth="yes"/>
      <point x="317" y="391"/>
      <point x="373" y="445"/>
      <point x="378" y="520" type="curve"/>
    </contour>
    <contour>
      <point x="240" y="359" type="move" name="_top"/>
    </contour>
    <contour>
      <point x="240" y="550" type="move" name="top"/>
    </contour>
  </outline>
</glyph>
<glyph name="brevecomb_acutecomb" format="1">
  <advance width="480"/>
  <outline>
    <contour>
      <point x="319" y="542" type="line"/>
      <point x="310" y="497"/>
      <point x="281" y="473"/>
      <point x="243" y="473" type="curve" smooth="yes"/>
      <point x="207" y="473"/>
      <point x="178" y="497"/>
      <point x="167" y="542" type="curve"/>
      <point x="102" y="520" type="line"/>
      <point x="107" y="445"/>
      <point x="165" y="391"/>
      <point x="241" y="391" type="curve" smooth="yes"/>
      <point x="317" y="391"/>
      <point x="373" y="445"/>
      <point x="378" y="520" type="curve"/>
    </contour>
    <contour>
      <point x="261" y="509" type="line"/>
      <point x="375" y="614" type="line"/>
      <point x="258" y="632" type="line"/>
      <point x="203" y="531" type="line"/>
    </contour>
    <contour>
      <point x="240" y="359" type="move" name="_top"/>
    </contour>
  </outline>
</glyph>
<glyph name="brevecomb_hookabovecomb.case" format="1">
  <advance width="480"/>
  <outline>
    <contour>
      <point x="240" y="782" type="curve" smooth="yes"/>
      <point x="184" y="782"/>
      <point x="148" y="758"/>
      <point x="148" y="729" type="curve" smooth="yes"/>
      <point x="148" y="714"/>
      <point x="160" y="705"/>
      <point x="177" y="705" type="curve" smooth="yes"/>
      <point x="192" y="705"/>
      <point x="202" y="710"/>
      <point x="209" y="718" type="curve" smooth="yes"/>
      <point x="245" y="760" type="line"/>
      <point x="208" y="742" type="line"/>
      <point x="240" y="750"/>
      <point x="253" y="746"/>
      <point x="253" y="732" type="curve" smooth="yes"/>
      <point x="253" y="711"/>
      <point x="218" y="689"/>
      <point x="218" y="675" type="curve" smooth="yes"/>
      <point x="218" y="664" type="line"/>
      <point x="261" y="664" type="line"/>
      <point x="261" y="671"/>
      <point x="337" y="687"/>
      <point x="337" y="730" type="curve" smooth="yes"/>
      <point x="337" y="765"/>
      <point x="300" y="782"/>
    </contour>
    <contour>
      <point x="241" y="571" type="curve" smooth="yes"/>
      <point x="322" y="571"/>
      <point x="388" y="608"/>
      <point x="402" y="660" type="curve"/>
      <point x="343" y="682" type="line"/>
      <point x="331" y="664"/>
      <point x="292" y="651"/>
      <point x="247" y="651" type="curve" smooth="yes"/>
      <point x="195" y="651"/>
      <point x="157" y="664"/>
      <point x="143" y="682" type="curve"/>
      <point x="78" y="660" type="line"/>
      <point x="92" y="608"/>
      <point x="159" y="571"/>
    </contour>
    <contour>
      <point x="240" y="528" type="move" name="_top"/>
    </contour>
  </outline>
</glyph>
<glyph name="breveinvertedcomb.case" format="1">
  <advance width="480"/>
  <outline>
    <contour>
      <point x="137" y="567" type="line"/>
      <point x="149" y="585"/>
      <point x="188" y="598"/>
      <point x="233" y="598" type="curve" smooth="yes"/>
      <point x="285" y="598"/>
      <point x="323" y="585"/>
      <point x="337" y="567" type="curve"/>
      <point x="402" y="588" type="line"/>
      <point x="388" y="641"/>
      <point x="321" y="678"/>
      <point x="239" y="678" type="curve" smooth="yes"/>
      <point x="158" y="678"/>
      <point x="92" y="641"/>
      <point x="78" y="588" type="curve"/>
    </contour>
    <contour>
      <point x="240" y="528" type="move" name="_top"/>
    </contour>
    <contour>
      <point x="240" y="686" type="move" name="top"/>
    </contour>
  </outline>
</glyph>
<glyph name="breveinvertedcomb" format="1">
  <advance width="480"/>
  <outline>
    <contour>
      <point x="163" y="387" type="line"/>
      <point x="172" y="432"/>
      <point x="202" y="455"/>
      <point x="239" y="455" type="curve" smooth="yes"/>
      <point x="275" y="455"/>
      <point x="305" y="432"/>
      <point x="315" y="387" type="curve"/>
      <point x="378" y="409" type="line"/>
      <point x="373" y="484"/>
      <point x="317" y="538"/>
      <point x="242" y="538" type="curve" smooth="yes"/>
      <point x="166" y="538"/>
      <point x="107" y="484"/>
      <point x="102" y="409" type="curve"/>
    </contour>
    <contour>
      <point x="240" y="359" type="move" name="_top"/>
    </contour>
    <contour>
      <point x="240" y="550" type="move" name="top"/>
    </contour>
  </outline>
</glyph>
<glyph name="bulletoperator" format="1">
  <advance width="480"/>
  <outline>
    <contour>
      <point x="240" y="83" type="curve" smooth="yes"/>
      <point x="291" y="83"/>
      <point x="332" y="125"/>
      <point x="332" y="179" type="curve" smooth="yes"/>
      <point x="332" y="235"/>
      <point x="291" y="280"/>
      <point x="240" y="280" type="curve" smooth="yes"/>
      <point x="190" y="280"/>
      <point x="148" y="235"/>
      <point x="148" y="179" type="curve" smooth="yes"/>
      <point x="148" y="125"/>
      <point x="190" y="83"/>
    </contour>
  </outline>
</glyph>
<glyph name="caroncomb.alt.t" format="1">
  <advance width="480"/>
  <outline>
    <contour>
      <point x="200" y="361" type="line"/>
      <point x="271" y="376"/>
      <point x="318" y="425"/>
      <point x="318" y="486" type="curve" smooth="yes"/>
      <point x="318" y="537"/>
      <point x="277" y="554"/>
      <point x="241" y="554" type="curve" smooth="yes"/>
      <point x="205" y="554"/>
      <point x="177" y="530"/>
      <point x="177" y="499" type="curve" smooth="yes"/>
      <point x="177" y="439"/>
      <point x="236" y="457"/>
      <point x="236" y="433" type="curve" smooth="yes"/>
      <point x="236" y="418"/>
      <point x="220" y="404"/>
      <point x="185" y="397" type="curve"/>
    </contour>
    <contour>
      <point x="177" y="550" type="move" name="_topright"/>
    </contour>
  </outline>
</glyph>
<glyph name="caroncomb.case" format="1">
  <advance width="480"/>
  <outline>
    <contour>
      <point x="75" y="652" type="line"/>
      <point x="187" y="574" type="line"/>
      <point x="293" y="574" type="line"/>
      <point x="405" y="652" type="line"/>
      <point x="357" y="682" type="line"/>
      <point x="212" y="622" type="line"/>
      <point x="268" y="622" type="line"/>
      <point x="123" y="682" type="line"/>
    </contour>
    <contour>
      <point x="240" y="528" type="move" name="_top"/>
    </contour>
    <contour>
      <point x="240" y="694" type="move" name="top"/>
    </contour>
  </outline>
</glyph>
<glyph name="cedillacomb" format="1">
  <advance width="480"/>
  <outline>
    <contour>
      <point x="232" y="-178" type="curve" smooth="yes"/>
      <point x="293" y="-178"/>
      <point x="341" y="-143"/>
      <point x="341" y="-95" type="curve" smooth="yes"/>
      <point x="341" y="-50"/>
      <point x="298" y="-25"/>
      <point x="241" y="-25" type="curve"/>
      <point x="241" y="-42" type="line"/>
      <point x="287" y="9" type="line"/>
      <point x="235" y="9" type="line"/>
      <point x="188" y="-65" type="line"/>
      <point x="203" y="-80" type="line"/>
      <point x="239" y="-78"/>
      <point x="263" y="-87"/>
      <point x="263" y="-109" type="curve" smooth="yes"/>
      <point x="263" y="-121"/>
      <point x="252" y="-136"/>
      <point x="226" y="-136" type="curve" smooth="yes"/>
      <point x="206" y="-136"/>
      <point x="185" y="-128"/>
      <point x="167" y="-116" type="curve"/>
      <point x="148" y="-155" type="line"/>
      <point x="172" y="-170"/>
      <point x="202" y="-178"/>
    </contour>
    <contour>
      <point x="240" y="0" type="move" name="_bottom"/>
    </contour>
  </outline>
</glyph>
<glyph name="circumflexcomb_tildecomb" format="1">
  <advance width="480"/>
  <outline>
    <contour>
      <point x="157" y="387" type="line"/>
      <point x="268" y="467" type="line"/>
      <point x="212" y="467" type="line"/>
      <point x="323" y="387" type="line"/>
      <point x="381" y="409" type="line"/>
      <point x="293" y="508" type="line"/>
      <point x="187" y="508" type="line"/>
      <point x="99" y="409" type="line"/>
    </contour>
    <contour>
      <point x="291" y="524" type="curve" smooth="yes"/>
      <point x="334" y="524"/>
      <point x="367" y="555"/>
      <point x="383" y="613" type="curve"/>
      <point x="346" y="635" type="line"/>
      <point x="331" y="612"/>
      <point x="318" y="606"/>
      <point x="301" y="606" type="curve" smooth="yes"/>
      <point x="275" y="606"/>
      <point x="224" y="632"/>
      <point x="189" y="632" type="curve" smooth="yes"/>
      <point x="146" y="632"/>
      <point x="113" y="602"/>
      <point x="97" y="544" type="curve"/>
      <point x="134" y="522" type="line"/>
      <point x="148" y="544"/>
      <point x="163" y="550"/>
      <point x="178" y="550" type="curve" smooth="yes"/>
      <point x="205" y="550"/>
      <point x="256" y="524"/>
    </contour>
    <contour>
      <point x="240" y="359" type="move" name="_top"/>
    </contour>
  </outline>
</glyph>
<glyph name="commaturnedabovecomb.case" format="1">
  <advance width="480"/>
  <outline>
    <contour>
      <point x="309" y="779" type="line"/>
      <point x="208" y="760"/>
      <point x="167" y="694"/>
      <point x="167" y="646" type="curve" smooth="yes"/>
      <point x="167" y="588"/>
      <point x="209" y="571"/>
      <point x="244" y="571" type="curve" smooth="yes"/>
      <point x="285" y="571"/>
      <point x="313" y="596"/>
      <point x="313" y="626" type="curve" smooth="yes"/>
      <point x="313" y="688"/>
      <point x="248" y="675"/>
      <point x="248" y="702" type="curve" smooth="yes"/>
      <point x="248" y="715"/>
      <point x="260" y="732"/>
      <point x="322" y="744" type="curve"/>
    </contour>
    <contour>
      <point x="240" y="528" type="move" name="_top"/>
    </contour>
    <contour>
      <point x="240" y="662" type="move" name="top"/>
    </contour>
  </outline>
</glyph>
<glyph name="commaturnedabovecomb" format="1">
  <advance width="480"/>
  <outline>
    <contour>
      <point x="309" y="599" type="line"/>
      <point x="208" y="580"/>
      <point x="167" y="514"/>
      <point x="167" y="466" type="curve" smooth="yes"/>
      <point x="167" y="408"/>
      <point x="209" y="391"/>
      <point x="244" y="391" type="curve" smooth="yes"/>
      <point x="285" y="391"/>
      <point x="313" y="416"/>
      <point x="313" y="446" type="curve" smooth="yes"/>
      <point x="313" y="508"/>
      <point x="248" y="495"/>
      <point x="248" y="522" type="curve" smooth="yes"/>
      <point x="248" y="535"/>
      <point x="260" y="552"/>
      <point x="322" y="564" type="curve"/>
    </contour>
    <contour>
      <point x="240" y="359" type="move" name="_top"/>
    </contour>
    <contour>
      <point x="240" y="525" type="move" name="top"/>
    </contour>
  </outline>
</glyph>
<glyph name="commaturnedmod" format="1">
  <advance width="480"/>
  <outline>
    <contour>
      <point x="309" y="601" type="line"/>
      <point x="208" y="581"/>
      <point x="167" y="516"/>
      <point x="167" y="468" type="curve" smooth="yes"/>
      <point x="167" y="410"/>
      <point x="209" y="393"/>
      <point x="244" y="393" type="curve" smooth="yes"/>
      <point x="285" y="393"/>
      <point x="313" y="418"/>
      <point x="313" y="448" type="curve" smooth="yes"/>
      <point x="313" y="510"/>
      <point x="248" y="497"/>
      <point x="248" y="524" type="curve" smooth="yes"/>
      <point x="248" y="537"/>
      <point x="260" y="554"/>
      <point x="322" y="566" type="curve"/>
    </contour>
    <contour>
      <point x="240" y="359" type="move" name="_top"/>
    </contour>
    <contour>
      <point x="240" y="525" type="move" name="top"/>
    </contour>
  </outline>
</glyph>
<glyph name="dblgravecomb.case" format="1">
  <advance width="480"/>
  <outline>
    <contour>
      <point x="279" y="567" type="line"/>
      <point x="333" y="586" type="line"/>
      <point x="301" y="685" type="line"/>
      <point x="216" y="667" type="line"/>
    </contour>
    <contour>
      <point x="147" y="567" type="line"/>
      <point x="201" y="586" type="line"/>
      <point x="169" y="685" type="line"/>
      <point x="84" y="667" type="line"/>
    </contour>
    <contour>
      <point x="240" y="528" type="move" name="_top"/>
    </contour>
    <contour>
      <point x="240" y="686" type="move" name="top"/>
    </contour>
  </outline>
</glyph>
<glyph name="dieresiscomb.case" format="1">
  <advance width="480"/>
  <outline>
    <contour>
      <point x="141" y="560" type="curve" smooth="yes"/>
      <point x="184" y="560"/>
      <point x="207" y="594"/>
      <point x="207" y="626" type="curve" smooth="yes"/>
      <point x="207" y="660"/>
      <point x="184" y="693"/>
      <point x="141" y="693" type="curve" smooth="yes"/>
      <point x="96" y="693"/>
      <point x="73" y="660"/>
      <point x="73" y="626" type="curve" smooth="yes"/>
      <point x="73" y="594"/>
      <point x="96" y="560"/>
    </contour>
    <contour>
      <point x="340" y="560" type="curve" smooth="yes"/>
      <point x="383" y="560"/>
      <point x="407" y="594"/>
      <point x="407" y="626" type="curve" smooth="yes"/>
      <point x="407" y="660"/>
      <point x="383" y="693"/>
      <point x="340" y="693" type="curve" smooth="yes"/>
      <point x="295" y="693"/>
      <point x="273" y="660"/>
      <point x="273" y="626" type="curve" smooth="yes"/>
      <point x="273" y="594"/>
      <point x="295" y="560"/>
    </contour>
    <contour>
      <point x="240" y="528" type="move" name="_top"/>
    </contour>
    <contour>
      <point x="240" y="662" type="move" name="top"/>
    </contour>
  </outline>
</glyph>
<glyph name="dieresiscomb_acutecomb" format="1">
  <advance width="480"/>
  <outline>
    <contour>
      <point x="157" y="396" type="curve" smooth="yes"/>
      <point x="199" y="396"/>
      <point x="221" y="428"/>
      <point x="221" y="459" type="curve" smooth="yes"/>
      <point x="221" y="491"/>
      <point x="199" y="522"/>
      <point x="157" y="522" type="curve" smooth="yes"/>
      <point x="113" y="522"/>
      <point x="92" y="491"/>
      <point x="92" y="459" type="curve" smooth="yes"/>
      <point x="92" y="428"/>
      <point x="113" y="396"/>
    </contour>
    <contour>
      <point x="324" y="396" type="curve" smooth="yes"/>
      <point x="366" y="396"/>
      <point x="388" y="428"/>
      <point x="388" y="459" type="curve" smooth="yes"/>
      <point x="388" y="491"/>
      <point x="366" y="522"/>
      <point x="324" y="522" type="curve" smooth="yes"/>
      <point x="281" y="522"/>
      <point x="259" y="491"/>
      <point x="259" y="459" type="curve" smooth="yes"/>
      <point x="259" y="428"/>
      <point x="281" y="396"/>
    </contour>
    <contour>
      <point x="269" y="517" type="line"/>
      <point x="377" y="614" type="line"/>
      <point x="260" y="632" type="line"/>
      <point x="211" y="539" type="line"/>
    </contour>
    <contour>
      <point x="240" y="359" type="move" name="_top"/>
    </contour>
  </outline>
</glyph>
<glyph name="dieresiscomb_macroncomb" format="1">
  <advance width="480"/>
  <outline>
    <contour>
      <point x="157" y="396" type="curve" smooth="yes"/>
      <point x="200" y="396"/>
      <point x="223" y="430"/>
      <point x="223" y="462" type="curve" smooth="yes"/>
      <point x="223" y="496"/>
      <point x="200" y="529"/>
      <point x="157" y="529" type="curve" smooth="yes"/>
      <point x="112" y="529"/>
      <point x="89" y="496"/>
      <point x="89" y="462" type="curve" smooth="yes"/>
      <point x="89" y="430"/>
      <point x="112" y="396"/>
    </contour>
    <contour>
      <point x="324" y="396" type="curve" smooth="yes"/>
      <point x="367" y="396"/>
      <point x="391" y="430"/>
      <point x="391" y="462" type="curve" smooth="yes"/>
      <point x="391" y="496"/>
      <point x="367" y="529"/>
      <point x="324" y="529" type="curve" smooth="yes"/>
      <point x="279" y="529"/>
      <point x="257" y="496"/>
      <point x="257" y="462" type="curve" smooth="yes"/>
      <point x="257" y="430"/>
      <point x="279" y="396"/>
    </contour>
    <contour>
      <point x="109" y="615" type="line"/>
      <point x="109" y="544" type="line"/>
      <point x="371" y="544" type="line"/>
      <point x="371" y="615" type="line"/>
    </contour>
    <contour>
      <point x="240" y="359" type="move" name="_top"/>
    </contour>
  </outline>
</glyph>
<glyph name="dotaccentcomb.case" format="1">
  <advance width="480"/>
  <outline>
    <contour>
      <point x="241" y="551" type="curve" smooth="yes"/>
      <point x="290" y="551"/>
      <point x="315" y="589"/>
      <point x="315" y="626" type="curve" smooth="yes"/>
      <point x="315" y="665"/>
      <point x="290" y="702"/>
      <point x="241" y="702" type="curve" smooth="yes"/>
      <point x="191" y="702"/>
      <point x="165" y="665"/>
      <point x="165" y="626" type="curve" smooth="yes"/>
      <point x="165" y="589"/>
      <point x="191" y="551"/>
    </contour>
    <contour>
      <point x="240" y="528" type="move" name="_top"/>
    </contour>
    <contour>
      <point x="240" y="662" type="move" name="top"/>
    </contour>
  </outline>
</glyph>
<glyph name="dotaccentcomb" format="1">
  <advance width="480"/>
  <outline>
    <contour>
      <point x="241" y="387" type="curve" smooth="yes"/>
      <point x="290" y="387"/>
      <point x="315" y="425"/>
      <point x="315" y="462" type="curve" smooth="yes"/>
      <point x="315" y="501"/>
      <point x="290" y="538"/>
      <point x="241" y="538" type="curve" smooth="yes"/>
      <point x="191" y="538"/>
      <point x="165" y="501"/>
      <point x="165" y="462" type="curve" smooth="yes"/>
      <point x="165" y="425"/>
      <point x="191" y="387"/>
    </contour>
    <contour>
      <point x="240" y="359" type="move" name="_top"/>
    </contour>
    <contour>
      <point x="240" y="525" type="move" name="top"/>
    </contour>
  </outline>
</glyph>
<glyph name="dotaccentcomb_macroncomb" format="1">
  <advance width="480"/>
  <outline>
    <contour>
      <point x="241" y="396" type="curve" smooth="yes"/>
      <point x="284" y="396"/>
      <point x="307" y="430"/>
      <point x="307" y="462" type="curve" smooth="yes"/>
      <point x="307" y="496"/>
      <point x="284" y="529"/>
      <point x="241" y="529" type="curve" smooth="yes"/>
      <point x="196" y="529"/>
      <point x="173" y="496"/>
      <point x="173" y="462" type="curve" smooth="yes"/>
      <point x="173" y="430"/>
      <point x="196" y="396"/>
    </contour>
    <contour>
      <point x="109" y="615" type="line"/>
      <point x="109" y="544" type="line"/>
      <point x="371" y="544" type="line"/>
      <point x="371" y="615" type="line"/>
    </contour>
    <contour>
      <point x="240" y="359" type="move" name="_top"/>
    </contour>
  </outline>
</glyph>
<glyph name="eight.tf" format="1">
  <advance width="480"/>
  <outline>
    <contour>
      <point x="237" y="-8" type="curve" smooth="yes"/>
      <point x="373" y="-8"/>
      <point x="466" y="55"/>
      <point x="466" y="155" type="curve" smooth="yes"/>
      <point x="466" y="219"/>
      <point x="423" y="271"/>
      <point x="286" y="323" type="curve" smooth="yes"/>
      <point x="200" y="352"/>
      <point x="175" y="375"/>
      <point x="175" y="414" type="curve" smooth="yes"/>
      <point x="175" y="450"/>
      <point x="202" y="472"/>
      <point x="244" y="472" type="curve" smooth="yes"/>
      <point x="291" y="472"/>
      <point x="318" y="442"/>
      <point x="318" y="387" type="curve" smooth="yes"/>
      <point x="318" y="345"/>
      <point x="311" y="317"/>
      <point x="283" y="274" type="curve"/>
      <point x="289" y="264" type="line"/>
      <point x="393" y="279"/>
      <point x="448" y="326"/>
      <point x="448" y="393" type="curve" smooth="yes"/>
      <point x="448" y="478"/>
      <point x="378" y="536"/>
      <point x="256" y="536" type="curve" smooth="yes"/>
      <point x="127" y="536"/>
      <point x="43" y="471"/>
      <point x="43" y="382" type="curve" smooth="yes"/>
      <point x="43" y="299"/>
      <point x="90" y="250"/>
      <point x="225" y="199" type="curve" smooth="yes"/>
      <point x="311" y="171"/>
      <point x="330" y="153"/>
      <point x="330" y="116" type="curve" smooth="yes"/>
      <point x="330" y="84"/>
      <point x="299" y="62"/>
      <point x="251" y="62" type="curve" smooth="yes"/>
      <point x="197" y="62"/>
      <point x="158" y="88"/>
      <point x="158" y="144" type="curve" smooth="yes"/>
      <point x="158" y="175"/>
      <point x="167" y="202"/>
      <point x="190" y="244" type="curve"/>
      <point x="185" y="267" type="line"/>
      <point x="81" y="248"/>
      <point x="22" y="202"/>
      <point x="22" y="134" type="curve" smooth="yes"/>
      <point x="22" y="51"/>
      <point x="107" y="-8"/>
    </contour>
  </outline>
</glyph>
<glyph name="eight.tosf" format="1">
  <advance width="480"/>
  <outline>
    <contour>
      <point x="239" y="-8" type="curve" smooth="yes"/>
      <point x="374" y="-8"/>
      <point x="467" y="55"/>
      <point x="467" y="155" type="curve" smooth="yes"/>
      <point x="467" y="222"/>
      <point x="424" y="272"/>
      <point x="288" y="324" type="curve" smooth="yes"/>
      <point x="204" y="353"/>
      <point x="179" y="375"/>
      <point x="179" y="417" type="curve" smooth="yes"/>
      <point x="179" y="456"/>
      <point x="204" y="478"/>
      <point x="247" y="478" type="curve" smooth="yes"/>
      <point x="293" y="478"/>
      <point x="320" y="448"/>
      <point x="320" y="390" type="curve" smooth="yes"/>
      <point x="320" y="345"/>
      <point x="313" y="317"/>
      <point x="285" y="274" type="curve"/>
      <point x="291" y="264" type="line"/>
      <point x="394" y="279"/>
      <point x="446" y="326"/>
      <point x="446" y="397" type="curve" smooth="yes"/>
      <point x="446" y="478"/>
      <point x="378" y="536"/>
      <point x="258" y="536" type="curve" smooth="yes"/>
      <point x="132" y="536"/>
      <point x="48" y="471"/>
      <point x="48" y="382" type="curve" smooth="yes"/>
      <point x="48" y="297"/>
      <point x="96" y="249"/>
      <point x="229" y="199" type="curve" smooth="yes"/>
      <point x="313" y="171"/>
      <point x="332" y="152"/>
      <point x="332" y="113" type="curve" smooth="yes"/>
      <point x="332" y="78"/>
      <point x="302" y="56"/>
      <point x="253" y="56" type="curve" smooth="yes"/>
      <point x="200" y="56"/>
      <point x="160" y="82"/>
      <point x="160" y="141" type="curve" smooth="yes"/>
      <point x="160" y="175"/>
      <point x="169" y="202"/>
      <point x="194" y="244" type="curve"/>
      <point x="189" y="267" type="line"/>
      <point x="85" y="248"/>
      <point x="26" y="202"/>
      <point x="26" y="134" type="curve" smooth="yes"/>
      <point x="26" y="51"/>
      <point x="113" y="-8"/>
    </contour>
  </outline>
</glyph>
<glyph name="euro" format="1">
  <advance width="593"/>
  <outline>
    <contour>
      <point x="374" y="-8" type="curve" smooth="yes"/>
      <point x="445" y="-8"/>
      <point x="521" y="16"/>
      <point x="555" y="40" type="curve"/>
      <point x="566" y="83"/>
      <point x="574" y="122"/>
      <point x="581" y="164" type="curve"/>
      <point x="513" y="171" type="line"/>
      <point x="505" y="154"/>
      <point x="497" y="123"/>
      <point x="484" y="93" type="curve"/>
      <point x="468" y="72"/>
      <point x="425" y="61"/>
      <point x="400" y="61" type="curve" smooth="yes"/>
      <point x="309" y="61"/>
      <point x="237" y="145"/>
      <point x="237" y="293" type="curve" smooth="yes"/>
      <point x="237" y="400"/>
      <point x="294" y="470"/>
      <point x="388" y="470" type="curve" smooth="yes"/>
      <point x="416" y="470"/>
      <point x="438" y="464"/>
      <point x="461" y="455" type="curve"/>
      <point x="473" y="422"/>
      <point x="484" y="388"/>
      <point x="495" y="356" type="curve"/>
      <point x="555" y="359" type="line"/>
      <point x="548" y="504" type="line"/>
      <point x="513" y="522"/>
      <point x="454" y="536"/>
      <point x="399" y="536" type="curve" smooth="yes"/>
      <point x="216" y="536"/>
      <point x="75" y="438"/>
      <point x="75" y="252" type="curve" smooth="yes"/>
      <point x="75" y="90"/>
      <point x="192" y="-8"/>
    </contour>
    <contour>
      <point x="4" y="289" type="line"/>
      <point x="405" y="289" type="line"/>
      <point x="405" y="350" type="line"/>
      <point x="4" y="350" type="line"/>
    </contour>
    <contour>
      <point x="4" y="186" type="line"/>
      <point x="405" y="186" type="line"/>
      <point x="405" y="247" type="line"/>
      <point x="4" y="247" type="line"/>
    </contour>
  </outline>
</glyph>
